<svg id="layer1" xmlns="http://www.w3.org/2000/svg" width="230.69" height="102.299" viewBox="0 0 230.69 102.299">
  <g id="g1504">
    <path id="path1373" d="M124.715,378.492l5.071,9.3a3.572,3.572,0,0,0,.916,1.071c-.1,0-3.2,0-3.2,0a1.2,1.2,0,0,0-.07-1.17l-.938-1.75h-5.62l-1.005,1.972a.849.849,0,0,0,.012.946H117.67a3.112,3.112,0,0,0,.749-.919l5.058-9.455Zm-3.3,6.4h4.507l-2.222-4.374Zm62.221-5.57a10.6,10.6,0,0,0-4.569-.97,8.438,8.438,0,0,0-5.277,1.538,4.5,4.5,0,0,0-1.908,3.68,4.966,4.966,0,0,0,1.859,3.693,9.073,9.073,0,0,0,9.89.511V383.55l-2.258-.007a2.045,2.045,0,0,1,.368,1.424l-.026,2.332a5.161,5.161,0,0,1-2.647.544,5.337,5.337,0,0,1-4.071-1.47,3.85,3.85,0,0,1-1.181-2.805,3.674,3.674,0,0,1,1.252-2.73,5.515,5.515,0,0,1,4-1.367A7.524,7.524,0,0,1,183,380.488c.256.162.483.322.638.443ZM49.725,379.6l2.25,0c.873,0,1.553.06,1.841.412v-1.517H43.786V380c.289-.352,1.043-.412,1.844-.412l2.222,0v7.6a3.16,3.16,0,0,1-.361,1.665c.03-.011,2.563,0,2.563,0a2.972,2.972,0,0,1-.327-1.665Zm182.153,0,2.25,0c.877,0,1.552.06,1.842.412v-1.517H225.942V380c.288-.352,1.043-.412,1.843-.412l2.222,0v7.6a3.133,3.133,0,0,1-.361,1.665c.027-.011,2.561,0,2.561,0a2.972,2.972,0,0,1-.327-1.665ZM78.759,387.686c-.581-.008-2.994-.027-3.075-.049l0-3.821c1.169-.015,5.113-.019,5.746.325v-1.769c-.473.4-4.276.346-5.746.325v-3.09a56.056,56.056,0,0,1,6.522.165,1.893,1.893,0,0,1,.584.245c0-.031.015-1.542.015-1.542l-9.324,0a2.924,2.924,0,0,1,.329,1.669V387.2a3.122,3.122,0,0,1-.34,1.664l9.483-.007.34-1.647c-.739.558-2.759.485-4.526.479m32.349,0c-.585-.007-3-.027-3.078-.049l0-3.82c1.172-.015,5.113-.019,5.746.323v-1.768c-.473.4-4.274.345-5.746.323v-3.089a56.055,56.055,0,0,1,6.524.164,1.918,1.918,0,0,1,.58.245c0-.03.016-1.542.016-1.542l-9.323,0a2.947,2.947,0,0,1,.33,1.671l-.005,7.055a3.139,3.139,0,0,1-.336,1.665l9.48-.008.341-1.646c-.738.556-2.76.485-4.525.479m133.912,0c-.581-.008-2.992-.027-3.073-.049l0-3.821c1.169-.015,5.11-.019,5.742.325V382.37c-.469.4-4.276.346-5.742.325l0-3.09a56.36,56.36,0,0,1,6.524.164,1.937,1.937,0,0,1,.584.247c0-.031.011-1.542.011-1.542l-9.319,0a2.947,2.947,0,0,1,.327,1.669V387.2a3.1,3.1,0,0,1-.34,1.664l9.481-.008.338-1.646c-.736.558-2.758.486-4.524.479m-176.95-7.547a2.978,2.978,0,0,1,.361-1.668H65.869a2.962,2.962,0,0,1,.327,1.669v2.58H59.655v-2.582a3.014,3.014,0,0,1,.361-1.668H57.455a2.964,2.964,0,0,1,.326,1.669v7.055a3.167,3.167,0,0,1-.356,1.665h2.56a2.911,2.911,0,0,1-.329-1.665v-3.32H66.2v3.32a3.162,3.162,0,0,1-.359,1.665h2.556a2.986,2.986,0,0,1-.326-1.665Zm137.834,0a3,3,0,0,1,.363-1.668h-2.563a2.964,2.964,0,0,1,.326,1.669v2.58h-6.538v-2.582a3.029,3.029,0,0,1,.36-1.668h-2.563a2.976,2.976,0,0,1,.326,1.669v7.055a3.192,3.192,0,0,1-.357,1.665h2.557a2.948,2.948,0,0,1-.327-1.665v-3.32h6.542v3.32a3.212,3.212,0,0,1-.355,1.665h2.554a2.957,2.957,0,0,1-.329-1.665Zm11.049-1.828a7.293,7.293,0,0,1,5.21,1.867,4.907,4.907,0,0,1,1.29,3.429,5.485,5.485,0,0,1-1.278,3.28,6.453,6.453,0,0,1-5.189,2.185,6.737,6.737,0,0,1-5.263-2.171,5.191,5.191,0,0,1-1.219-3.329,4.783,4.783,0,0,1,1.444-3.375,6.788,6.788,0,0,1,5.005-1.885m-4.464,5.274a4.2,4.2,0,0,0,1.522,3.43,4.5,4.5,0,0,0,2.962.914,4.235,4.235,0,0,0,3.013-.921,4.479,4.479,0,0,0,1.5-3.411,3.837,3.837,0,0,0-1.592-3.381,5.717,5.717,0,0,0-5.8-.033,4.07,4.07,0,0,0-1.605,3.4M270,378.372c-2.459-.055-4.577.631-4.784,2.6a2.054,2.054,0,0,0,.443,1.523c1.328,1.611,4.863,1.72,6.268,2.8a1.336,1.336,0,0,1,.571,1.174c-.131,1.174-1.619,1.481-3.464,1.441a6.054,6.054,0,0,1-4.072-1.337c0,.063.057,1.672.057,1.672a11.982,11.982,0,0,0,4.012.765c2.779.065,5.229-.66,5.436-2.9a2.44,2.44,0,0,0-.454-1.682c-.852-1-2.481-1.369-4.04-1.882-1.476-.487-2.79-.728-2.764-1.78.019-.907,1.469-1.281,2.754-1.257a8.132,8.132,0,0,1,3,.541,2.832,2.832,0,0,1,1.053.621l0-1.593a13.96,13.96,0,0,0-4.022-.711m-118.064,1.776a3.029,3.029,0,0,1,.361-1.671h-2.563a3.01,3.01,0,0,1,.327,1.671l0,7.058a3.181,3.181,0,0,1-.356,1.665h2.559a2.946,2.946,0,0,1-.329-1.671Zm110.756,7.089c-.741.555-2.758.49-4.528.476-.54,0-1.859-.027-1.859-.027l.027-7.561a3.035,3.035,0,0,1,.361-1.668h-2.56a2.976,2.976,0,0,1,.327,1.671l0,7.051a3.159,3.159,0,0,1-.357,1.668h8.254Zm-159.716,0c-.739.555-2.759.49-4.526.476-.539,0-1.857-.027-1.857-.027l.025-7.561a3.023,3.023,0,0,1,.361-1.668H94.414a2.952,2.952,0,0,1,.327,1.671l0,7.051a3.176,3.176,0,0,1-.356,1.668h8.254Zm64.628-7.1a3.133,3.133,0,0,1,.32-1.669H166.13a3.384,3.384,0,0,1,.323,1.669v6.338l-6.749-8.016h-2.479a3.174,3.174,0,0,1,.342,1.675v7.052a3.1,3.1,0,0,1-.308,1.667h1.783a3.307,3.307,0,0,1-.337-1.667V380.3l7.149,8.587H167.6Zm-28.192-1.647h-5.57a2.923,2.923,0,0,1,.329,1.657l0,7.058a3.161,3.161,0,0,1-.356,1.665h5.6c3.227,0,6.141-1.7,6.141-5.307,0-4.305-3.441-5.073-6.141-5.073m-.012,9.2H136.16v-8.082h3.219c2.9,0,4.19,1.4,4.19,3.975,0,2.358-1.226,4.106-4.172,4.106m90.99,10.614h-4.417a2.337,2.337,0,0,1,.259,1.316v5.6a2.54,2.54,0,0,1-.282,1.32h4.441c2.558,0,4.866-1.35,4.866-4.206,0-3.415-2.723-4.026-4.866-4.026m-.015,7.3H227.8v-6.411h2.554c2.3,0,3.321,1.106,3.321,3.155a2.97,2.97,0,0,1-3.309,3.257m-41.6-7.5a5.83,5.83,0,0,1,4.172,1.492,3.924,3.924,0,0,1,1.03,2.743,4.384,4.384,0,0,1-1.02,2.627,5.156,5.156,0,0,1-4.154,1.747,5.382,5.382,0,0,1-4.21-1.739,4.139,4.139,0,0,1-.976-2.664,3.838,3.838,0,0,1,1.158-2.7,5.418,5.418,0,0,1,4-1.506m-3.566,4.221a3.347,3.347,0,0,0,1.214,2.741,3.614,3.614,0,0,0,2.373.731,3.4,3.4,0,0,0,2.411-.735,3.587,3.587,0,0,0,1.2-2.732,3.084,3.084,0,0,0-1.274-2.7,3.892,3.892,0,0,0-2.323-.648,3.841,3.841,0,0,0-2.324.622,3.255,3.255,0,0,0-1.282,2.724M85.3,398.073a5.845,5.845,0,0,1,4.175,1.492,3.947,3.947,0,0,1,1.027,2.744,4.394,4.394,0,0,1-1.02,2.628,5.165,5.165,0,0,1-4.153,1.747,5.394,5.394,0,0,1-4.211-1.739,4.14,4.14,0,0,1-.976-2.665,3.849,3.849,0,0,1,1.155-2.7,5.438,5.438,0,0,1,4-1.507m-3.568,4.221a3.358,3.358,0,0,0,1.214,2.744,3.638,3.638,0,0,0,2.373.731,3.379,3.379,0,0,0,2.41-.736,3.582,3.582,0,0,0,1.206-2.732,3.085,3.085,0,0,0-1.274-2.7,3.889,3.889,0,0,0-2.32-.645,3.829,3.829,0,0,0-2.325.619,3.256,3.256,0,0,0-1.283,2.724m139.39,2.961c-.586.441-2.181.39-3.581.379-.428,0-1.472-.019-1.472-.019l.02-5.984a2.367,2.367,0,0,1,.288-1.32H214.35a2.342,2.342,0,0,1,.258,1.323l0,5.578a2.507,2.507,0,0,1-.282,1.322h6.531Zm-99.673-6.084h1.785c.7,0,1.236.046,1.467.323v-1.207h-7.967v1.207c.229-.277.829-.323,1.462-.323h1.765v6.035a2.491,2.491,0,0,1-.288,1.322c.023,0,2.036,0,2.036,0a2.367,2.367,0,0,1-.26-1.322Zm28.265,6.419c-.46,0-2.376-.019-2.441-.035l0-3.032a22.342,22.342,0,0,1,4.561.252v-1.4c-.372.32-3.393.27-4.561.259v-2.455a43.939,43.939,0,0,1,5.18.131,1.462,1.462,0,0,1,.456.194c0-.027,0-1.225,0-1.225h-7.384a2.353,2.353,0,0,1,.259,1.326l0,5.6a2.466,2.466,0,0,1-.266,1.322l7.528,0,.271-1.309c-.588.441-2.194.387-3.6.375M138.593,399.6a2.4,2.4,0,0,1,.286-1.326h-2.035a2.319,2.319,0,0,1,.26,1.326v2.048h-5.193V399.6a2.422,2.422,0,0,1,.284-1.326h-2.032a2.328,2.328,0,0,1,.262,1.326l0,5.6a2.484,2.484,0,0,1-.285,1.322h2.033a2.314,2.314,0,0,1-.259-1.322V402.57h5.193v2.636a2.473,2.473,0,0,1-.284,1.322h2.031a2.314,2.314,0,0,1-.259-1.322Zm-40.332,5.641v-2.7a23.749,23.749,0,0,1,4.66.259v-1.428c-.375.323-3.494.281-4.66.261l0-2.415a43.042,43.042,0,0,1,5.073.13,1.478,1.478,0,0,1,.458.192c0-.023,0-1.257,0-1.257h-7.28a2.307,2.307,0,0,1,.262,1.32l-.005,5.6a2.51,2.51,0,0,1-.263,1.324h2.04a1.982,1.982,0,0,1-.285-1.292m109.517.458c-.82-1.113-1.481-2.2-1.916-2.728-.23-.28-.458-.569-.67-.569a2.17,2.17,0,0,0,2.265-2.072c0-2.057-2.4-2.048-5.124-2.048l-2.794,0a1.98,1.98,0,0,1,.326,1.327v5.6a2.092,2.092,0,0,1-.357,1.327h2.273a1.955,1.955,0,0,1-.329-1.327V402.6a10.008,10.008,0,0,1,1.837.108c.655.2,1.068.7,1.827,1.9.682,1.087,1.305,1.909,1.305,1.909.344.031,2.175.008,2.175.008a4.7,4.7,0,0,1-.818-.82m-3.224-4.018a13.845,13.845,0,0,1-2,.078s-1.079,0-1.12,0l0-2.61c.015-.008.817.007,1.158.007a12.386,12.386,0,0,1,1.949.1c.6.116,1.279.435,1.279,1.116,0,.736-.329,1.1-1.275,1.315m-24.735-3.412h-1.562s.278.2-.119,1.169l-1.919,4.713-2.728-5.942h-.277l-2.673,6.089s-1.677-4.3-1.927-4.91c-.334-.811-.031-1.12-.031-1.12H166.4a2.793,2.793,0,0,1,.657,1.162l2.981,7.154h.42l2.578-5.74,2.786,5.74h.282l3.018-7.141a3.36,3.36,0,0,1,.7-1.176" transform="translate(-43.786 -304.42)" fill="#232b38"/>
    <path id="path1385" d="M132.189,324.13l-.052.1a8.307,8.307,0,0,0-.681,3.935s-.05,18.661-.05,18.816c.959-.046,2.643-.04,3.183-.04,3.105,0,6.374.471,7.778-.931l.1.015-1.156,3.064a64.069,64.069,0,0,0-6.722-.4c-2.227,0-3.961.056-7.033.278l-.14.019.041-.1a9.041,9.041,0,0,0,.668-3.932l0-16.78a8.46,8.46,0,0,0-.614-3.935l-.05-.1Zm15.446,12.2.045.1c.734,1.593,1.133,3.223,1.133,7.27,0,0-.236,12.179-.236,12.348a90.136,90.136,0,0,0-14.853-1.491,85.071,85.071,0,0,0-14.822,1.491c0-.176,0-12.352,0-12.352,0-3.978.543-5.582,1.255-7.268l.061-.1h-6.7l.049.105c.736,1.593,1.133,3.225,1.133,7.27l-.007,30.86a16.789,16.789,0,0,1-1.226,7.253l-.041.1h6.651l-.048-.093c-.738-1.593-1.133-3.224-1.133-7.27,0,0,0-15.275,0-15.385a66.422,66.422,0,0,1,14.823-1.549,69.232,69.232,0,0,1,14.853,1.551c0,.112.228,15.39.228,15.39,0,4.078-.441,5.615-1.094,7.253l-.038.1h6.516l-.046-.093c-.734-1.593-1.136-3.224-1.136-7.272l.008-30.856c0-3.978.546-5.583,1.259-7.268l.056-.1Zm-13.448,27.108s-5.347,16.758-5.478,17.172c-.461-1.585-3.309-12-3.759-13.528a12.9,12.9,0,0,1-.415-2.43,2.726,2.726,0,0,1,.207-1.252l.085-.188s-1.324.175-2.222.311c-.754.119-2.14.372-2.14.372l.146.147c.5.581.657,1.09,1.285,3.165l5.908,19.929h.371s5.417-16.622,5.538-17c.131.374,5.728,17,5.728,17h.344l6-19.888a9.24,9.24,0,0,1,1.427-3.236l.108-.11c-.177-.06-.8-.206-1.551-.376-.791-.179-1.514-.293-1.514-.293l.093.224a1.96,1.96,0,0,1,.177.914,12.528,12.528,0,0,1-.5,2.831s-3.722,13.071-3.842,13.469L134.4,363.439Z" transform="translate(-18.45 -324.13)" fill="#232b38"/>
    <path id="path1389" d="M188.33,397.257a2.217,2.217,0,1,1,2.218-2.219,2.214,2.214,0,0,1-2.218,2.219m0-4.067a1.848,1.848,0,1,0,1.851,1.848,1.844,1.844,0,0,0-1.851-1.848m-.968.691h1.053c.588,0,.79.366.79.626a.682.682,0,0,1-.681.687v.008c.2.072.355.277.552.6l.289.462h-.47l-.211-.372c-.3-.535-.412-.638-.709-.638h-.226v1.011h-.386Zm.937,1.042c.3,0,.5-.116.5-.361,0-.217-.177-.355-.43-.355h-.616v.716Z" transform="translate(7.994 -299.139)" fill="#232b38"/>
  </g>
</svg>
