<svg id="Group_2731" data-name="Group 2731" xmlns="http://www.w3.org/2000/svg" width="283.174" height="58.29" viewBox="0 0 283.174 58.29">
  <g id="Group_2728" data-name="Group 2728" transform="translate(0 19.752)">
    <path id="Path_2853" data-name="Path 2853" d="M247.985,83.861a9,9,0,0,0-9.011,9.011v29.165a.361.361,0,0,0,.363.361H268.5a9,9,0,0,0,9.011-9.011V84.142a.275.275,0,0,0-.283-.281Z" transform="translate(-238.974 -83.861)" fill="#00a09c"/>
    <g id="Group_2727" data-name="Group 2727" transform="translate(5.707 11.183)">
      <path id="Path_2854" data-name="Path 2854" d="M261.525,107.018c-1.085-1.327-2.213-2.816-4.063-2.9h-6.8c-2.293,0-3.177-2.816-3.138-4.707.041-1.731.925-3.943,2.937-3.943h7.362V92.094h-7.6c-4.264,0-6.918,3.259-7.039,7.361a9.792,9.792,0,0,0,.482,3.42,7.278,7.278,0,0,0,1.69,2.775,5.987,5.987,0,0,0,4.264,1.649h12.108Z" transform="translate(-243.175 -92.094)" fill="#fff" fill-rule="evenodd"/>
      <path id="Path_2855" data-name="Path 2855" d="M267.184,107.9c-2.092-1.731-3.782-3.541-4.344-6.236A4.894,4.894,0,0,0,266.782,97a4.944,4.944,0,0,0-4.988-4.908h-5.431v3.378h4.3c.964,0,1.889.443,1.93,1.489a1.515,1.515,0,0,1-.443,1.167,3.131,3.131,0,0,1-1.85.523h-.2c-1.167-.041-2.334-.2-3.54-.2h-.484a7.889,7.889,0,0,0-3.339.564,4.415,4.415,0,0,0-1.809,1.407l-.2.281h.361a9.578,9.578,0,0,1,5.592,1.731,38.909,38.909,0,0,1,3.579,3.259,8.766,8.766,0,0,0,6.517,2.574h.765Z" transform="translate(-240.468 -92.094)" fill="#fff" fill-rule="evenodd"/>
    </g>
  </g>
  <path id="Path_2856" data-name="Path 2856" d="M416.158,111.769h-3.822a.35.35,0,0,1-.361-.242l-8.449-20.677a.4.4,0,0,1,.363-.564h2.937a.406.406,0,0,1,.361.242l7.081,17.82,7.039-17.82a.386.386,0,0,1,.363-.242h2.937a.4.4,0,0,1,.361.564l-8.448,20.677A.408.408,0,0,1,416.158,111.769Z" transform="translate(-180.018 -61.806)" fill="#0c233f"/>
  <path id="Path_2857" data-name="Path 2857" d="M287.855,89.932a15.211,15.211,0,0,1,6.194,1.288.44.44,0,0,1,.242.4l-.281,2.373a.4.4,0,0,1-.564.322,14.534,14.534,0,0,0-5.591-1.087c-5.029,0-8.488,3.138-8.488,7.805s3.46,7.925,8.528,7.925a14.681,14.681,0,0,0,5.753-1.167.4.4,0,0,1,.564.281l.443,2.414a.408.408,0,0,1-.242.443,17.7,17.7,0,0,1-6.477,1.327c-7.2,0-12.149-4.586-12.149-11.264C275.786,94.477,280.694,89.932,287.855,89.932Z" transform="translate(-225.782 -61.933)" fill="#0c233f"/>
  <path id="Path_2858" data-name="Path 2858" d="M440.228,109.944a.406.406,0,0,1-.2.443,15.787,15.787,0,0,1-7.844,1.971c-7.241,0-12.229-4.586-12.229-11.183a10.791,10.791,0,0,1,11.062-11.183c7.16,0,11.264,5.673,10.3,12.149a.391.391,0,0,1-.4.322H423.694c.6,4.223,4.184,6.557,8.368,6.557a14.5,14.5,0,0,0,7.16-1.729.379.379,0,0,1,.564.281Zm-2.254-10.419c-.24-3.661-2.775-6.276-6.879-6.276-4.063,0-7.039,2.615-7.361,6.276Z" transform="translate(-174.118 -61.912)" fill="#0c233f"/>
  <path id="Path_2859" data-name="Path 2859" d="M331.278,89.932a11.186,11.186,0,1,1-11.425,11.183A11.092,11.092,0,0,1,331.278,89.932Zm0,19.108a7.885,7.885,0,1,0-7.845-7.885A7.714,7.714,0,0,0,331.278,109.04Z" transform="translate(-209.99 -61.933)" fill="#0c233f"/>
  <path id="Path_2860" data-name="Path 2860" d="M303.181,92.108a8.329,8.329,0,0,0-7.2,3.661V87.2a3.331,3.331,0,0,0-3.339-3.339.26.26,0,0,0-.242.24V113.67a.381.381,0,0,0,.4.4h2.776a.381.381,0,0,0,.4-.4V101.923a6.328,6.328,0,0,1,6.637-6.436c3.862,0,6.035,2.211,6.035,6.4V113.67a.38.38,0,0,0,.4.4h2.736a.381.381,0,0,0,.4-.4V101C312.193,95.446,308.813,92.108,303.181,92.108Z" transform="translate(-219.828 -64.109)" fill="#0c233f"/>
  <path id="Path_2861" data-name="Path 2861" d="M365.324,89.932a8.589,8.589,0,0,0-7.844,4.506c-1.288-2.816-4.063-4.506-7.845-4.506a8,8,0,0,0-7.04,3.661v.121a3.33,3.33,0,0,0-3.339-3.339.259.259,0,0,0-.242.24v20.839a.38.38,0,0,0,.4.4h2.775a.379.379,0,0,0,.4-.4V99.667a6.188,6.188,0,0,1,6.477-6.4c3.621,0,5.793,2.334,5.793,6.315v11.868a.379.379,0,0,0,.4.4h2.775a.38.38,0,0,0,.4-.4V99.506a6.1,6.1,0,0,1,6.4-6.235c3.742,0,5.954,2.334,5.954,6.315v11.868a.38.38,0,0,0,.4.4h2.775a.379.379,0,0,0,.4-.4V98.7C374.254,93.472,370.915,89.932,365.324,89.932Z" transform="translate(-203.124 -61.933)" fill="#0c233f"/>
  <path id="Path_2862" data-name="Path 2862" d="M319.493,89.961a6.279,6.279,0,0,0-5.833,3.661,3.332,3.332,0,0,0-3.339-3.218.26.26,0,0,0-.242.242v20.839a.381.381,0,0,0,.4.4h2.775a.38.38,0,0,0,.4-.4V99.938c0-4.828,2.816-6.678,5.673-6.678a7.653,7.653,0,0,1,2.334.361.4.4,0,0,0,.523-.321l.281-2.5a.39.39,0,0,0-.281-.441A8.769,8.769,0,0,0,319.493,89.961Z" transform="translate(-213.492 -61.923)" fill="#0c233f"/>
  <path id="Path_2863" data-name="Path 2863" d="M447.727,89.932a6.276,6.276,0,0,0-5.833,3.661,3.333,3.333,0,0,0-3.339-3.218.259.259,0,0,0-.242.24v20.839a.38.38,0,0,0,.4.4h2.776a.38.38,0,0,0,.4-.4V99.908c0-4.826,2.816-6.678,5.673-6.678a7.593,7.593,0,0,1,2.332.363.4.4,0,0,0,.523-.322l.283-2.494a.393.393,0,0,0-.283-.443A10.257,10.257,0,0,0,447.727,89.932Z" transform="translate(-167.539 -61.933)" fill="#0c233f"/>
  <g id="Group_2729" data-name="Group 2729" transform="translate(215.904 21.12)">
    <path id="Path_2864" data-name="Path 2864" d="M398.617,90.287h2.777a.38.38,0,0,1,.4.4v20.678a.38.38,0,0,1-.4.4h-2.777a.381.381,0,0,1-.4-.4V90.689A.4.4,0,0,1,398.617,90.287Z" transform="translate(-397.813 -82.926)" fill="#0c233f"/>
    <path id="Path_2865" data-name="Path 2865" d="M397.919,87.079a2.233,2.233,0,1,1,2.213,2.213A2.112,2.112,0,0,1,397.919,87.079Z" transform="translate(-397.919 -84.868)" fill="#0c233f"/>
  </g>
  <g id="Group_2730" data-name="Group 2730" transform="translate(50.808)">
    <path id="Path_2866" data-name="Path 2866" d="M282.05,72.489a5.538,5.538,0,0,0-5.672,5.751c0,3.42,2.575,5.753,6.276,5.753a7.962,7.962,0,0,0,4.023-1.005.268.268,0,0,0,.16-.281l-.24-1.53a.279.279,0,0,0-.4-.2,8.045,8.045,0,0,1-3.54.886c-2.131,0-3.54-1.007-3.942-2.816h8.367a.344.344,0,0,0,.281-.242A5.253,5.253,0,0,0,282.05,72.489Zm-3.259,4.746a3.107,3.107,0,0,1,3.339-2.695,2.912,2.912,0,0,1,3.138,2.695Z" transform="translate(-276.378 -68.184)" fill="#0c233f"/>
    <path id="Path_2867" data-name="Path 2867" d="M299.678,72.489a4.525,4.525,0,0,0-3.942,2.051,4.174,4.174,0,0,0-3.943-2.051,3.929,3.929,0,0,0-3.458,1.77,2.163,2.163,0,0,0-2.053-1.53.173.173,0,0,0-.16.162v10.62a.274.274,0,0,0,.281.281h1.73a.274.274,0,0,0,.281-.281V77.516a2.806,2.806,0,0,1,2.976-2.9c1.61,0,2.615,1.046,2.615,2.9V83.47a.276.276,0,0,0,.283.283h1.729a.275.275,0,0,0,.281-.283V77.4a2.749,2.749,0,0,1,2.978-2.736c1.61,0,2.615,1.046,2.615,2.9v5.954a.274.274,0,0,0,.281.281H303.9a.274.274,0,0,0,.281-.281V77.075A4.184,4.184,0,0,0,299.678,72.489Z" transform="translate(-272.886 -68.184)" fill="#0c233f"/>
    <path id="Path_2868" data-name="Path 2868" d="M307.283,73.625a4.761,4.761,0,0,0-3.942,1.729V69.48a.173.173,0,0,0-.162-.16,2.145,2.145,0,0,0-2.131,2.131V84.687a.172.172,0,0,0,.16.16,2.16,2.16,0,0,0,2.053-1.569,4.722,4.722,0,0,0,4.022,1.85,5.533,5.533,0,0,0,5.552-5.833A5.421,5.421,0,0,0,307.283,73.625ZM307,83.077a3.675,3.675,0,0,1-3.661-3.782A3.575,3.575,0,0,1,307,75.635a3.477,3.477,0,0,1,3.54,3.661A3.578,3.578,0,0,1,307,83.077Z" transform="translate(-267.537 -69.32)" fill="#0c233f"/>
    <path id="Path_2869" data-name="Path 2869" d="M321.185,72.637h-1.731a.274.274,0,0,0-.281.281v5.954a2.841,2.841,0,0,1-3.1,2.9c-1.69,0-2.7-1.046-2.7-2.9V72.959a.275.275,0,0,0-.281-.283H311.37a.276.276,0,0,0-.283.283v6.436a4.258,4.258,0,0,0,4.627,4.586,3.947,3.947,0,0,0,3.54-1.77,2.126,2.126,0,0,0,2.052,1.489.173.173,0,0,0,.16-.162V72.959A.311.311,0,0,0,321.185,72.637Z" transform="translate(-263.94 -68.131)" fill="#0c233f"/>
    <path id="Path_2870" data-name="Path 2870" d="M326.923,72.69a4.488,4.488,0,0,0-1.288-.2,3.084,3.084,0,0,0-2.937,1.85,2.16,2.16,0,0,0-2.092-1.61.173.173,0,0,0-.16.162v10.62a.274.274,0,0,0,.281.281h1.73a.274.274,0,0,0,.281-.281V77.758c0-2.494,1.608-3.138,2.816-3.138a3.319,3.319,0,0,1,1.046.162.314.314,0,0,0,.361-.242l.162-1.528A.317.317,0,0,0,326.923,72.69Z" transform="translate(-260.586 -68.184)" fill="#0c233f"/>
    <path id="Path_2871" data-name="Path 2871" d="M331.673,77.356l-1.288-.281c-1.407-.283-1.93-.644-1.93-1.328,0-.8.844-1.286,2.494-1.286a9.129,9.129,0,0,1,3.017.523.256.256,0,0,0,.361-.242l.162-1.409a.258.258,0,0,0-.2-.281,10.32,10.32,0,0,0-3.5-.562c-2.775,0-4.627,1.367-4.627,3.257,0,1.69,1.046,2.816,2.977,3.219l1.649.321c1.448.283,2.012.685,2.012,1.449,0,.845-.765,1.286-2.414,1.286a10.3,10.3,0,0,1-3.46-.644.256.256,0,0,0-.361.242l-.2,1.409a.268.268,0,0,0,.16.281,9.609,9.609,0,0,0,4.023.724c2.695,0,4.5-1.087,4.5-3.3C335.133,78.763,333.925,77.838,331.673,77.356Z" transform="translate(-258.538 -68.184)" fill="#0c233f"/>
    <path id="Path_2872" data-name="Path 2872" d="M339.444,72.489a5.537,5.537,0,0,0-5.671,5.751c0,3.42,2.574,5.753,6.276,5.753a7.958,7.958,0,0,0,4.022-1.005.269.269,0,0,0,.162-.281l-.242-1.53a.278.278,0,0,0-.4-.2,8.054,8.054,0,0,1-3.54.886c-2.133,0-3.541-1.007-3.943-2.816h8.367a.347.347,0,0,0,.283-.242A5.292,5.292,0,0,0,339.444,72.489Zm-3.3,4.746a3.106,3.106,0,0,1,3.339-2.695,2.912,2.912,0,0,1,3.138,2.695Z" transform="translate(-255.81 -68.184)" fill="#0c233f"/>
  </g>
  <path id="Path_2873" data-name="Path 2873" d="M387.779,109.965a.4.4,0,0,1-.2.443,15.78,15.78,0,0,1-7.845,1.971c-7.24,0-12.229-4.586-12.229-11.183,0-6.436,4.586-11.264,11.063-11.264,7.161,0,11.265,5.673,10.3,12.149a.392.392,0,0,1-.4.322H371.245c.6,4.223,4.184,6.557,8.368,6.557a14.505,14.505,0,0,0,7.161-1.731.379.379,0,0,1,.564.283Zm-2.252-10.419c-.242-3.661-2.776-6.276-6.879-6.276-4.063,0-7.04,2.615-7.362,6.276Z" transform="translate(-192.914 -61.933)" fill="#0c233f"/>
  <path id="Path_2874" data-name="Path 2874" d="M395.576,89.932a6.274,6.274,0,0,0-5.833,3.661,3.334,3.334,0,0,0-3.339-3.218.259.259,0,0,0-.242.24v20.839a.379.379,0,0,0,.4.4h2.775a.38.38,0,0,0,.4-.4V99.908c0-4.826,2.816-6.678,5.671-6.678a7.6,7.6,0,0,1,2.334.363.4.4,0,0,0,.523-.322l.281-2.494a.391.391,0,0,0-.281-.443A10.256,10.256,0,0,0,395.576,89.932Z" transform="translate(-186.228 -61.933)" fill="#0c233f"/>
</svg>
