<svg id="Group_2743" data-name="Group 2743" xmlns="http://www.w3.org/2000/svg" width="186.627" height="37.186" viewBox="0 0 186.627 37.186">
  <g id="Group_2742" data-name="Group 2742">
    <g id="Group_2733" data-name="Group 2733" transform="translate(160.529)">
      <g id="Group_2732" data-name="Group 2732">
        <path id="w2j6a" d="M821.221,91.881,834.849,78.7h.466v7.952h10.641V92.89H835.315v11.238c0,3.491,2.073,5.227,5.414,5.227a10.828,10.828,0,0,0,6.589-2.129v6.422a16.3,16.3,0,0,1-8.363,1.96,10.907,10.907,0,0,1-9.073-3.958,8.708,8.708,0,0,1-1.307-2.5,21.326,21.326,0,0,1-.485-5.6V92.89H821.24Z" transform="translate(-821.221 -78.702)"/>
      </g>
    </g>
    <g id="Group_2735" data-name="Group 2735" transform="translate(122.13 8.139)">
      <g id="Group_2734" data-name="Group 2734">
        <path id="w2j6b" d="M800.942,85.31V88.8a23.014,23.014,0,0,1,13.292-4.106,19.7,19.7,0,0,1,7.317,1.343,9.522,9.522,0,0,1,4.761,3.678c1.157,1.736,1.773,4.032,1.773,7.411v15.867h-7.84V98.434a8.114,8.114,0,0,0-2.389-6.087c-1.307-1.213-3.491-2-6.57-2a15.088,15.088,0,0,0-10.343,4.106v18.519h-7.99V85.329Z" transform="translate(-792.952 -84.694)"/>
      </g>
    </g>
    <g id="Group_2737" data-name="Group 2737" transform="translate(77.943 7.84)">
      <g id="Group_2736" data-name="Group 2736">
        <path id="w2j6c" d="M768.842,94.891a8.381,8.381,0,0,1,4.013-4.2,15.232,15.232,0,0,1,7.281-1.568,13.26,13.26,0,0,1,6.813,1.7,6.786,6.786,0,0,1,3.416,4.051Zm29.513,4.367a12.814,12.814,0,0,0-4.089-9.987c-3.267-3.024-7.8-4.8-13.87-4.8-6.291,0-11.537.933-15.064,4.106A13.349,13.349,0,0,0,760.423,99a13.982,13.982,0,0,0,8.68,12.713c3.081,1.475,7.486,2.016,12.508,2.016,7.5,0,13.142-1.661,16.11-3.677v-5.731a31.031,31.031,0,0,1-14.748,3.4c-4.256,0-6.44-.149-10.155-1.755-2.632-1.119-4.667-3.51-4.667-5.974l30.2-.018Z" transform="translate(-760.423 -84.474)"/>
      </g>
    </g>
    <g id="Group_2739" data-name="Group 2739" transform="translate(37.266 8.755)">
      <g id="Group_2738" data-name="Group 2738">
        <path id="w2j6d" d="M761.8,85.147h8.942L752.28,112.925h-2.911L730.477,85.147h9.017L750.862,102.6Z" transform="translate(-730.477 -85.147)"/>
      </g>
    </g>
    <g id="Group_2741" data-name="Group 2741" transform="translate(0 8.008)">
      <g id="Group_2740" data-name="Group 2740">
        <path id="w2j6e" d="M737.62,105.581v6.626a55.711,55.711,0,0,1-12.9,1.569c-6.944,0-12.06-1.307-15.98-3.92a11.894,11.894,0,0,1-5.693-10.492,12.575,12.575,0,0,1,5.488-10.827c3.809-2.706,8.737-3.938,15.29-3.938a41.152,41.152,0,0,1,12.88,1.96v6.758a30.848,30.848,0,0,0-12.376-2.483c-3.66,0-7.58.914-9.839,2.351a6.948,6.948,0,0,0-3.361,5.993,7.136,7.136,0,0,0,3.734,5.992c2.427,1.569,7.057,2.278,11.126,2.278a42.963,42.963,0,0,0,11.63-1.866" transform="translate(-703.042 -84.597)" fill="#558cc9"/>
      </g>
    </g>
  </g>
</svg>
