<svg id="Group_2724" data-name="Group 2724" xmlns="http://www.w3.org/2000/svg" width="219.636" height="24.232" viewBox="0 0 219.636 24.232">
  <path id="Path_2842" data-name="Path 2842" d="M924.612,165.517a11.751,11.751,0,0,0-5.6-4.173,14.91,14.91,0,0,1-2.928-1.537,10.085,10.085,0,0,1-1.941-2.124,13.433,13.433,0,0,0-3.221-3.221l-.219-.146,6.149-4.54A9.636,9.636,0,0,1,920.293,153a11.251,11.251,0,0,0,1.83,2.014c.038.036.769.512.769.512l-2.051,1.537c-.255-.146-.475-.293-.7-.439-1.025-.733-2.049-2.673-3.221-3.442l-2.013,1.5c1.427.952,2.2,2.709,3.221,3.4,2.636,1.867,6.077,2.014,8.6,5.748.658-.512,1.318-1.025,1.976-1.5-1.684-2.489-3.807-3.368-5.784-4.247l3.771-2.928a16.106,16.106,0,0,1-2.745-1.427,8.824,8.824,0,0,1-1.941-2.2c-1.244-1.758-2.673-3.735-5.71-4.5a4.567,4.567,0,0,1-1.648,1.683L906.6,154.9c2.673.807,4.026,2.673,5.2,4.357a9.637,9.637,0,0,0,1.94,2.2,15.437,15.437,0,0,0,2.892,1.5,11.731,11.731,0,0,1,5.748,4.283c.219-.183.476-.367.732-.548.074-.074.66-.55,1.5-1.172" transform="translate(-906.384 -147.031)"/>
  <path id="Path_2843" data-name="Path 2843" d="M920.355,165.394c-1.648-2.452-3.661-3.331-5.638-4.209a14.916,14.916,0,0,1-2.928-1.537,15.538,15.538,0,0,1-2.928-3.442l-2.416,1.831a12.415,12.415,0,0,1,1.646,1.794,7.267,7.267,0,0,0,1.355,1.427,16.511,16.511,0,0,0,2.782,1.465c2.159.951,4.612,2.049,6.3,4.977.036-.072.072-.11.11-.182a6.483,6.483,0,0,1,1.72-2.124" transform="translate(-906.445 -143.468)"/>
  <path id="Path_2844" data-name="Path 2844" d="M926.962,167.1a21.09,21.09,0,0,0,5.93.879c4.576,0,9.116-1.867,9.116-5.162,0-5.856-11.97-4.576-11.97-9.3,0-1.867,1.72-3.038,4.648-3.038,2.782,0,4.576.805,5.016,2.6h.915l-.622-3.258c-1.538-.146-3.149-.367-4.723-.367-4.722,0-8.309,1.722-8.309,5.016,0,6,11.494,4.612,11.494,9.371,0,2.013-2.342,3.147-5.308,3.147-3.221,0-5.381-1.647-6.039-3.55h-.916Z" transform="translate(-898.776 -146.089)"/>
  <path id="Path_2845" data-name="Path 2845" d="M943.191,167.484c1.941-.036,1.9,0,3.771,0v-17.79c-1.941.036-5.491.036-7.322,0v1.1c2.05.036,3.551.036,3.551,1.83Z" transform="translate(-893.554 -145.997)"/>
  <path id="Path_2846" data-name="Path 2846" d="M973.119,167.887h1.427L985.6,149.694c-1.208.036-5.088.036-6.589,0v1.1c1.391.036,3.99-.44,3.111,1.427l-7.175,12.227-8.895-14.752c-1.648,0-4.686.036-6.479,0v1.1c2.563,0,3.331.622,4.393,2.049Z" transform="translate(-885.813 -145.997)"/>
  <path id="Path_2847" data-name="Path 2847" d="M955.856,149.694c-3.771.036-4.942.036-7.542,0v1.1c3.075.072,3.7.182,3.7,2.269v14.423c2.892-.036,12.7,0,16.582,0l1.612-4.1h-.953c-1.5,2.745-3.221,2.673-7.028,2.782h-6.37Z" transform="translate(-890.185 -145.997)"/>
  <path id="Path_2848" data-name="Path 2848" d="M1041.583,158.579c2.782,0,4.5.769,5.015,2.087h.917l-.623-3.258h-9.371v-6.479h6.3c2.781,0,4.5.769,5.015,2.087h.915l-.622-3.295s-16.473.036-19.072,0v1.1c3.074.074,3.7.183,3.7,2.27l-.037,14.422c2.892-.036,12.74,0,16.62,0l1.61-4.136h-.988c-1.5,2.745-3.185,2.673-6.992,2.782h-6.479v-7.578h4.1" transform="translate(-858.443 -145.987)"/>
  <path id="Path_2849" data-name="Path 2849" d="M991.988,158.579c2.782,0,4.5.769,5.015,2.087h.915l-.622-3.258h-9.371v-6.479h6.3c2.782,0,4.5.769,5.016,2.087h.915l-.622-3.295s-16.473.036-19.073,0v1.1c3.075.074,3.7.183,3.7,2.27l-.037,14.422c2.892-.036,12.739,0,16.62,0l1.61-4.136h-.988c-1.5,2.745-3.185,2.673-6.992,2.782h-6.443v-7.578h4.064" transform="translate(-877.704 -145.987)"/>
  <path id="Path_2850" data-name="Path 2850" d="M1053.153,159.614l3.66-7.394,4.173,7.394Zm8.492,1.172,3.769,6.7h3.918l-10.1-17.79-7.394.036v1.062s4.5-.33,2.892,2.561l-7.614,14.167c1.208-.036,4.869-.036,6.37,0v-1.1c-1.391-.036-3.88.183-3.221-1.244l2.233-4.357Z" transform="translate(-851.819 -145.997)"/>
  <path id="Path_2851" data-name="Path 2851" d="M1039.865,162.87c-.183-5.857-11.97-4.576-11.97-9.3,0-1.867,1.72-3.039,4.648-3.039,2.782,0,4.576.805,5.016,2.6h.915l-.622-3.257c-1.574-.147-3.149-.367-4.759-.367-4.722,0-8.309,1.72-8.309,5.015,0,6,11.421,4.613,11.494,9.371.036,2.2-3.917,3.771-8.6,3.807a13.3,13.3,0,0,1-10.067-4.246l-5.419-4.686c3.113-.367,5.528-2.2,5.528-4.357,0-1.794-1.648-4.5-8.969-4.5-2.489,0-8.969.037-11.129,0v1.1c2.051.037,3.552.037,3.552,1.83V167.7c1.939-.036,3.88,0,3.807,0l.036-8.419h3.551l4.979,4.247c2.342,1.976,4.65,5.088,13.4,5.308,5.529.074,13.032-1.429,12.923-5.967m-26.211-8.347c0,1.831-1.867,3.625-6.663,3.625a18.485,18.485,0,0,1-2.049-.11v-6.919a19.878,19.878,0,0,1,2.342-.146c4.612-.037,6.37,1.318,6.37,3.55" transform="translate(-871.038 -146.069)"/>
  <path id="Path_2852" data-name="Path 2852" d="M1063.615,153.7a1.9,1.9,0,1,1,1.9-1.9,1.939,1.939,0,0,1-1.9,1.9m0,.439a2.343,2.343,0,1,0-2.344-2.342,2.291,2.291,0,0,0,2.344,2.342m.548-2.123c.439-.036.7-.219.7-.7a.755.755,0,0,0-.293-.659,1.472,1.472,0,0,0-.7-.11h-1.208v2.527h.512v-1.062h.512l.55,1.062h.586Zm-1.025-.367v-.732h.622c.257,0,.622,0,.622.329s-.183.4-.476.367h-.768Z" transform="translate(-846.32 -146.089)"/>
</svg>
