<svg id="UI-GUIDE" xmlns="http://www.w3.org/2000/svg" width="244.548" height="43.315" viewBox="0 0 244.548 43.315">
  <g id="logo_dreamcruise_en_162x30" data-name="logo dreamcruise en 162x30">
    <g id="编组" transform="translate(8.351)">
      <path id="Fill-1" d="M77.777,268.135h0a1.042,1.042,0,0,1,.521.26,5.194,5.194,0,0,1,1.562.522,1.847,1.847,0,0,0,1.216-.088c.347-.087.954-.434,1.041.088a.808.808,0,0,1,0,.521.308.308,0,0,0,.174.26h.435c.174,0,.26,0,.347.26v.434c0,.087.087.087.174,0a.293.293,0,0,1,.434.26,1.161,1.161,0,0,0,.087.434c.26.348.607.262.781.435.087.087.174.087.174,0a20.055,20.055,0,0,0-6.25-11.286c-5.9-5.3-11.286-6.511-20.141-6.511-1.562,0-12.414.087-12.414.087V265.7a16.462,16.462,0,0,1,5.209-2.778V256.5s3.907-.174,7.292-.174c3.647,0,8.769.607,12.067,2.951A19.385,19.385,0,0,1,77,266.92a2.133,2.133,0,0,1,.782,1.215" transform="translate(-45.916 -253.724)" fill="#02979f" fill-rule="evenodd"/>
    </g>
    <path id="Fill-3" d="M79.866,274.413c-.26-.521-2.084-2.518-.435-3.732h0c.522-.26,1.043-.348,1.476-.609.087-.087.174-.087.174-.174a.409.409,0,0,0,.087-.521c-.087-.174-.26-.26-.347-.347s-.087-.087-.087-.174c-.087-.174,0-.26,0-.26.087-.173-.174-.347-.26-.26-.087,0-.174,0-.174-.087s.087-.087.087-.262-.087-.26-.174-.26a.522.522,0,0,1-.347-.087c-.174-.087-.087-.174-.087-.174.174-.26.174-.347.174-.347.087-.434-.434-.26-.7-.347a1.242,1.242,0,0,1-.868-.26,3.433,3.433,0,0,0-1.128-.781,2.2,2.2,0,0,0-1.476-.262s.868,2.692.521,8.074c-.521,7.639-5.729,16.755-16.148,17.015a22.132,22.132,0,0,1-8.247-1.39c-.174-.087.087.175.347.348a19.642,19.642,0,0,0,18.925.781,20.972,20.972,0,0,0,8.942-9.029,3.179,3.179,0,0,0,2.257-3.212,27.971,27.971,0,0,0-2.518-3.647" transform="translate(-35.193 -249.046)" fill="#02979f" fill-rule="evenodd"/>
    <path id="Fill-5" d="M68.388,287.188c.174,0,0,.087-.26.26-9.289,4.688-15.28-4.688-18.144-5.469-.174,0-.174-.088-.087-.088,5.642-1.388,9.116,7.727,18.492,5.3m12.067-21.7h.174l.087-.175s-.347-.434-1.476-.087a3.663,3.663,0,0,0-1.562,1.216h0a8.3,8.3,0,0,0-1.129,1.823C74.377,272.6,70.558,281.8,61.876,281.8c-5.209,0-9.289-3.559-9.289-10.244,0-6.164,3.82-9.116,7.119-9.376A10.472,10.472,0,0,1,67,264.442c.087.087.087-.087-.087-.347-.607-1.129-2.691-3.907-7.9-3.907-4.341,0-13.2,2.953-12.154,13.2a9.84,9.84,0,0,0,2.691,5.989c.087.087,0,.174-.087.087-3.213-1.735-8.335-.954-9.376,3.56-.869,3.734,2.6,5.729,3.906,6.338.262.087.087-.087-.26-.435a3.626,3.626,0,0,1-1.215-2.344,3.223,3.223,0,0,1,2.084-3.212c2.17-.868,3.732.521,7.032,3.56,5.382,4.948,14.758,5.556,20.661.434,5.991-5.208,4.167-10.852,6.164-15.106,0,0-1.128-.174-2.6,4.081-1.216,3.56-3.385,9.029-9.2,9.029a9.419,9.419,0,0,1-4.775-1.3,14.025,14.025,0,0,0,6.772-1.909c8.6-5.123,7.726-17.19,11.72-16.581h.087a.319.319,0,0,1,.26.087,1.075,1.075,0,0,0-.26-.174" transform="translate(-39.949 -251.142)" fill="#02979f" fill-rule="evenodd"/>
    <g id="编组-3" transform="translate(64.259 12.748)">
      <path id="Fill-7" d="M90.1,264.859H88.374v12.705h1.643c3.976,0,6.308-2.508,6.308-6.483,0-3.024-1.641-6.222-6.223-6.222m-.085,14.173H85.868V263.39h4.321c5.445,0,8.9,3.284,8.9,7.778-.087,4.667-3.458,7.865-9.075,7.865" transform="translate(-85.868 -262.612)" fill="#02979f" fill-rule="evenodd"/>
      <path id="Fill-9" d="M101.949,264.686h-1.469v5.964h1.469c2.421,0,3.284-1.3,3.284-3.026,0-1.556-.691-2.939-3.284-2.939Zm4.667,14.347-4.407-6.913h-1.73v6.913H97.973V263.39h4.149c3.8,0,5.532,1.641,5.532,4.321a4.036,4.036,0,0,1-3.112,4.148l4.84,7.26h-2.767Z" transform="translate(-81.033 -262.612)" fill="#02979f" fill-rule="evenodd"/>
      <path id="Fill-11" d="M108.287,279.058v-15.73h8.729v1.556h-6.223v5.1h5.964v1.556h-5.964v6.05H117.1v1.469Z" transform="translate(-76.914 -262.637)" fill="#02979f" fill-rule="evenodd"/>
      <path id="Fill-13" d="M120.539,273.637h5.532l-2.767-6.223Zm6.31,1.556h-7.088l-1.815,3.976h-1.815l7.606-16.335,7.519,16.42h-2.593Z" transform="translate(-73.781 -262.834)" fill="#02979f" fill-rule="evenodd"/>
      <path id="Fill-15" d="M137.2,279.354l-4.84-9.939-2.161,9.766h-1.9l3.63-16.162,5.7,11.668,5.877-11.668,3.284,16.162h-2.506l-1.988-9.853-5.013,10.026Z" transform="translate(-68.922 -262.76)" fill="#02979f" fill-rule="evenodd"/>
      <path id="Fill-17" d="M162.384,266.192a6.726,6.726,0,0,0-4.667-1.555c-3.63,0-6.223,2.678-6.223,6.741,0,3.976,2.506,6.655,6.223,6.655a7.135,7.135,0,0,0,5.013-1.73l.778.865a8.258,8.258,0,0,1-5.963,2.247c-5.014,0-8.557-3.371-8.557-8.125a8.577,8.577,0,0,1,14.261-6.05Z" transform="translate(-60.659 -262.735)" fill="#02979f" fill-rule="evenodd"/>
      <path id="Fill-19" d="M165.6,264.686h-1.469v5.964H165.6c2.421,0,3.284-1.3,3.284-3.026,0-1.556-.691-2.939-3.284-2.939Zm4.667,14.347-4.408-6.913h-1.641v6.913h-2.506V263.39h4.149c3.8,0,5.53,1.641,5.53,4.321a4.035,4.035,0,0,1-3.111,4.148l4.839,7.26h-2.852Z" transform="translate(-55.577 -262.612)" fill="#02979f" fill-rule="evenodd"/>
      <path id="Fill-21" d="M184.359,273.156c0,3.8-2.333,6.223-6.308,6.223s-6.4-2.334-6.4-6.138V263.39h2.506v9.852c0,2.593,1.124,4.668,4.061,4.668s4.236-2.334,4.236-5.014V263.39h1.9v9.766Z" transform="translate(-51.606 -262.612)" fill="#02979f" fill-rule="evenodd"/>
      <path id="Fill-23" d="M184.069,279.058h2.593v-15.73h-2.593Z" transform="translate(-46.648 -262.637)" fill="#02979f" fill-rule="evenodd"/>
      <path id="Fill-25" d="M189,267.55c0-2.506,2.074-4.407,4.927-4.407a5.563,5.563,0,0,1,4.235,1.9l-.691.952a4.975,4.975,0,0,0-3.458-1.383,2.481,2.481,0,0,0-2.765,2.506c0,3.715,7.951,2.074,7.951,7.519,0,3.026-2.334,4.841-5.7,4.841a6.881,6.881,0,0,1-5.1-2.161l.778-.952a5.941,5.941,0,0,0,4.148,1.556c2.247,0,3.458-1.124,3.458-2.852.085-3.89-7.779-2.247-7.779-7.52" transform="translate(-44.921 -262.711)" fill="#02979f" fill-rule="evenodd"/>
      <path id="Fill-26" d="M198.706,279.058v-15.73h8.729v1.556h-6.223v5.1h5.964v1.556h-5.964v6.05h6.309v1.469Z" transform="translate(-40.802 -262.637)" fill="#02979f" fill-rule="evenodd"/>
      <path id="Fill-27" d="M207.587,267.55c0-2.506,2.075-4.407,4.927-4.407a5.56,5.56,0,0,1,4.235,1.9l-.691.952a4.975,4.975,0,0,0-3.458-1.383,2.481,2.481,0,0,0-2.765,2.506c0,3.715,7.951,2.074,7.951,7.519,0,3.026-2.333,4.841-5.7,4.841a6.881,6.881,0,0,1-5.1-2.161l.778-.952a5.941,5.941,0,0,0,4.148,1.556c2.247,0,3.458-1.124,3.458-2.852.172-3.89-7.779-2.247-7.779-7.52" transform="translate(-37.496 -262.711)" fill="#02979f" fill-rule="evenodd"/>
    </g>
  </g>
</svg>
