<svg id="Group_2760" data-name="Group 2760" xmlns="http://www.w3.org/2000/svg" xmlns:xlink="http://www.w3.org/1999/xlink" width="266.378" height="31.299" viewBox="0 0 266.378 31.299">
  <defs>
    <clipPath id="clip-path">
      <rect id="Rectangle_341" data-name="Rectangle 341" width="266.378" height="31.299" fill="none"/>
    </clipPath>
  </defs>
  <g id="Group_2759" data-name="Group 2759" transform="translate(0)">
    <g id="Group_2758" data-name="Group 2758" clip-path="url(#clip-path)">
      <path id="Path_2915" data-name="Path 2915" d="M303.2,263.575c-7.4-1-11.437-7.263-19.334-2.092-4.807,3.156-6.611,5.8-16.124-.05-4.757-2.928-7.59-3.209-10.294-3.384a15.334,15.334,0,0,0-16.218,14.758,14.753,14.753,0,0,0,4.584,11.739.619.619,0,0,0,1.015-.139l.088-.213,4.88-11.742s2.646-6.9,9.172-4.745c2.1.687,3.833,1.364,5.393,1.839,3.727,1.142,6.454,1.164,10.756-2.254,1.961-1.556,5.195-3.731,9.39-1.8,5.866,2.7,15.661,9.382,22.646-3.286a9.881,9.881,0,0,1-5.954,1.364Zm-36.012,6.958c8.164,5.018,9.454,4.8,16.237.347,8.739-5.728,13.515,1.882,19.537,2.694a9.818,9.818,0,0,0,5.946-1.37c-6.478,11.762-15.529,6.124-22.845,2.687-6.909-3.235-11.528,6.192-18.837,4.969-.22-.049-.348.164-.187.263,8.637,5.306,12.219,2.656,15.939.217,8.991-5.89,14.089,2.04,19.887,2.823a9.814,9.814,0,0,0,5.949-1.369c-7.408,13.445-16.872,5.133-20.816,3.315-3.114-1.432-4.794-3.23-11.783.151-6.1,2.964-14.186,5.418-21.6,3.192a.243.243,0,0,1-.06-.025c.855-2.365,2.182-5.472,4.474-5.438.669,0,4.328.245,4.709.188a.939.939,0,0,0,.8-.714c.178-.793-.144-.977-.179-1.233s.221-.337.43-.508c.347-.279.378-.486.3-.718-.066-.2-.533-.267-.689-.354s-.111-.354.136-.386c1.251-.165,1.184-.828,1.041-1.062-.511-.926.284-1.09.579-1.161.4-.094,1.114-.367.905-1.065-.25-.84-.494-1.46-.668-2.18a5.467,5.467,0,0,1-.294-2.846c.361-.877.735-.631,1.079-.416" transform="translate(-241.214 -258.017)" fill="#2d3682"/>
      <path id="Path_2916" data-name="Path 2916" d="M430.254,260.909a.731.731,0,0,0,.332.073.342.342,0,0,0,.213-.048.458.458,0,0,0,.214-.4.516.516,0,0,0-.543-.523c-.024,0-.168,0-.214.048v.852Zm-.521-.238v-.593c0-.141-.094-.165-.284-.167-.024,0-.048-.024-.048-.071,0-.07.048-.1.118-.094h.1c.048,0,.237.024.4.025.214,0,.309-.022.547-.021.4,0,1.041.074,1.038.642,0,.238-.094.427-.5.709l.423.5c.306.357.357.357.4.357a.063.063,0,0,1,.07.071c0,.071-.024.1-.213.1a.922.922,0,0,1-.922-.453l-.33-.452h-.284v.214c0,.425.021.473.043.5a.733.733,0,0,0,.236.024c.05,0,.073,0,.073.071a.088.088,0,0,1-.1.1h-.1c-.049,0-.26-.025-.379-.025-.071,0-.308.022-.355.022h-.119c-.046,0-.165-.024-.165-.1a.063.063,0,0,1,.071-.07c.213,0,.236,0,.262-.141a5.759,5.759,0,0,0,0-.617v-.521Zm2.628.34A1.732,1.732,0,0,0,428.9,261a1.639,1.639,0,0,0,1.751,1.69,1.623,1.623,0,0,0,1.71-1.678Zm-3.911.01a2.184,2.184,0,1,1,2.175,2.07,2.069,2.069,0,0,1-2.175-2.07Z" transform="translate(-166.434 -257.647)" fill="#2d3682"/>
    </g>
  </g>
  <path id="Path_2917" data-name="Path 2917" d="M307.353,258.5c-.834,0-1.777.025-2.694.05-.854.025-1.685.048-2.375.045-.406,0-1.029-.021-1.749-.048-1.006-.035-2.2-.078-3.28-.083-.879,0-1.328.3-1.329.89,0,.269.109.9,1.15.9a6.5,6.5,0,0,1,1.237.1c.759.178,1,.423,1.065,1.626.063,1.178.06,2.2.039,7.893l-.022,6.577c-.011,3.412-.021,6.36-.195,7.888-.122.925-.26,1.513-.595,1.581a4.846,4.846,0,0,1-1.129.132c-1.036,0-1.12.652-1.121.852,0,.217.09.931,1.252.936.8,0,1.864-.032,2.779-.06.683-.021,1.282-.039,1.623-.038s.883.018,1.542.041c1.066.038,2.449.085,3.874.09.9,0,1.223-.5,1.226-.926,0-.143-.052-.856-1.115-.859a13.847,13.847,0,0,1-1.7-.15c-.514-.077-.763-.315-.882-1.53-.164-1.578-.154-4.526-.141-7.94l.05-14.95a1.1,1.1,0,0,1,.017-.214,4.807,4.807,0,0,1,1.069-.083,4.433,4.433,0,0,1,3.107,1.311,6.878,6.878,0,0,1,1.868,5.213c-.011,3.423-2.46,5.6-4.142,5.593-.42,0-1.537-.006-1.541.963,0,.318.143.729.856.886a4.6,4.6,0,0,0,.851.053c5.3.018,9.166-4.008,9.184-9.572a7.22,7.22,0,0,0-1.891-4.845c-.564-.57-2.27-2.306-6.885-2.322Z" transform="translate(-219.363 -257.839)" fill="#2d3682"/>
  <path id="Path_2918" data-name="Path 2918" d="M371.542,258.895c-1.24,0-2.289.045-2.964.077-.3.014-.529.024-.654.024-.3,0-.743-.018-1.287-.041-.875-.036-2-.084-3.179-.088-.456,0-1.52-.006-1.523.89,0,.269.109.894,1.146.9a5.775,5.775,0,0,1,1.739.183c.528.225.876.547.9,2.869l.292,15.56c-.476-.507-1.115-1.188-1.808-1.928-1.8-1.927-4.047-4.324-5.5-5.8-5.056-5.119-10.521-11.062-11.391-12.026l-.339-.375c-.479-.537-.858-.964-1.432-.966-1.036,0-1.04,1.373-1.041,1.816l-.41,22.123c-.045,3.093-.2,3.938-.754,4.107a5.957,5.957,0,0,1-1.509.158c-1.036,0-1.15.595-1.15.852,0,.931,1.029.935,1.366.936,1.367.006,2.638-.048,3.385-.077.3-.015.511-.022.6-.022.239,0,.572.014,1,.034.823.036,2,.09,3.571.094.933,0,1.408-.309,1.409-.924,0-.322-.152-.859-1.18-.862a5.347,5.347,0,0,1-1.732-.232c-.567-.206-.863-1.4-.912-3.645l-.32-14.319c1.581,1.772,4.74,5.3,7.881,8.473,1.556,1.572,3.262,3.319,4.889,4.987,2.364,2.419,4.591,4.706,5.964,6.037a2.59,2.59,0,0,0,1.647.994c1.037,0,1.043-1.287,1.044-1.7l.486-23.581c.046-2.224.4-2.487.952-2.646a3.662,3.662,0,0,1,.975-.088c1.132,0,1.223-.682,1.223-.89,0-.9-1.054-.9-1.4-.9Z" transform="translate(-201.486 -257.955)" fill="#2d3682"/>
  <path id="Path_2919" data-name="Path 2919" d="M389.937,280.217c-.8,0-.935.691-1.029,1.184a5.7,5.7,0,0,1-1.132,2.217c-1.374,1.594-3.277,1.889-6.314,1.879-4.446-.015-11.012-4.089-10.981-12.786.015-4.286,1.043-7.231,3.235-9.26,1.629-1.5,3.648-2.156,6.542-2.147,3.5.013,6.064,1.094,7.053,2.165a4.858,4.858,0,0,1,1.272,3.062c0,.915.306,1.381.917,1.384.911,0,.975-.966,1-1.359s.05-1.135.062-1.938c.014-.736.022-1.524.062-2.123.045-.771.106-1.236.141-1.548a4.04,4.04,0,0,0,.05-.537,1.009,1.009,0,0,0-1.047-1c-.556-.062-1.129-.178-1.742-.3s-1.231-.253-1.916-.347a36.706,36.706,0,0,0-5.4-.4c-5.174-.018-8.99,1.276-12.011,4.071a14.693,14.693,0,0,0-4.516,10.631c-.017,4.78,1.567,8.638,4.706,11.455h0c3.2,2.849,7.443,4.244,12.964,4.261a21.559,21.559,0,0,0,6.837-.88,1.834,1.834,0,0,0,1.276-1.439,35.2,35.2,0,0,0,.851-5.123c0-1.064-.736-1.119-.883-1.121Z" transform="translate(-192.102 -257.88)" fill="#2d3682"/>
  <path id="Path_2920" data-name="Path 2920" d="M402.324,281.466c-.751,0-.873.717-.928,1.03-.249,1.569-.642,2.052-1.236,2.351a7.556,7.556,0,0,1-2.929.376c-3.319-.013-3.445-.466-3.494-2.61-.02-.77,0-2.718.008-4.235l.027-4.31c1.234.011,3.868.06,4.38.12,1.071.133,1.311.575,1.412,1.026a6.645,6.645,0,0,1,.1.926l.018.3a.832.832,0,0,0,.861.9c.568,0,.862-.424.865-1.262,0-.139.029-.623.066-1.159.029-.47.059-.973.076-1.306.094-1.247.182-1.928.235-2.308.032-.231.046-.368.049-.459a.792.792,0,0,0-.792-.861c-.428,0-.676.309-.975.691-.157.192-.5.285-1.247.353-.46.043-2.291.063-5.039.053l.034-9.123c1.129.017,3.941.094,4.408.158,1.541.207,1.664.568,1.814,1a3.818,3.818,0,0,1,.162,1.149c0,.973.6,1.083.861,1.085.22,0,.747-.085.891-.884.046-.3.094-1.113.133-1.755.02-.332.035-.614.048-.761a16.5,16.5,0,0,1,.227-2.017,2.889,2.889,0,0,0,.056-.445c0-.866-.683-.894-.758-.894a1.43,1.43,0,0,0-.519.115,1.229,1.229,0,0,1-.168.052c-.262.07-.91.15-1.338.2-.395.02-3.547.022-8.431,0-.428,0-1.115-.031-1.9-.07l-.231-.01c-.411,0-.854-.011-1.306-.024-.476-.011-.966-.022-1.434-.025-.862,0-1.3.3-1.3.891,0,.269.109.894,1.129.9a5.8,5.8,0,0,1,1.191.1c.729.172.963.42,1.022,1.62.06,1.182.056,2.207.038,7.9l-.022,6.576c-.013,3.413-.022,6.36-.192,7.893-.113.9-.249,1.513-.567,1.581a4.655,4.655,0,0,1-1.086.129c-1.02,0-1.1.654-1.1.854,0,.216.087.929,1.231.933.336,0,.719-.014,1.117-.031s.824-.036,1.245-.038c.8-.032,1.53-.031,1.9-.029h.006c1.008,0,2.049.046,3.507.125l1.03.032c1.286.041,2.853.091,4.835.1,1.306.006,2.028.007,2.372-1.394a31.8,31.8,0,0,0,.469-4.272c0-.334.006-1.23-.819-1.233Z" transform="translate(-183.778 -257.787)" fill="#2d3682"/>
  <path id="Path_2921" data-name="Path 2921" d="M411.144,270.32l-1.024-.786c-3.109-2.41-3.676-3.559-3.671-4.952.006-2,1.513-3.287,3.836-3.28a4.154,4.154,0,0,1,4.4,3.756c-.006,1.11.641,1.231.922,1.233.961,0,.967-1.173.968-1.675.007-2.05.081-3.174.127-3.844.022-.287.035-.491.035-.639,0-.354-.162-.816-.925-.989a18.25,18.25,0,0,0-5.041-.672c-5.34-.018-9.079,3.1-9.1,7.59-.011,3.366,1.674,6.15,5.635,9.31l1.69,1.353c2.823,2.261,3.385,3.8,3.378,5.553,0,1.49-1.178,3.7-4.391,3.69a4.524,4.524,0,0,1-4.723-3.389,7.334,7.334,0,0,1-.3-1.752c0-1.076-.644-1.2-.921-1.2-.6,0-.935.5-1.006,1.507-.125,1.9-.195,3.554-.2,4.916,0,.912.146,1.387,1.023,1.781a13.07,13.07,0,0,0,5.6,1.043,10.979,10.979,0,0,0,6.17-1.608,8.137,8.137,0,0,0,3.739-6.952c.014-3.79-1.675-6.5-6.23-10Z" transform="translate(-177.461 -257.836)" fill="#2d3682"/>
  <path id="Path_2922" data-name="Path 2922" d="M425.357,270.368l-1.026-.786c-3.109-2.408-3.676-3.557-3.671-4.952.008-2,1.514-3.287,3.836-3.279a4.152,4.152,0,0,1,4.4,3.755c0,1.11.642,1.233.922,1.233.964,0,.968-1.171.968-1.674.007-2.05.083-3.174.129-3.844.022-.287.035-.491.035-.639,0-.355-.164-.816-.924-.989a18.272,18.272,0,0,0-5.043-.673c-5.337-.018-9.079,3.1-9.093,7.592-.014,3.364,1.672,6.15,5.633,9.31l1.69,1.35c2.823,2.263,3.385,3.8,3.38,5.556-.006,1.49-1.18,3.7-4.393,3.69a4.524,4.524,0,0,1-4.723-3.385,7.606,7.606,0,0,1-.3-1.756c0-1.076-.641-1.2-.922-1.2-.6,0-.933.5-1,1.541-.132,1.9-.2,3.54-.2,4.884,0,.911.146,1.385,1.026,1.779a13.015,13.015,0,0,0,5.6,1.041,10.952,10.952,0,0,0,6.171-1.608,8.135,8.135,0,0,0,3.738-6.949c.013-3.791-1.675-6.5-6.23-10Z" transform="translate(-171.785 -257.817)" fill="#2d3682"/>
  <path id="Path_2923" data-name="Path 2923" d="M326.387,267.716c-.011,3.234-1.171,4.624-1.861,5.161-.49.376-.8.516-2.143.511a10.166,10.166,0,0,1-2.4-.281.909.909,0,0,1-.014-.217l.043-11.376a9.186,9.186,0,0,1,1.6-.094c1.78.006,4.784,1.338,4.768,6.3Zm23.282,18.51a13.416,13.416,0,0,1-1.706-.15c-.586-.087-.809-.3-.914-1.332-.133-1.584-.123-4.475-.111-8.136l.024-6.577c.02-5.689.022-6.711.1-7.9.076-1.36.374-1.516.84-1.608a5.19,5.19,0,0,1,.95-.1c1.008,0,1.119-.648,1.122-.929,0-.319-.167-.856-1.289-.861-.742,0-1.706.029-2.571.057-.686.024-1.306.042-1.692.041-.469,0-1.191-.027-1.963-.056-.9-.032-1.864-.07-2.58-.071-.344,0-1.4-.006-1.4.851,0,.281.108.935,1.115.938a4.2,4.2,0,0,1,1.127.134c.33.083.69.279.757,1.587.064,1.182.062,2.205.042,7.894l-.022,6.576c-.014,3.659-.024,6.548-.2,8.093-.118,1.182-.343,1.325-.593,1.377a4.858,4.858,0,0,1-.977.123l-.939,0a4.477,4.477,0,0,1-.823-.1,6.42,6.42,0,0,1-3.564-2.372c-1.762-1.993-3.77-4.72-6.31-8.175l-.9-1.229c3.1-2.781,4.436-5.326,4.447-8.434a7.174,7.174,0,0,0-2.586-5.578,11.1,11.1,0,0,0-6.752-1.741c-.535,0-1.444.022-2.375.048-.966.025-1.947.049-2.55.048-.278,0-.775-.018-1.383-.041-.988-.036-2.264-.084-3.406-.088-.877,0-1.325.3-1.328.89,0,.269.111.9,1.148.9a6.6,6.6,0,0,1,1.24.1c.77.179,1,.411,1.066,1.625.062,1.18.059,2.2.039,7.893l-.022,6.577c-.013,3.41-.022,6.357-.2,7.887-.123.928-.263,1.516-.6,1.584a4.839,4.839,0,0,1-1.128.132c-1.036,0-1.119.652-1.121.852,0,.217.09.931,1.254.933.833,0,1.952-.034,2.863-.063.613-.02,1.132-.034,1.4-.034.175,0,.578.014,1.115.032,1.076.036,2.671.094,4.022.1,1.163,0,1.258-.71,1.258-.926a.871.871,0,0,0-.974-.861,14.917,14.917,0,0,1-1.633-.148c-.516-.076-.768-.321-.882-1.572-.167-1.539-.155-4.5-.144-7.936v-.258l2.76.077c.154,0,.168.014.2.056.246.305.931,1.356,1.658,2.467.554.854,1.173,1.8,1.755,2.663,2.071,3.069,3.4,4.793,4.948,5.68a7.207,7.207,0,0,0,4.015.8l4.409.014c.8,0,1.864-.032,2.781-.059.682-.021,1.28-.041,1.623-.039.362,0,.918.018,1.592.042,1.071.036,2.442.085,3.855.09.9,0,1.223-.5,1.226-.926,0-.144-.052-.855-1.114-.859Z" transform="translate(-213.241 -257.818)" fill="#2d3682"/>
</svg>
