<svg id="Group_2762" data-name="Group 2762" xmlns="http://www.w3.org/2000/svg" width="271.991" height="47.996" viewBox="0 0 271.991 47.996">
  <g id="Group_2761" data-name="Group 2761">
    <path id="Path_2924" data-name="Path 2924" d="M477.085,281.932a.682.682,0,0,0,.571.2c.39-.031.543-.364.308-.5s-.273.125-.491.223A.572.572,0,0,1,477.085,281.932Z" transform="translate(-452.644 -239.841)" fill="#a39160"/>
    <path id="Path_2925" data-name="Path 2925" d="M481.53,281.932a.683.683,0,0,1-.571.2c-.39-.031-.543-.364-.309-.5s.274.125.493.223A.58.58,0,0,0,481.53,281.932Z" transform="translate(-451.265 -239.841)" fill="#a39160"/>
    <path id="Path_2926" data-name="Path 2926" d="M472.963,261.834Z" transform="translate(-454.291 -247.732)" fill="#a39160"/>
    <path id="Path_2927" data-name="Path 2927" d="M472.963,261.834Z" transform="translate(-454.291 -247.732)" fill="#a39160"/>
    <path id="Path_2928" data-name="Path 2928" d="M472.653,259.472a.493.493,0,1,1,.437.883" transform="translate(-454.414 -248.696)" fill="#a39160"/>
    <path id="Path_2929" data-name="Path 2929" d="M473.375,259.892a.491.491,0,0,0-.722-.418l.437.883A.491.491,0,0,0,473.375,259.892Z" transform="translate(-454.414 -248.698)" fill="#a39160"/>
    <path id="Path_2930" data-name="Path 2930" d="M485.93,259.484a.493.493,0,1,0-.581.8.5.5,0,0,0,.143.071" transform="translate(-449.424 -248.709)" fill="#a39160"/>
    <path id="Path_2931" data-name="Path 2931" d="M485.19,259.892a.5.5,0,0,1,.509-.476.5.5,0,0,1,.214.057l-.438.868A.5.5,0,0,1,485.19,259.892Z" transform="translate(-449.407 -248.698)" fill="#a39160"/>
    <path id="Path_2932" data-name="Path 2932" d="M471.309,258.466a.446.446,0,1,1-.449-.442h0A.446.446,0,0,1,471.309,258.466Z" transform="translate(-455.307 -249.254)" fill="#a39160"/>
    <path id="Path_2933" data-name="Path 2933" d="M471.208,257.165a.445.445,0,1,1-.445-.445h0a.442.442,0,0,1,.445.438Z" transform="translate(-455.347 -249.775)" fill="#a39160"/>
    <path id="Path_2934" data-name="Path 2934" d="M471.574,255.924a.445.445,0,1,1-.449-.441h.008A.448.448,0,0,1,471.574,255.924Z" transform="translate(-455.201 -250.269)" fill="#a39160"/>
    <path id="Path_2935" data-name="Path 2935" d="M472.393,254.928a.446.446,0,1,1-.446-.445h0A.446.446,0,0,1,472.393,254.928Z" transform="translate(-454.874 -250.668)" fill="#a39160"/>
    <path id="Path_2936" data-name="Path 2936" d="M473.543,254.255a.445.445,0,1,1-.445-.445h0A.443.443,0,0,1,473.543,254.255Z" transform="translate(-454.414 -250.937)" fill="#a39160"/>
    <circle id="Ellipse_25" data-name="Ellipse 25" cx="0.442" cy="0.442" r="0.442" transform="translate(20.016 2.4)" fill="#a39160"/>
    <circle id="Ellipse_26" data-name="Ellipse 26" cx="0.446" cy="0.446" r="0.446" transform="translate(21.826 2.341)" fill="#a39160"/>
    <circle id="Ellipse_27" data-name="Ellipse 27" cx="0.442" cy="0.442" r="0.442" transform="translate(23.636 2.634)" fill="#a39160"/>
    <path id="Path_2937" data-name="Path 2937" d="M478.345,254.72h-.539l.946,2.771h.332Z" transform="translate(-452.356 -250.573)" fill="#a39160"/>
    <path id="Path_2938" data-name="Path 2938" d="M475.444,254.451c-2.182.27-4.379,1.954-4.132,4.26a8.4,8.4,0,0,0,1.454,3.862l.427.731.48-.274-.43-.735a7.907,7.907,0,0,1-1.38-3.643c-.2-1.891,1.72-3.416,3.651-3.654a10.556,10.556,0,0,1,4.955.781l-.242-.707A9.711,9.711,0,0,0,475.444,254.451Z" transform="translate(-454.958 -250.71)" fill="#a39160"/>
    <path id="Path_2939" data-name="Path 2939" d="M475.289,255.1c-1.752.214-3.518,1.563-3.322,3.248a6.977,6.977,0,0,0,.2,1.1l.344-.136a7.189,7.189,0,0,1-.181-1c-.155-1.467,1.427-2.655,3-2.845a9.821,9.821,0,0,1,4.906.879l.293.161-.176-.516A8.987,8.987,0,0,0,475.289,255.1Z" transform="translate(-454.694 -250.448)" fill="#a39160"/>
    <path id="Path_2940" data-name="Path 2940" d="M487.307,258.466a.438.438,0,1,0,0-.008Z" transform="translate(-448.562 -249.254)" fill="#a39160"/>
    <circle id="Ellipse_28" data-name="Ellipse 28" cx="0.442" cy="0.442" r="0.442" transform="translate(38.887 6.949)" fill="#a39160"/>
    <path id="Path_2941" data-name="Path 2941" d="M487.042,255.924a.446.446,0,1,0,.449-.441h-.02A.445.445,0,0,0,487.042,255.924Z" transform="translate(-448.668 -250.269)" fill="#a39160"/>
    <circle id="Ellipse_29" data-name="Ellipse 29" cx="0.446" cy="0.446" r="0.446" transform="translate(37.225 3.811)" fill="#a39160"/>
    <circle id="Ellipse_30" data-name="Ellipse 30" cx="0.442" cy="0.442" r="0.442" transform="translate(35.619 2.877)" fill="#a39160"/>
    <circle id="Ellipse_31" data-name="Ellipse 31" cx="0.446" cy="0.446" r="0.446" transform="translate(33.841 2.396)" fill="#a39160"/>
    <circle id="Ellipse_32" data-name="Ellipse 32" cx="0.442" cy="0.442" r="0.442" transform="translate(32.027 2.345)" fill="#a39160"/>
    <circle id="Ellipse_33" data-name="Ellipse 33" cx="0.446" cy="0.446" r="0.446" transform="translate(30.221 2.63)" fill="#a39160"/>
    <path id="Path_2942" data-name="Path 2942" d="M480.375,254.72h.539l-.942,2.771h-.332Z" transform="translate(-451.624 -250.573)" fill="#a39160"/>
    <path id="Path_2943" data-name="Path 2943" d="M485.537,254.45c2.18.27,4.382,1.954,4.131,4.26a8.387,8.387,0,0,1-1.454,3.862l-.425.73-.481-.274.43-.735a7.922,7.922,0,0,0,1.38-3.643c.207-1.891-1.72-3.416-3.647-3.654a10.556,10.556,0,0,0-4.955.781l.242-.707A9.73,9.73,0,0,1,485.537,254.45Z" transform="translate(-451.274 -250.71)" fill="#a39160"/>
    <path id="Path_2944" data-name="Path 2944" d="M485.517,255.1c1.751.214,3.518,1.563,3.326,3.248a7.162,7.162,0,0,1-.2,1.1l-.343-.136a6.622,6.622,0,0,0,.175-1c.161-1.467-1.426-2.655-3-2.845a9.816,9.816,0,0,0-4.9.879l-.3.161.176-.516A8.986,8.986,0,0,1,485.517,255.1Z" transform="translate(-451.371 -250.448)" fill="#a39160"/>
    <path id="Path_2945" data-name="Path 2945" d="M478.961,256.915h.774l.2-.75h-1.176l.2.75h.774" transform="translate(-451.976 -249.997)" fill="#a39160"/>
    <path id="Path_2946" data-name="Path 2946" d="M480.064,256.136l.141-.535H478.61l.145.535Z" transform="translate(-452.035 -250.222)" fill="#a39160"/>
    <path id="Path_2947" data-name="Path 2947" d="M480.981,251.765l-.442.9,1.02-.5v3.126l-1.36-.617.633,1.219-.253.977h-1.728l-.253-.977.613-1.234-1.356.624v-3.126l1.02.5-.442-.9Zm.21,1.171-.39.188v1.2l.39.188Zm-1.481,1.471a.659.659,0,0,0,0-1.318h0a.659.659,0,0,0,0,1.318Zm-1.493.1.39-.188v-1.2l-.39-.188Zm1.489-1.208a.442.442,0,1,0,.442.446.447.447,0,0,0-.438-.451Z" transform="translate(-452.338 -251.757)" fill="#a39160"/>
    <path id="Path_2948" data-name="Path 2948" d="M472.963,261.834Z" transform="translate(-454.291 -247.732)" fill="#a39160"/>
    <path id="Path_2949" data-name="Path 2949" d="M482.531,262.259l1.173.907,1.392-.508-1.173-.91Zm1.227.536-.55-.434.661-.238.554.43Z" transform="translate(-450.469 -247.767)" fill="#a39160"/>
    <path id="Path_2950" data-name="Path 2950" d="M475.935,263.7l-1.271.164a.316.316,0,0,0-.277.351h0a.32.32,0,0,0,.355.279l1.266-.161a.324.324,0,0,0,.281-.36A.32.32,0,0,0,475.935,263.7Z" transform="translate(-453.722 -246.988)" fill="#a39160"/>
    <path id="Path_2951" data-name="Path 2951" d="M482.35,261.724l-1.474-.113a.183.183,0,0,0-.195.168l-.055.691a.184.184,0,0,0,.171.2h0l1.471.109a.184.184,0,0,0,.195-.168l.052-.691A.185.185,0,0,0,482.35,261.724Zm-.2.719-1.173-.091c0-.113.024-.277.031-.39l1.173.085c-.007.1-.02.263-.031.379Z" transform="translate(-451.23 -247.822)" fill="#a39160"/>
    <path id="Path_2952" data-name="Path 2952" d="M484.248,263.866l-1.269-.164a.32.32,0,1,0-.14.625.3.3,0,0,0,.062.007l1.266.161a.316.316,0,0,0,.354-.273v-.006a.312.312,0,0,0-.269-.35Z" transform="translate(-450.447 -246.989)" fill="#a39160"/>
    <path id="Path_2953" data-name="Path 2953" d="M490.286,262.283h0l.27-.539a.782.782,0,1,1,.455-1.5.755.755,0,0,1,.232.116l.556-1.125-1.376-.567v1.118l-.782-1.044-.309.879a.986.986,0,0,0,.024-.231,1.071,1.071,0,0,0-1.618-.918h0l.137-.312-1.138-1.634-1.443,1.36.074.333h0a1.038,1.038,0,0,0-.5-.263,1.067,1.067,0,0,0-1.223.712v-.2l.063-.554-.911.343.458-.883h-.3v-.332H481v.332h-.3l.458.9-.907-.343.059.554.022.2a1.07,1.07,0,0,0-1.735-.438h0l.074-.333-1.441-1.371-1.138,1.634.14.312h0a1.072,1.072,0,0,0-1.618.918,1.155,1.155,0,0,0,.024.231l-.305-.879-.782,1.044v-1.138l-1.378.567.558,1.125a.782.782,0,1,1,.689,1.38l.269.539h0s-1.173.348-1.094,1.013a.649.649,0,0,0,.639.658h.056l.32,2.4A1.435,1.435,0,0,0,475,268.7l.165-.036c.34-.07.421-.085.82-.151a37.4,37.4,0,0,1,6-.462,35.093,35.093,0,0,1,6.961.63,1.43,1.43,0,0,0,1.7-1.1l0-.011a1.417,1.417,0,0,0-.3-1.208l.332-2.411a.653.653,0,0,0,.694-.609c0-.015,0-.032,0-.048C491.459,262.631,490.286,262.283,490.286,262.283Zm.989-2.83-.255.512a1.529,1.529,0,0,0-.16,0h-.091v-.73Zm-18.086.505h-.1a1.026,1.026,0,0,0-.161,0l-.231-.505.509-.2Zm16.58-.274.36.54a1.11,1.11,0,0,0-.39.84.565.565,0,0,0,0,.1c-.183,0-.563.031-.563.031Zm-1.415-.781a.592.592,0,0,1,.516.662.549.549,0,0,1-.02.1.606.606,0,0,0-1.129-.113.6.6,0,0,1,.551-.655.582.582,0,0,1,.085,0Zm-.726,1.171a.332.332,0,0,1,.035-.1.55.55,0,0,1,.164-.207.5.5,0,0,1,.32-.113.518.518,0,0,1,.523.515v0a.509.509,0,0,1-.055.235,1.07,1.07,0,0,0,.625-.547l-.633,1.809,1.1-.094h0a1.665,1.665,0,0,1-1.044.364,1.513,1.513,0,0,1-1.5-1.055h0a.435.435,0,0,0,.434-.392.468.468,0,0,0-.046-.257h0a.345.345,0,0,0,.081-.161Zm1.751,2.842a.164.164,0,0,1-.183.133l-.693-.118a.161.161,0,0,1-.133-.183h0a.16.16,0,0,1,.185-.133h0l.691.118a.156.156,0,0,1,.139.172v.011Zm-1.524-.246a.166.166,0,0,1-.181.141l-.7-.078a.161.161,0,0,1-.14-.176.156.156,0,0,1,.169-.141h.006l.7.076a.162.162,0,0,1,.148.178h-.007Zm-1.166-5.561.782,1.125-.7,1.646-.207-.032.274-1.149-.259-.574-.367.515.039,1.173h-.2l-.364-1.755Zm-1.047,3.013,1.45.148a.157.157,0,0,1,.141.172.159.159,0,0,1-.172.141h0l-1.467-.146a.159.159,0,0,1-.144-.174v0a.161.161,0,0,1,.179-.139l.013,0Zm0,1.6.488-.6.273.028.344.676Zm.684.782a.161.161,0,0,1-.172.148h0l-.7-.05a.161.161,0,0,1-.148-.168.165.165,0,0,1,.172-.15l.7.052a.159.159,0,0,1,.155.164h0Zm-1.654-3.978a.6.6,0,0,1,.509.681.4.4,0,0,1-.017.08.61.61,0,0,0-1.129-.118.594.594,0,0,1,.535-.648.584.584,0,0,1,.111,0Zm-1.954.312.532-.164c-.067.6-.111,1.04-.165,1.563l-.39-.176a.937.937,0,0,0,0-1.215Zm.676,2.071.172-1.563.024-.222.022.179a1.086,1.086,0,0,0,.505.66.473.473,0,0,1,0-.242.52.52,0,0,1,.607-.413.512.512,0,0,1,.3.179.552.552,0,0,1,.122.234.453.453,0,0,1,0,.106.3.3,0,0,0,.059.155h0a.444.444,0,0,0-.109.259.438.438,0,0,0,.343.484h0a1.512,1.512,0,0,1-1.681.73,1.613,1.613,0,0,1-1.125-.933ZM484.8,262.4a.159.159,0,0,1-.167.153h0l-.7-.035a.163.163,0,0,1-.153-.168.16.16,0,0,1,.167-.153h0l.7.035a.162.162,0,0,1,.165.157v.011Zm-3.372-.809.39-.645h.32l.392.645Zm.292.732a.159.159,0,0,1-.159.16h-.7a.161.161,0,0,1-.161-.157.157.157,0,0,1,.148-.164h.712a.16.16,0,0,1,.153.161Zm.693-.157h.7a.156.156,0,0,1,.155.155v.008a.16.16,0,0,1-.16.157h-.7a.161.161,0,0,1-.133-.183.157.157,0,0,1,.133-.133Zm.125-4.323-.41.667h-.281l-.414-.667Zm-.554.931h0a.66.66,0,0,1,0,1.317h0a.66.66,0,0,1,0-1.317Zm-.732.062a.944.944,0,0,0,.02,1.22l-.39.175c-.059-.528-.1-.966-.168-1.563Zm-1.954-.312a.59.59,0,0,1,.638.539.54.54,0,0,1,0,.106.682.682,0,0,0-.6-.333.674.674,0,0,0-.523.449.6.6,0,0,1,.4-.745.609.609,0,0,1,.073-.017Zm-.782,2.2a.438.438,0,0,0,.344-.484.492.492,0,0,0-.109-.259h0a.346.346,0,0,0,.059-.155.447.447,0,0,1,0-.106.565.565,0,0,1,.12-.234.524.524,0,0,1,.911.234.507.507,0,0,1,0,.242,1.062,1.062,0,0,0,.5-.66l.024-.179.024.222.176,1.563.742-.39a1.611,1.611,0,0,1-1.121.935,1.51,1.51,0,0,1-1.681-.732Zm1.674,1.622a.16.16,0,0,1-.15.168l-.7.035a.16.16,0,0,1,0-.316l.7-.035a.156.156,0,0,1,.141.148Zm-2.4,0,.7-.05a.164.164,0,0,1,.172.148.16.16,0,0,1-.148.168l-.7.05a.16.16,0,0,1-.172-.147h0a.162.162,0,0,1,.139-.186h.006Zm-.571-.5.344-.676.273-.028.493.6Zm1.286-1.563a.159.159,0,0,1-.143.175h0l-1.451.148a.159.159,0,0,1-.175-.14.16.16,0,0,1,.144-.172l1.45-.148a.154.154,0,0,1,.168.12Zm-1.38,2.294a.159.159,0,0,1-.14.176l-.7.078a.161.161,0,0,1-.035-.318l.7-.074a.154.154,0,0,1,.169.122Zm.148-5.463,1,.929-.364,1.755h-.19l.039-1.173-.368-.5-.258.574.258,1.146-.211.031-.691-1.642Zm-1.668,1.781a.605.605,0,0,1,.637.572.675.675,0,0,1,0,.077.684.684,0,0,0-.6-.333.693.693,0,0,0-.528.446.593.593,0,0,1,.395-.742A.579.579,0,0,1,475.6,258.891Zm-.266,1.521a.594.594,0,0,1-.052-.235.521.521,0,0,1,.521-.521h.02a.5.5,0,0,1,.32.113.54.54,0,0,1,.164.207.52.52,0,0,1,.039.1.352.352,0,0,0,.087.146h0a.462.462,0,0,0-.056.273.434.434,0,0,0,.434.39h0a1.51,1.51,0,0,1-1.5,1.055,1.667,1.667,0,0,1-1.048-.362h0l1.094.094-.633-1.809a1.086,1.086,0,0,0,.61.55Zm.249,2.344a.16.16,0,0,1-.132.185h0l-.691.116a.159.159,0,0,1-.183-.132h0a.157.157,0,0,1,.125-.183h.008l.691-.118a.164.164,0,0,1,.183.122Zm-1.758-2.536.362-.54.579,1.509a4.622,4.622,0,0,1-.56-.031v-.1a1.111,1.111,0,0,0-.382-.852Zm-.333,3.126a.16.16,0,1,1-.07-.312h0l.434-.1a.16.16,0,0,1,.192.122.158.158,0,0,1-.113.19h0Zm16.6,4.135a.872.872,0,0,1-1.033.673h0l-.3-.059a36.526,36.526,0,0,0-6.774-.579,40.34,40.34,0,0,0-5.326.34c-.63.087-1.227.188-1.779.305a.867.867,0,0,1-1.034-.661v-.007a.872.872,0,0,1,.667-1.037h0a41.183,41.183,0,0,1,14.9-.007.874.874,0,0,1,.672,1.031ZM489.852,266a1.6,1.6,0,0,0-.309-.1,41.843,41.843,0,0,0-15.141,0,1.789,1.789,0,0,0-.281.094l-.266-2.119c.094-.031.262-.066.446-.109a44.53,44.53,0,0,1,15.371-.015l.458.1Zm.824-2.8a.16.16,0,0,1-.192.118l-.437-.1a.155.155,0,0,1-.119-.186v-.006a.16.16,0,0,1,.192-.12h0l.437.1a.161.161,0,0,1,.119.195Z" transform="translate(-454.608 -249.851)" fill="#a39160"/>
    <path id="Path_2954" data-name="Path 2954" d="M475.9,257.667Z" transform="translate(-453.119 -249.397)" fill="#a39160"/>
    <path id="Path_2955" data-name="Path 2955" d="M482.464,257.667Z" transform="translate(-450.496 -249.397)" fill="#a39160"/>
    <path id="Path_2956" data-name="Path 2956" d="M479.307,259.167a.442.442,0,1,0-.446-.441.442.442,0,0,0,.446.441Z" transform="translate(-451.935 -249.15)" fill="#a39160"/>
    <path id="Path_2957" data-name="Path 2957" d="M474,262.658l1.391.508,1.173-.907-1.388-.511Zm1.888-.3-.556.434-.656-.242.551-.43Z" transform="translate(-453.877 -247.767)" fill="#a39160"/>
    <path id="Path_2958" data-name="Path 2958" d="M478.7,263.524l-1.279.043a.321.321,0,0,0,.024.641l1.275-.048a.319.319,0,0,0-.02-.637Z" transform="translate(-452.632 -247.057)" fill="#a39160"/>
    <path id="Path_2959" data-name="Path 2959" d="M481.482,263.564l-1.278-.043a.319.319,0,0,0-.024.637l1.278.048a.321.321,0,1,0,.024-.641Z" transform="translate(-451.53 -247.059)" fill="#a39160"/>
    <path id="Path_2960" data-name="Path 2960" d="M478.253,262.127l1.3.723,1.3-.723-1.3-.715Zm1.3.344-.621-.344.621-.347.626.347Z" transform="translate(-452.178 -247.901)" fill="#a39160"/>
    <path id="Path_2961" data-name="Path 2961" d="M478.024,261.6l-1.474.113a.189.189,0,0,0-.172.2l.056.691a.178.178,0,0,0,.19.168h0l1.474-.109a.183.183,0,0,0,.168-.2l-.05-.691A.189.189,0,0,0,478.024,261.6Zm-1.273.828a1.778,1.778,0,0,0-.028-.39l1.173-.085c0,.116.024.281.035.39Z" transform="translate(-452.927 -247.825)" fill="#a39160"/>
    <path id="Path_2962" data-name="Path 2962" d="M479.587,282.106a4.241,4.241,0,0,0-3.374,1.844,8.077,8.077,0,0,1-2.818,2.54l2.881,1.134a8.467,8.467,0,0,0,2.345-3.126,3.947,3.947,0,0,1,1.254-1.669Zm-1.3,2.259a8.077,8.077,0,0,1-2.082,2.838l-1.986-.782a7.9,7.9,0,0,0,2.287-2.278,2.982,2.982,0,0,1,.2-.29,2.291,2.291,0,0,1-.723,1.563,4.451,4.451,0,0,0,1.173-1c.423-.567.6-.591.462-.3a3.588,3.588,0,0,1-.641.981s.543-.039,1.173-.911a2.666,2.666,0,0,1,.543-.613,4.53,4.53,0,0,0-.41.789Z" transform="translate(-454.118 -239.636)" fill="#a39160"/>
    <path id="Path_2963" data-name="Path 2963" d="M483.971,283.95a4.244,4.244,0,0,0-3.372-1.844l-.294.73a3.93,3.93,0,0,1,1.251,1.669,8.448,8.448,0,0,0,2.345,3.126l2.884-1.134A8.075,8.075,0,0,1,483.971,283.95Zm-2.075.414a4.29,4.29,0,0,0-.418-.782,2.589,2.589,0,0,1,.544.614c.624.872,1.171.911,1.171.911a3.6,3.6,0,0,1-.644-.981c-.137-.294.038-.27.46.3a4.473,4.473,0,0,0,1.173,1,2.181,2.181,0,0,1-.723-1.563,3.454,3.454,0,0,1,.2.288,7.883,7.883,0,0,0,2.3,2.28c-.726.285-1.727.676-1.981.781A8.065,8.065,0,0,1,481.9,284.365Z" transform="translate(-451.358 -239.636)" fill="#a39160"/>
    <path id="Path_2964" data-name="Path 2964" d="M480.816,284.415a6.768,6.768,0,0,0,.563-2.638,4.677,4.677,0,0,0-.519-2.267,1.609,1.609,0,0,0-.165-.246.6.6,0,0,0-.277-.081.52.52,0,0,0-.172.031c-.039.02.02.2.074.281a4.953,4.953,0,0,1,.6,2.282c0,1.767-.738,2.095-1.269,2.095-.36,0-.954-.667-.954-.667-.063-.078-.1-.133-.078-.13a1.575,1.575,0,0,0,.2,0,1.148,1.148,0,0,0,.218-.027c.063,0,.1-.176.078-.277l-.16-2.154c0-.1-.036-.113-.091-.032l-.362,1.931c-.02.1-.052.094-.067,0a5.57,5.57,0,0,1-.063-.746,4.993,4.993,0,0,1,.6-2.284.694.694,0,0,0,.1-.238c0-.043-.137-.078-.2-.078a.81.81,0,0,0-.21.035.821.821,0,0,0-.224.3,6.6,6.6,0,0,0-.535,2.263c0,1.805.781,2.5,1.727,2.5a1.947,1.947,0,0,0,.536-.1c.1-.031.157-.046.148,0s-.074.083-.02.126S480.648,284.541,480.816,284.415Z" transform="translate(-452.314 -240.809)" fill="#a39160"/>
    <path id="Path_2965" data-name="Path 2965" d="M479.576,279.239a.192.192,0,0,0-.183-.183h-.169a.179.179,0,0,0-.183.175v.008a33.711,33.711,0,0,1,.144,3.741A11.634,11.634,0,0,0,479.576,279.239Z" transform="translate(-451.863 -240.854)" fill="#a39160"/>
    <path id="Path_2966" data-name="Path 2966" d="M464.771,272.906a11.86,11.86,0,0,0,1.45,2.1c.367.423.39-.1.39-.1a27.375,27.375,0,0,1,2.986-8.1,46.671,46.671,0,0,0-2.618,9.055c-.032,1.24.855.528.855.528a1.133,1.133,0,0,0,.392-.641,1.5,1.5,0,0,1-.29.087c-.567.2-.168-.2.523-.782a.747.747,0,0,0,.266-.563,1.536,1.536,0,0,1-.617.312c-.578.161.059-.32.739-1.008a.693.693,0,0,0,.164-.242,2.047,2.047,0,0,1-.828.246c-.6.094.1-.305.868-.9a1.368,1.368,0,0,0,.512-.676,1.57,1.57,0,0,1-1.036.427c-.6.055.109-.25.863-.736a1.119,1.119,0,0,0,.512-.55,2.83,2.83,0,0,1-1.271.323c-.684.032.133-.269,1.029-.781a1.279,1.279,0,0,0,.609-.591,2.867,2.867,0,0,1-1.269.325c-.684.031.109-.316,1.023-.782a2.456,2.456,0,0,0,1.118-.887,4.944,4.944,0,0,1-1.735.532c-.687.031.113-.312,1.029-.781a5.209,5.209,0,0,0,1.458-1.079,8.042,8.042,0,0,1-2.177.668c-.7.032,0-.266.922-.7a5.813,5.813,0,0,0,1.657-1.254,8.233,8.233,0,0,1-2.087.7c-.614.027,0-.137.828-.521A5.938,5.938,0,0,0,472.6,265.3a6.682,6.682,0,0,1-1.825.515c-.606.028,0-.238.809-.621a5.136,5.136,0,0,0,1.45-1.125,6.579,6.579,0,0,1-1.786.633c-.606.071-.024-.234.761-.676a5.2,5.2,0,0,0,1.373-1.215,5.81,5.81,0,0,1-1.451.652c-.508.1.039-.122.665-.536a4.2,4.2,0,0,0,1.052-1.086,5.228,5.228,0,0,1-1.31.606c-.458.094.035-.113.6-.5a2.23,2.23,0,0,0,.782-1.125s-.841.613-.919.421.172-.789.66-1.18a1.791,1.791,0,0,0-.863.621,3.676,3.676,0,0,1,.313-.782,2.657,2.657,0,0,0-.966,1.724,3.475,3.475,0,0,1,0-1.341,4.016,4.016,0,0,0-.555,1.7c-.024.141-.043.661-.27.434a7.212,7.212,0,0,1,0-1.7,3.268,3.268,0,0,0-.465,1.474c-.048.848.122,2.052-.25,1.563s-.258-1.481-.325-1.723a3.729,3.729,0,0,0-.253,1.829c.144.91.211,1.563-.113,1.1a4.8,4.8,0,0,1-.438-1.563,6.316,6.316,0,0,0-.035,1.955c.152.781.144,1.171-.137.835-.39-.46-.34-1.629-.423-1.868a4.608,4.608,0,0,0-.1,2.045c.23,1.036.168,1.3-.078.985a5.333,5.333,0,0,1-.547-1.916,5.4,5.4,0,0,0-.129,1.755c.1,1.016.441,1.907.042,1.349a4.321,4.321,0,0,1-.567-1.521,3.29,3.29,0,0,0-.066,1.517c.266.985.458,1.955,0,1.411a4.227,4.227,0,0,1-.571-1.755,4.451,4.451,0,0,0-.074,1.314c.215,1,.614,2.215.164,1.7a4.856,4.856,0,0,1-.726-1.709,6.741,6.741,0,0,0,.059,1.279c.168.887.652,2.173.277,1.7a5.633,5.633,0,0,1-.844-1.833,2.906,2.906,0,0,0,0,1.02,14.277,14.277,0,0,1,.512,1.864C466.151,273.909,465.432,273.475,464.771,272.906Z" transform="translate(-457.562 -248.504)" fill="#a39160"/>
    <path id="Path_2967" data-name="Path 2967" d="M468.45,278.524a15.355,15.355,0,0,0-.585-1.857,3.2,3.2,0,0,1-.075-1.031,5.9,5.9,0,0,0,.9,1.8c.39.456-.153-.817-.36-1.7a7.123,7.123,0,0,1-.129-1.29,5.143,5.143,0,0,0,.781,1.685c.453.5,0-.708-.246-1.709a4.72,4.72,0,0,1,0-1.332,4.567,4.567,0,0,0,.637,1.744c.453.5.215-.446-.094-1.427a3.612,3.612,0,0,1-.02-1.544,4.427,4.427,0,0,0,.623,1.5c.39.544.038-.336-.118-1.363a5.974,5.974,0,0,1,0-1.787,5.526,5.526,0,0,0,.625,1.9c.249.305.292.035.02-1a4.983,4.983,0,0,1-.028-2.079c.09.234.094,1.426.5,1.868.288.312.273-.063.085-.861a6.811,6.811,0,0,1-.085-1.973,5.2,5.2,0,0,0,.5,1.539c.351.493.234-.207.043-1.121a4.08,4.08,0,0,1,.14-1.872c.074.242.028,1.254.39,1.727s.152-.735.15-1.6a3.49,3.49,0,0,1,.355-1.524,7.817,7.817,0,0,0,.085,1.72c.227.214.215-.313.231-.458a4.391,4.391,0,0,1,.425-1.755,3.55,3.55,0,0,0,.063,1.356,2.713,2.713,0,0,1,.809-1.809,4.143,4.143,0,0,0-.25.782,1.69,1.69,0,0,1,.782-.684,1.689,1.689,0,0,0-.556,1.29c.083.19.845-.486.845-.486a2.339,2.339,0,0,1-.658,1.192c-.511.425-.961.665-.539.539a4.749,4.749,0,0,0,1.2-.7,4.215,4.215,0,0,1-.931,1.171c-.567.462-1.068.728-.6.591a5.423,5.423,0,0,0,1.329-.758,5.016,5.016,0,0,1-1.227,1.321c-.715.5-1.251.845-.68.735a6.057,6.057,0,0,0,1.646-.757,5.061,5.061,0,0,1-1.3,1.23c-.75.446-1.3.752-.728.689a6.091,6.091,0,0,0,1.689-.645,5.781,5.781,0,0,1-1.4,1.353c-.742.445-1.325.648-.75.582a7.471,7.471,0,0,0,1.927-.845,5.7,5.7,0,0,1-1.489,1.384c-.852.5-1.486.844-.833.782a7.484,7.484,0,0,0,2.012-.821,5.077,5.077,0,0,1-1.308,1.173c-.837.521-1.564.922-.926.848a4.656,4.656,0,0,0,1.609-.652,2.361,2.361,0,0,1-1.008.968c-.833.525-1.563.926-.922.852a2.592,2.592,0,0,0,1.173-.41,1.282,1.282,0,0,1-.544.637c-.809.563-1.563.922-.922.845a2.574,2.574,0,0,0,1.173-.392,1.165,1.165,0,0,1-.449.591c-.689.539-1.336.9-.782.8a1.46,1.46,0,0,0,.95-.5,1.4,1.4,0,0,1-.442.719c-.683.652-1.324,1.1-.781.966a1.776,1.776,0,0,0,.781-.305.679.679,0,0,1-.136.262s-1.173,1.454-1.224.5a32.171,32.171,0,0,1,1.275-7.287,25.3,25.3,0,0,0-1.9,10.272s-1.732-1.3-1.842-2.813a2.674,2.674,0,0,0,.887,1.1c.5.239.414.043.043-.434a4.331,4.331,0,0,1-.84-2.345s.925,1.752,1.016.95" transform="translate(-456.536 -246.767)" fill="#a39160"/>
    <path id="Path_2968" data-name="Path 2968" d="M469.45,276.882a6.815,6.815,0,0,0-.078-1.275,4.843,4.843,0,0,1-.539,1.779c-.39.567-.122-.684,0-1.7a4.412,4.412,0,0,0-.22-1.293,4.223,4.223,0,0,1-.39,1.805c-.39.567-.3-.39-.14-1.4a3.313,3.313,0,0,0-.231-1.5,4.358,4.358,0,0,1-.39,1.563c-.337.6-.1-.325-.111-1.345a5.366,5.366,0,0,0-.312-1.731,5.361,5.361,0,0,1-.34,1.954c-.207.34-.3.087-.183-.973a4.574,4.574,0,0,0-.318-2.025c-.055.246.133,1.4-.218,1.9-.246.36-.294,0-.227-.817a6.282,6.282,0,0,0-.242-1.935,5.168,5.168,0,0,1-.27,1.584c-.27.535-.277-.161-.231-1.079a3.758,3.758,0,0,0-.453-1.791c-.039.25.176,1.22-.136,1.748s-.279-.684-.416-1.524a3.239,3.239,0,0,0-.621-1.415,7.186,7.186,0,0,1,.2,1.688c-.2.25-.273-.266-.316-.39a4.053,4.053,0,0,0-.735-1.626,3.226,3.226,0,0,1,.155,1.329,2.659,2.659,0,0,0-1.141-1.611,3.61,3.61,0,0,1,.39.723,1.778,1.778,0,0,0-.926-.525c.532.337.845.95.782,1.153s-.957-.316-.957-.316a2.2,2.2,0,0,0,.883,1.04c.6.32,1.11.473.648.425a5.138,5.138,0,0,1-1.367-.456,4.165,4.165,0,0,0,1.173.964c.665.348,1.231.512.715.466a5.877,5.877,0,0,1-1.513-.493,5.184,5.184,0,0,0,1.5,1.064c.833.355,1.446.589.833.589a6.434,6.434,0,0,1-1.837-.434,5.076,5.076,0,0,0,1.563.961c.848.3,1.473.5.868.532a6.528,6.528,0,0,1-1.868-.316,5.878,5.878,0,0,0,1.689,1.059c.852.3,1.489.39.879.434a7.889,7.889,0,0,1-2.149-.473,5.87,5.87,0,0,0,1.786,1.075c.97.329,1.689.547.989.595a8.19,8.19,0,0,1-2.236-.434,5.163,5.163,0,0,0,1.565.91c.957.357,1.786.614,1.1.658a5.175,5.175,0,0,1-1.781-.34,2.531,2.531,0,0,0,1.208.757c.957.368,1.79.614,1.1.658a2.87,2.87,0,0,1-1.3-.185,1.282,1.282,0,0,0,.673.516,11.9,11.9,0,0,1,1.844,1.075c.591.477.39.043.262-.262a57,57,0,0,0-3.353-6.289,51.5,51.5,0,0,1,2.853,4.549c.781,1.728,1.023,2.544,1.371,2.736.231.129.591-.848.523-2.287" transform="translate(-459.135 -245.758)" fill="#a39160"/>
    <path id="Path_2969" data-name="Path 2969" d="M468.958,282.379a5.039,5.039,0,0,0,1.853-.6c.591-.423-.719-.12-1.783,0a4.491,4.491,0,0,1-1.36-.211,4.353,4.353,0,0,0,1.892-.425c.591-.427-.418-.314-1.478-.129a3.449,3.449,0,0,1-1.563-.231,4.446,4.446,0,0,0,1.641-.446c.626-.367-.34-.1-1.411-.1a5.59,5.59,0,0,1-1.818-.313,5.693,5.693,0,0,0,2.056-.39c.353-.227.087-.325-1.02-.183a4.692,4.692,0,0,1-2.121-.313c.253-.062,1.474.126,1.993-.253.371-.27,0-.313-.859-.239a6.393,6.393,0,0,1-2.033-.229,4.972,4.972,0,0,0,1.657-.305c.564-.305-.171-.294-1.132-.231a3.88,3.88,0,0,1-1.892-.442c.258-.046,1.282.172,1.829-.164s-.723-.281-1.6-.423a3.353,3.353,0,0,1-1.493-.645,7.327,7.327,0,0,0,1.77.189c.262-.22-.281-.294-.425-.333a4.084,4.084,0,0,1-1.717-.763,3.39,3.39,0,0,0,1.4.152,2.812,2.812,0,0,1-1.7-1.2,3.731,3.731,0,0,0,.761.41,1.919,1.919,0,0,1-.558-.981c.36.56,1,.891,1.215.828s-.34-1.02-.34-1.02a2.347,2.347,0,0,1,1.1.931c.344.641.508,1.173.453.689a5.435,5.435,0,0,0-.5-1.454,4.447,4.447,0,0,1,1.031,1.23c.39.7.547,1.31.493.759a6.211,6.211,0,0,0-.539-1.607,5.508,5.508,0,0,1,1.134,1.584c.39.879.637,1.531.628.879a7.2,7.2,0,0,0-.484-1.955,5.46,5.46,0,0,1,1.024,1.658c.325.9.539,1.563.57.918a7.1,7.1,0,0,0-.355-1.986,6.294,6.294,0,0,1,1.129,1.787c.32.9.431,1.587.462.929a8.933,8.933,0,0,0-.519-2.287,6.275,6.275,0,0,1,1.149,1.872c.355,1.033.6,1.8.633,1.052a8.772,8.772,0,0,0-.48-2.385,5.608,5.608,0,0,1,.977,1.657c.39,1.02.684,1.9.7,1.173a5.085,5.085,0,0,0-.5-2.01,3.029,3.029,0,0,1,.931,1.392c.39,1.02.782,1.829.743,1.094a5.385,5.385,0,0,0-.355-1.611,9.751,9.751,0,0,1,1.066,2.345c.141.668.368.242.325-.122a13.977,13.977,0,0,0-.673-1.809,2.807,2.807,0,0,1,1.118,1.563c.446,1.22.813,1.2.693.837s-.47-1.219-.47-1.219a5.132,5.132,0,0,1,1.118,1.587c.305.812.223,1.1-.285.831s-5.581-2.662-7.992-4.256c0,0,3.462,2.31,4.768,2.9a12.819,12.819,0,0,1,2.923,1.517c.22.262-.883.637-2.392.586Z" transform="translate(-459.62 -243.115)" fill="#a39160"/>
    <path id="Path_2970" data-name="Path 2970" d="M481.436,282.908c-.39-.151-2.518.567-5.081.591a54.718,54.718,0,0,1-7.2-.591c6.387.509,10.3-.085,10.417-.41s-.782-.9-.782-.9a3.813,3.813,0,0,0-2.158-.994,16.552,16.552,0,0,1,1.807,1.486c.258.347.246.887-.3.288a12.14,12.14,0,0,0-2.568-1.84,6.175,6.175,0,0,1,1.332,1.446c.462.723-.449.106-1.469-.726a4.03,4.03,0,0,0-1.857-.935A6.05,6.05,0,0,1,475.3,282.1c.39.747-.446,0-1.469-.824a7.308,7.308,0,0,0-2.064-1.173,10.191,10.191,0,0,1,1.916,2.161c.386.774-.325.122-1.325-.737a8.174,8.174,0,0,0-2.385-1.325,10.7,10.7,0,0,1,1.907,2.047c.344.676-.176.039-1.059-.711a8.406,8.406,0,0,0-2.313-1.227,8.283,8.283,0,0,1,1.563,1.829c.34.676-.29.109-1.173-.641a7.263,7.263,0,0,0-2.123-1.149,8.449,8.449,0,0,1,1.63,1.735c.39.656-.285.129-1.223-.567a7.383,7.383,0,0,0-2.2-1.02,7.546,7.546,0,0,1,1.537,1.349c.39.528-.168,0-1-.516a6.077,6.077,0,0,0-1.877-.715,6.691,6.691,0,0,1,1.4,1.212c.344.473-.157,0-.911-.462a3.293,3.293,0,0,0-1.783-.39s1.173.687.978.855a2.36,2.36,0,0,1-1.857-.218,2.453,2.453,0,0,0,1.2.7,5.241,5.241,0,0,1-1.1-.028,3.856,3.856,0,0,0,2.618.344,4.691,4.691,0,0,1-1.669.563,6.239,6.239,0,0,0,2.385-.1c.188-.032.841-.235.673.118a10.079,10.079,0,0,1-2.114.715,4.819,4.819,0,0,0,2.067-.111c1.079-.308,2.49-1.016,2.064-.39s-1.713.926-1.981,1.1a5.476,5.476,0,0,0,2.4-.486c1.059-.554,1.856-.918,1.422-.343a7.193,7.193,0,0,1-1.707,1.173,8.8,8.8,0,0,0,2.439-.83c.914-.511,1.376-.663,1.114-.2-.392.649-1.861,1.079-2.119,1.275a6.6,6.6,0,0,0,2.592-.782c1.171-.707,1.531-.746,1.262-.336-.477.719-1.822,1.216-2.107,1.434a7.792,7.792,0,0,0,2.24-.614c1.215-.547,2.156-1.308,1.657-.621a5.5,5.5,0,0,1-1.607,1.286,4.678,4.678,0,0,0,1.919-.574c1.094-.723,2.173-1.345,1.748-.614s-1.607,1.173-1.9,1.392a6.3,6.3,0,0,0,1.668-.477c1.138-.669,2.45-1.637,2.025-.911a6.441,6.441,0,0,1-1.763,1.563,8.461,8.461,0,0,0,2.982-1.426c.915-.883.32.059,0,.414a5.491,5.491,0,0,0-.558.735s2.83-2.052,2.126-2.67Z" transform="translate(-458.879 -240.435)" fill="#a39160"/>
    <path id="Path_2971" data-name="Path 2971" d="M480.157,283.588c1,.078.781-.571.687-1.247s-.1-.782-.1-.782-.449.2-.32,1.173a2.856,2.856,0,0,1-.528-1s-.25.035-.312.735c0,0-.606-.421-.505-.985a1.363,1.363,0,0,0-.362,1.131,2.635,2.635,0,0,1-.329-1.345s-.445.074-.423.863a2.6,2.6,0,0,1-.327-1.341s-.39.118-.39.9a2.683,2.683,0,0,1-.231-1.371s-.488.039-.423,1.047h0a3.729,3.729,0,0,1-.238-1.727s-.453.118-.505,1.118c0,0-.39-1.092-.164-1.517,0,0-.39.122-.43,1.129a5.154,5.154,0,0,1-.083-2.2s-.626-.024-.68,1.587a9.219,9.219,0,0,1-.078-2.9s-.606-.035-.661,2.088a12.066,12.066,0,0,1-.257-3.28s-.484.227-.539,2.123a17.162,17.162,0,0,1-.043-3.623,7.336,7.336,0,0,0-.641,2.919,22.454,22.454,0,0,1,.05-3.876s-.39.21-.551,2.427a10.593,10.593,0,0,0-.218-2.779,7.922,7.922,0,0,1-.129,1.349,3.656,3.656,0,0,0-.481-1.068c-.157.118.109,1.2.109,1.2a1.672,1.672,0,0,0-.39-.462,9.271,9.271,0,0,0,.274,1.626,1.218,1.218,0,0,1-.462-.469,1.46,1.46,0,0,0,.325,1.321c.539.6.872,1.11.273.68s-.914-.641-.949-.907a2.486,2.486,0,0,0,.82,1.563c.719.547,1.216,1.064.516.754s-1.064-.441-1.2-.781a2.517,2.517,0,0,0,1.29,1.332c.935.39,1.611.782.754.621s-1.293-.211-1.52-.5a2.4,2.4,0,0,0,1.286,1.173c.89.3,1.563.628.737.539s-1.21-.109-1.441-.368a2.378,2.378,0,0,0,1.5.891c.935.106,1.637.29.837.392s-1.208.148-1.489-.056a2.078,2.078,0,0,0,1.4.673c.824,0,1.465.109.781.262s-1.043.246-1.308.09a2.076,2.076,0,0,0,1.5.392c.809-.153,1.454-.181.8.109-.43.195-.434.285-.833.336a2.7,2.7,0,0,0,1.411.238c.782-.094,1.4.087.782.266a2.979,2.979,0,0,1-.782.207,2.691,2.691,0,0,0,1.419.18c.763-.126,1.5-.168.9.035a2.829,2.829,0,0,1-.782.238,2.713,2.713,0,0,0,1.434,0c.735-.231,1.349-.175.782.109a2.712,2.712,0,0,1-.735.344,2.739,2.739,0,0,0,1.411-.246s.8-.742-.129-.961-4.5-.931-6.594-3.643C473.684,280.328,476.611,283.311,480.157,283.588Z" transform="translate(-455.423 -243.331)" fill="#a39160"/>
    <path id="Path_2972" data-name="Path 2972" d="M469.994,279.131a1.785,1.785,0,0,0,1.047.966c.848.355,1.536-.035,1.173-.523-.312-.392-.715-.087-1.29-.148A1.734,1.734,0,0,1,469.994,279.131Z" transform="translate(-455.476 -240.824)" fill="#a39160"/>
    <path id="Path_2973" data-name="Path 2973" d="M469.536,278.215a1.563,1.563,0,0,0,.9.856c.75.34,1.383.042,1.062-.392-.257-.351-.637-.1-1.149-.187A1.64,1.64,0,0,1,469.536,278.215Z" transform="translate(-455.659 -241.19)" fill="#a39160"/>
    <path id="Path_2974" data-name="Path 2974" d="M469.237,277.444a1.366,1.366,0,0,0,.813.728c.676.288,1.243.042.953-.318-.234-.3-.574-.094-1.031-.164A1.564,1.564,0,0,1,469.237,277.444Z" transform="translate(-455.779 -241.498)" fill="#a39160"/>
    <path id="Path_2975" data-name="Path 2975" d="M469.2,276.774a1.109,1.109,0,0,0,.645.613c.535.25.992.048.781-.257s-.458-.083-.824-.144A1.208,1.208,0,0,1,469.2,276.774Z" transform="translate(-455.796 -241.765)" fill="#a39160"/>
    <path id="Path_2976" data-name="Path 2976" d="M469.125,276.157a.906.906,0,0,0,.5.519c.423.215.782.048.619-.216s-.364-.07-.661-.125A.948.948,0,0,1,469.125,276.157Z" transform="translate(-455.823 -242.012)" fill="#a39160"/>
    <path id="Path_2977" data-name="Path 2977" d="M469.019,275.528a.906.906,0,0,0,.477.547c.414.235.781.083.628-.183s-.36-.09-.652-.157A.947.947,0,0,1,469.019,275.528Z" transform="translate(-455.866 -242.263)" fill="#a39160"/>
    <path id="Path_2978" data-name="Path 2978" d="M496.129,272.906a11.781,11.781,0,0,1-1.454,2.1c-.368.423-.392-.1-.392-.1a27.4,27.4,0,0,0-2.985-8.1,46.182,46.182,0,0,1,2.618,9.055c.027,1.24-.852.521-.852.521a1.169,1.169,0,0,1-.39-.641,1.481,1.481,0,0,0,.288.085c.571.2.172-.195-.519-.781a.785.785,0,0,1-.266-.564,1.522,1.522,0,0,0,.617.313c.579.16-.059-.32-.739-1.009a.668.668,0,0,1-.164-.242,2.04,2.04,0,0,0,.824.246c.6.094-.1-.305-.863-.9a1.391,1.391,0,0,1-.515-.677,1.586,1.586,0,0,0,1.038.427c.6.055-.109-.25-.863-.735a1.116,1.116,0,0,1-.512-.551,2.812,2.812,0,0,0,1.271.325c.688.031-.133-.27-1.024-.782a1.278,1.278,0,0,1-.613-.589,2.908,2.908,0,0,0,1.271.323c.683.032-.111-.316-1.029-.781a2.443,2.443,0,0,1-1.118-.887,5.012,5.012,0,0,0,1.735.532c.689.031-.109-.313-1.02-.782A5.165,5.165,0,0,1,489,267.683a8.071,8.071,0,0,0,2.176.669c.7.031,0-.266-.922-.7a5.862,5.862,0,0,1-1.657-1.255,8.122,8.122,0,0,0,2.087.7c.614.028,0-.137-.828-.519a5.9,5.9,0,0,1-1.563-1.236,6.6,6.6,0,0,0,1.822.516c.613.027,0-.239-.806-.621a5.134,5.134,0,0,1-1.454-1.126,6.528,6.528,0,0,0,1.787.634c.609.07.022-.235-.782-.676a5.177,5.177,0,0,1-1.371-1.216,5.8,5.8,0,0,0,1.45.652c.5.1-.039-.12-.665-.535a4.17,4.17,0,0,1-1.055-1.087,5.09,5.09,0,0,0,1.31.606c.456.094-.036-.113-.6-.5a2.231,2.231,0,0,1-.781-1.127s.844.614.918.423a1.534,1.534,0,0,0-.63-1.227,1.794,1.794,0,0,1,.865.621,3.673,3.673,0,0,0-.313-.782,2.673,2.673,0,0,1,.966,1.724,3.475,3.475,0,0,0,0-1.341,4.076,4.076,0,0,1,.556,1.7c.022.141.042.661.269.434a7.213,7.213,0,0,0,0-1.7,3.293,3.293,0,0,1,.47,1.474c.042.848-.122,2.052.245,1.563s.259-1.481.32-1.723a3.749,3.749,0,0,1,.263,1.829c-.15.91-.216,1.563.109,1.1a4.8,4.8,0,0,0,.438-1.563,6.276,6.276,0,0,1,.031,1.955c-.152.781-.144,1.171.141.835.39-.46.34-1.629.417-1.868a4.589,4.589,0,0,1,.1,2.045c-.231,1.036-.168,1.3.078.985a5.356,5.356,0,0,0,.551-1.916,5.486,5.486,0,0,1,.12,1.755c-.1,1.016-.437,1.907-.038,1.349a4.36,4.36,0,0,0,.567-1.521,3.311,3.311,0,0,1,.066,1.517c-.266.985-.462,1.955,0,1.411a4.167,4.167,0,0,0,.571-1.755,4.45,4.45,0,0,1,.07,1.314c-.211,1-.61,2.215-.164,1.7a4.794,4.794,0,0,0,.726-1.709,6.748,6.748,0,0,1-.059,1.279c-.168.887-.652,2.173-.281,1.7a5.643,5.643,0,0,0,.848-1.833,2.9,2.9,0,0,1,0,1.02,13.86,13.86,0,0,0-.508,1.864C494.745,273.909,495.464,273.475,496.129,272.906Z" transform="translate(-448.627 -248.504)" fill="#a39160"/>
    <path id="Path_2979" data-name="Path 2979" d="M492.033,278.524a15.141,15.141,0,0,1,.591-1.857,3.236,3.236,0,0,0,.074-1.031,5.9,5.9,0,0,1-.907,1.8c-.39.456.148-.817.36-1.7a7.386,7.386,0,0,0,.129-1.29,5.173,5.173,0,0,1-.781,1.685c-.453.5,0-.708.253-1.709a4.831,4.831,0,0,0,0-1.332,4.43,4.43,0,0,1-.637,1.744c-.453.5-.215-.446.09-1.427a3.611,3.611,0,0,0,.024-1.544,4.488,4.488,0,0,1-.626,1.5c-.39.544-.035-.336.118-1.363a5.889,5.889,0,0,0,0-1.787,5.749,5.749,0,0,1-.626,1.9c-.25.305-.294.035,0-1a5.03,5.03,0,0,0,.024-2.079c-.087.234-.1,1.426-.5,1.868-.29.312-.27-.063-.085-.861a6.667,6.667,0,0,0,.081-1.973,4.966,4.966,0,0,1-.5,1.539c-.353.493-.231-.207-.043-1.121a4.081,4.081,0,0,0-.144-1.872c-.074.242-.028,1.254-.392,1.727s-.148-.735-.144-1.6a3.53,3.53,0,0,0-.355-1.524,7.906,7.906,0,0,1-.085,1.72c-.227.214-.211-.313-.227-.458a4.367,4.367,0,0,0-.427-1.755,3.549,3.549,0,0,1-.063,1.356,2.729,2.729,0,0,0-.809-1.809,3.83,3.83,0,0,1,.25.782,1.69,1.69,0,0,0-.782-.684,1.683,1.683,0,0,1,.556,1.29c-.083.19-.844-.486-.844-.486a2.339,2.339,0,0,0,.66,1.192c.508.425.961.665.535.539a4.783,4.783,0,0,1-1.2-.7,4.234,4.234,0,0,0,.929,1.171c.567.462,1.068.728.595.591a5.493,5.493,0,0,1-1.329-.758,5.062,5.062,0,0,0,1.227,1.321c.715.5,1.251.845.68.735a6.119,6.119,0,0,1-1.646-.757,5.007,5.007,0,0,0,1.306,1.23c.743.446,1.3.752.723.689a6.108,6.108,0,0,1-1.689-.645,5.86,5.86,0,0,0,1.4,1.353c.747.445,1.325.648.754.582a7.536,7.536,0,0,1-1.927-.845,5.716,5.716,0,0,0,1.493,1.384c.856.5,1.489.844.833.782a7.466,7.466,0,0,1-2.017-.821,5.041,5.041,0,0,0,1.317,1.173c.837.521,1.563.922.922.848a4.655,4.655,0,0,1-1.607-.652,2.365,2.365,0,0,0,1.009.968c.837.525,1.563.926.922.852a2.609,2.609,0,0,1-1.173-.41,1.286,1.286,0,0,0,.543.637c.813.563,1.564.922.924.845a2.574,2.574,0,0,1-1.173-.392,1.165,1.165,0,0,0,.449.591c.687.539,1.336.9.781.8a1.476,1.476,0,0,1-.949-.5,1.413,1.413,0,0,0,.445.719c.684.652,1.325,1.1.782.966a1.781,1.781,0,0,1-.782-.305.681.681,0,0,0,.137.262s1.173,1.454,1.223.5a32.161,32.161,0,0,0-1.273-7.287,25.3,25.3,0,0,1,1.9,10.272s1.727-1.3,1.837-2.813a2.674,2.674,0,0,1-.887,1.1c-.5.239-.411.043-.043-.434a4.314,4.314,0,0,0,.84-2.345s-.929,1.752-1.016.95" transform="translate(-449.242 -246.767)" fill="#a39160"/>
    <path id="Path_2980" data-name="Path 2980" d="M493.338,282.386a5.054,5.054,0,0,1-1.857-.6c-.591-.423.719-.12,1.787,0a4.482,4.482,0,0,0,1.359-.211,4.348,4.348,0,0,1-1.891-.425c-.591-.427.418-.314,1.474-.129a3.468,3.468,0,0,0,1.563-.231,4.447,4.447,0,0,1-1.642-.446c-.626-.367.344-.1,1.411-.1a5.59,5.59,0,0,0,1.818-.313,5.685,5.685,0,0,1-2.053-.39c-.351-.227-.085-.325,1.02-.183a4.719,4.719,0,0,0,2.127-.313c-.259-.062-1.474.126-1.994-.253-.367-.27,0-.313.865-.239a6.428,6.428,0,0,0,2.032-.229,4.961,4.961,0,0,1-1.657-.305c-.56-.305.168-.294,1.138-.231a3.88,3.88,0,0,0,1.879-.465c-.258-.048-1.282.171-1.829-.165s.719-.281,1.6-.421a3.352,3.352,0,0,0,1.489-.645,7.332,7.332,0,0,1-1.77.188c-.262-.22.281-.294.425-.333a4.058,4.058,0,0,0,1.713-.761,3.378,3.378,0,0,1-1.4.153,2.81,2.81,0,0,0,1.7-1.2,3.774,3.774,0,0,1-.763.41,1.918,1.918,0,0,0,.558-.981c-.36.56-1.008.891-1.215.83s.343-1.02.343-1.02a2.338,2.338,0,0,0-1.1.929c-.344.641-.508,1.173-.453.689a5.444,5.444,0,0,1,.5-1.454,4.457,4.457,0,0,0-1.031,1.231c-.39.7-.547,1.308-.493.758a6.069,6.069,0,0,1,.539-1.606,5.463,5.463,0,0,0-1.136,1.583c-.392.879-.638,1.532-.63.879a6.975,6.975,0,0,1,.488-1.954,5.419,5.419,0,0,0-1.027,1.657c-.32.9-.536,1.563-.571.918a7.164,7.164,0,0,1,.355-1.986,6.336,6.336,0,0,0-1.134,1.787c-.32.9-.425,1.587-.462.931a8.865,8.865,0,0,1,.516-2.287,6.288,6.288,0,0,0-1.141,1.888c-.357,1.031-.595,1.8-.634,1.051a8.854,8.854,0,0,1,.481-2.385,5.544,5.544,0,0,0-.978,1.658c-.39,1.019-.683,1.9-.7,1.171a5.056,5.056,0,0,1,.5-2.008,3,3,0,0,0-.931,1.391c-.39,1.02-.781,1.829-.742,1.094a5.4,5.4,0,0,1,.355-1.611,9.777,9.777,0,0,0-1.068,2.345c-.144.669-.362.242-.323-.12a13.9,13.9,0,0,1,.668-1.811,2.837,2.837,0,0,0-1.118,1.564c-.449,1.219-.813,1.2-.691.835s.469-1.219.469-1.219a5.2,5.2,0,0,0-1.118,1.587c-.3.813-.222,1.1.285.833s5.582-2.662,8-4.257c0,0-3.468,2.31-4.772,2.9a12.661,12.661,0,0,0-2.921,1.516c-.214.262.88.638,2.389.586Z" transform="translate(-447.971 -243.122)" fill="#a39160"/>
    <path id="Path_2981" data-name="Path 2981" d="M482.639,282.908c.392-.151,2.517.567,5.062.591a54.747,54.747,0,0,0,7.239-.591c-6.391.509-10.3-.085-10.42-.41s.781-.9.781-.9a3.817,3.817,0,0,1,2.158-.994,16.658,16.658,0,0,0-1.8,1.486c-.258.347-.246.887.3.288a12.2,12.2,0,0,1,2.571-1.84,6.323,6.323,0,0,0-1.332,1.446c-.465.723.449.106,1.469-.726a4.031,4.031,0,0,1,1.857-.935,6.038,6.038,0,0,0-1.724,1.779c-.39.747.442,0,1.467-.824a7.282,7.282,0,0,1,2.063-1.173,10.265,10.265,0,0,0-1.91,2.161c-.383.774.323.122,1.324-.737a8.174,8.174,0,0,1,2.385-1.325,10.441,10.441,0,0,0-1.9,2.047c-.34.676.176.039,1.059-.711a8.292,8.292,0,0,1,2.313-1.227,8.214,8.214,0,0,0-1.563,1.829c-.34.676.29.109,1.173-.641a7.292,7.292,0,0,1,2.119-1.149,8.5,8.5,0,0,0-1.681,1.731c-.392.656.286.129,1.223-.567a7.365,7.365,0,0,1,2.2-1.02,7.613,7.613,0,0,0-1.532,1.349c-.392.528.168,0,1-.516a6.08,6.08,0,0,1,1.879-.715,6.554,6.554,0,0,0-1.4,1.212c-.344.473.155,0,.914-.462a3.3,3.3,0,0,1,1.783-.39s-1.173.688-.977.856a2.376,2.376,0,0,0,1.86-.22,2.446,2.446,0,0,1-1.2.7,5.274,5.274,0,0,0,1.1-.028,3.853,3.853,0,0,1-2.618.344,4.691,4.691,0,0,0,1.669.563,6.247,6.247,0,0,1-2.385-.1c-.183-.031-.841-.235-.669.118a10.082,10.082,0,0,0,2.115.715,4.822,4.822,0,0,1-2.063-.109c-1.083-.309-2.491-1.017-2.068-.392s1.711.926,1.981,1.1a5.477,5.477,0,0,1-2.4-.493c-1.059-.556-1.856-.918-1.422-.344a7.143,7.143,0,0,0,1.7,1.173,8.755,8.755,0,0,1-2.431-.817c-.914-.511-1.38-.663-1.114-.2.39.649,1.861,1.079,2.115,1.275a6.578,6.578,0,0,1-2.592-.782c-1.173-.707-1.535-.746-1.262-.336.473.719,1.818,1.216,2.108,1.434a7.791,7.791,0,0,1-2.24-.614c-1.215-.547-2.154-1.308-1.657-.621a5.517,5.517,0,0,0,1.611,1.286,4.685,4.685,0,0,1-1.92-.574c-1.094-.723-2.173-1.345-1.751-.614s1.606,1.173,1.9,1.392a6.288,6.288,0,0,1-1.668-.477c-1.138-.669-2.452-1.637-2.025-.911a6.442,6.442,0,0,0,1.763,1.563,8.434,8.434,0,0,1-2.979-1.426c-.911-.883-.325.059,0,.414a5.713,5.713,0,0,1,.56.735s-2.834-2.052-2.127-2.67Z" transform="translate(-450.479 -240.435)" fill="#a39160"/>
    <path id="Path_2982" data-name="Path 2982" d="M481.255,283.588c-1,.078-.781-.571-.687-1.247s.1-.782.1-.782.449.2.32,1.173a2.82,2.82,0,0,0,.528-1s.249.035.312.735c0,0,.606-.421.5-.985a1.348,1.348,0,0,1,.36,1.131,2.592,2.592,0,0,0,.329-1.345s.442.074.423.863a2.641,2.641,0,0,0,.327-1.341s.392.118.392.9a2.663,2.663,0,0,0,.227-1.371s.491.039.421,1.047h0a3.682,3.682,0,0,0,.235-1.727s.449.118.508,1.118c0,0,.39-1.092.164-1.517,0,0,.39.122.434,1.129a5.155,5.155,0,0,0,.083-2.2s.626-.024.68,1.587a9.131,9.131,0,0,0,.078-2.9s.606-.035.661,2.088a12.066,12.066,0,0,0,.257-3.28s.481.227.539,2.123a17.167,17.167,0,0,0,.043-3.623,7.278,7.278,0,0,1,.645,2.919,22.907,22.907,0,0,0-.05-3.876s.371.21.551,2.427a10.535,10.535,0,0,1,.218-2.779,7.928,7.928,0,0,0,.129,1.349,3.586,3.586,0,0,1,.481-1.068c.153.118-.111,1.2-.111,1.2a1.7,1.7,0,0,1,.392-.462,9.287,9.287,0,0,1-.278,1.626,1.209,1.209,0,0,0,.462-.469,1.456,1.456,0,0,1-.325,1.321c-.543.6-.875,1.11-.273.68s.918-.641.949-.907a2.474,2.474,0,0,1-.824,1.563c-.719.547-1.212,1.064-.516.754s1.059-.441,1.2-.781A2.514,2.514,0,0,1,489.855,279c-.935.39-1.611.782-.75.621s1.293-.211,1.524-.5a2.4,2.4,0,0,1-1.286,1.173c-.891.3-1.563.628-.739.539s1.212-.109,1.443-.368a2.375,2.375,0,0,1-1.5.891c-.935.106-1.643.29-.837.392s1.208.148,1.493-.056a2.076,2.076,0,0,1-1.4.673c-.824,0-1.462.109-.782.262s1.048.246,1.31.09a2.084,2.084,0,0,1-1.5.392c-.813-.153-1.454-.181-.8.109.434.195.434.285.833.336a2.708,2.708,0,0,1-1.412.238c-.781-.094-1.4.087-.781.266a2.969,2.969,0,0,0,.781.207,2.7,2.7,0,0,1-1.418.18c-.763-.126-1.5-.168-.891.035a2.786,2.786,0,0,0,.781.238,2.7,2.7,0,0,1-1.43,0c-.735-.231-1.348-.175-.781.109a2.6,2.6,0,0,0,.735.344,2.741,2.741,0,0,1-1.412-.246s-.8-.742.126-.961,4.482-.931,6.594-3.631C487.749,280.328,484.808,283.311,481.255,283.588Z" transform="translate(-451.288 -243.331)" fill="#a39160"/>
    <path id="Path_2983" data-name="Path 2983" d="M489,279.131a1.8,1.8,0,0,1-1.047.966c-.852.355-1.536-.035-1.173-.523.312-.392.715-.087,1.286-.148A1.724,1.724,0,0,0,489,279.131Z" transform="translate(-448.812 -240.824)" fill="#a39160"/>
    <path id="Path_2984" data-name="Path 2984" d="M489.377,278.215a1.535,1.535,0,0,1-.9.856c-.75.34-1.384.042-1.064-.392.262-.351.637-.1,1.149-.187A1.626,1.626,0,0,0,489.377,278.215Z" transform="translate(-448.552 -241.19)" fill="#a39160"/>
    <path id="Path_2985" data-name="Path 2985" d="M489.621,277.444a1.358,1.358,0,0,1-.809.728c-.676.288-1.247.042-.957-.318.238-.3.578-.094,1.036-.164A1.553,1.553,0,0,0,489.621,277.444Z" transform="translate(-448.374 -241.498)" fill="#a39160"/>
    <path id="Path_2986" data-name="Path 2986" d="M489.566,276.774a1.1,1.1,0,0,1-.641.613c-.539.25-1,.048-.781-.257s.456-.083.828-.144A1.206,1.206,0,0,0,489.566,276.774Z" transform="translate(-448.249 -241.765)" fill="#a39160"/>
    <path id="Path_2987" data-name="Path 2987" d="M489.541,276.157a.91.91,0,0,1-.5.519c-.425.215-.781.048-.617-.216s.364-.07.661-.125A.962.962,0,0,0,489.541,276.157Z" transform="translate(-448.134 -242.012)" fill="#a39160"/>
    <path id="Path_2988" data-name="Path 2988" d="M489.629,275.528a.917.917,0,0,1-.476.547c-.414.235-.782.083-.626-.183s.36-.09.652-.157A.94.94,0,0,0,489.629,275.528Z" transform="translate(-448.089 -242.263)" fill="#a39160"/>
    <path id="Path_2989" data-name="Path 2989" d="M463.755,265.845c.2-.078.34-.227.3-.336s-.239-.141-.442-.059-.34.222-.3.332S463.548,265.919,463.755,265.845Z" transform="translate(-458.149 -246.307)" fill="#a39160"/>
    <ellipse id="Ellipse_34" data-name="Ellipse 34" cx="0.594" cy="0.317" rx="0.594" ry="0.317" transform="translate(5.12 19.949) rotate(-19.96)" fill="#a39160"/>
    <path id="Path_2990" data-name="Path 2990" d="M464.411,267.361c.462-.172.782-.508.672-.754s-.535-.308-1-.144-.781.508-.676.75S463.949,267.527,464.411,267.361Z" transform="translate(-458.114 -245.92)" fill="#a39160"/>
    <path id="Path_2991" data-name="Path 2991" d="M464.472,267.809c-.2.074-.34.227-.3.336s.238.137.442.063.34-.223.3-.332S464.679,267.734,464.472,267.809Z" transform="translate(-457.803 -245.362)" fill="#a39160"/>
    <path id="Path_2992" data-name="Path 2992" d="M464.3,267.244c-.3.109-.508.336-.449.5s.36.207.669.094.508-.34.445-.5S464.616,267.126,464.3,267.244Z" transform="translate(-457.935 -245.598)" fill="#a39160"/>
    <path id="Path_2993" data-name="Path 2993" d="M465.02,269.371c.074,0,.039-.29-.081-.61s-.279-.563-.353-.539-.035.293.083.609S464.945,269.391,465.02,269.371Z" transform="translate(-457.651 -245.181)" fill="#a39160"/>
    <path id="Path_2994" data-name="Path 2994" d="M491.344,276.882a6.818,6.818,0,0,1,.078-1.275,4.82,4.82,0,0,0,.54,1.779c.39.567.125-.684.02-1.7a4.316,4.316,0,0,1,.214-1.293,4.207,4.207,0,0,0,.392,1.805c.39.567.3-.39.14-1.4a3.294,3.294,0,0,1,.231-1.5,4.286,4.286,0,0,0,.39,1.563c.336.6.1-.325.106-1.345a5.41,5.41,0,0,1,.312-1.731,5.3,5.3,0,0,0,.34,1.954c.211.34.305.087.183-.973a4.593,4.593,0,0,1,.316-2.025c.056.246-.132,1.4.22,1.9.246.36.292,0,.227-.817a6.283,6.283,0,0,1,.242-1.935,5.171,5.171,0,0,0,.27,1.584c.269.535.277-.161.227-1.079a3.758,3.758,0,0,1,.453-1.791c.039.25-.181,1.22.137,1.748s.273-.684.414-1.524a3.222,3.222,0,0,1,.621-1.415,6.984,6.984,0,0,0-.192,1.688c.2.25.273-.266.316-.39a4.086,4.086,0,0,1,.73-1.626,3.3,3.3,0,0,0-.155,1.329,2.633,2.633,0,0,1,1.145-1.611,3.477,3.477,0,0,0-.39.723,1.778,1.778,0,0,1,.926-.525c-.528.337-.848.95-.782,1.153s.957-.316.957-.316a2.238,2.238,0,0,1-.883,1.04c-.606.32-1.114.473-.649.425a5.131,5.131,0,0,0,1.369-.456,4.166,4.166,0,0,1-1.173.964c-.669.348-1.231.512-.719.466a5.808,5.808,0,0,0,1.513-.493,5.1,5.1,0,0,1-1.5,1.064c-.828.355-1.441.589-.828.589a6.474,6.474,0,0,0,1.842-.441,5.077,5.077,0,0,1-1.563.961c-.849.3-1.478.5-.869.532a6.581,6.581,0,0,0,1.87-.318,5.894,5.894,0,0,1-1.685,1.059c-.852.3-1.489.392-.88.434a7.89,7.89,0,0,0,2.15-.473,5.883,5.883,0,0,1-1.781,1.076c-.974.327-1.689.547-.994.593a8.122,8.122,0,0,0,2.236-.434,5.17,5.17,0,0,1-1.563.911c-.961.355-1.79.613-1.1.656a5.144,5.144,0,0,0,1.783-.34,2.539,2.539,0,0,1-1.212.759c-.961.367-1.786.613-1.1.656a2.889,2.889,0,0,0,1.3-.183,1.3,1.3,0,0,1-.672.516,11.655,11.655,0,0,0-1.849,1.075c-.586.476-.39.042-.262-.263a57.356,57.356,0,0,1,3.349-6.287,50.82,50.82,0,0,0-2.849,4.549c-.781,1.727-1.023,2.544-1.371,2.736-.231.129-.586-.848-.523-2.287" transform="translate(-446.951 -245.758)" fill="#a39160"/>
    <path id="Path_2995" data-name="Path 2995" d="M494.8,265.845c-.2-.078-.34-.227-.3-.336s.238-.141.445-.059.34.222.3.332S495,265.919,494.8,265.845Z" transform="translate(-445.692 -246.307)" fill="#a39160"/>
    <path id="Path_2996" data-name="Path 2996" d="M494.63,266.479c-.3-.113-.508-.336-.449-.5s.355-.2.669-.094.508.336.445.5S494.935,266.593,494.63,266.479Z" transform="translate(-445.82 -246.139)" fill="#a39160"/>
    <path id="Path_2997" data-name="Path 2997" d="M494.413,267.361c-.462-.172-.782-.508-.673-.754s.536-.308,1-.144.782.508.673.75S494.874,267.527,494.413,267.361Z" transform="translate(-446.001 -245.92)" fill="#a39160"/>
    <ellipse id="Ellipse_35" data-name="Ellipse 35" cx="0.211" cy="0.395" rx="0.211" ry="0.395" transform="matrix(0.339, -0.941, 0.941, 0.339, 47.526, 22.709)" fill="#a39160"/>
    <path id="Path_2998" data-name="Path 2998" d="M494.352,267.244c.308.109.512.336.449.5s-.36.207-.669.094-.508-.34-.445-.5S494.043,267.126,494.352,267.244Z" transform="translate(-446.018 -245.598)" fill="#a39160"/>
    <path id="Path_2999" data-name="Path 2999" d="M493.46,269.371c-.074,0-.039-.29.078-.61s.277-.563.351-.539.036.293-.081.609S493.523,269.391,493.46,269.371Z" transform="translate(-446.12 -245.181)" fill="#a39160"/>
    <path id="Path_3000" data-name="Path 3000" d="M475.2,267.8a2.076,2.076,0,1,0,.007,0Zm1.72,1.9h-.645l-.1-.606a4.074,4.074,0,0,0,.5-.141,1.737,1.737,0,0,1,.25.747Zm-.508-1.055a2.807,2.807,0,0,1-.364.113,2.735,2.735,0,0,0-.285-.512,1.758,1.758,0,0,1,.649.379Zm-1.923,1.055a2.463,2.463,0,0,1,.1-.543,4.967,4.967,0,0,0,1.223,0,2.381,2.381,0,0,1,.1.543Zm1.426.351a2.408,2.408,0,0,1-.1.544,4.589,4.589,0,0,0-1.223,0,2.669,2.669,0,0,1-.1-.544Zm-.715-1.9a1.568,1.568,0,0,1,.484.672,3.5,3.5,0,0,1-.484.032,3.8,3.8,0,0,1-.488-.032A1.61,1.61,0,0,1,475.2,268.158Zm-.56.094a2.86,2.86,0,0,0-.284.512,3.225,3.225,0,0,1-.364-.113,1.716,1.716,0,0,1,.648-.41Zm-.9.711a4.369,4.369,0,0,0,.5.141,3.056,3.056,0,0,0-.106.606h-.641a1.73,1.73,0,0,1,.25-.751Zm-.257,1.1h.645a2.953,2.953,0,0,0,.1.606,4.073,4.073,0,0,0-.5.137,1.73,1.73,0,0,1-.246-.747Zm.508,1.055a3.519,3.519,0,0,1,.367-.113,2.738,2.738,0,0,0,.285.512,1.708,1.708,0,0,1-.652-.4Zm1.208.493a1.6,1.6,0,0,1-.488-.672,3.347,3.347,0,0,1,.488-.035,3.1,3.1,0,0,1,.484.035,1.555,1.555,0,0,1-.484.668Zm.558-.094a2.5,2.5,0,0,0,.281-.512,3.763,3.763,0,0,1,.368.113,1.705,1.705,0,0,1-.649.395Zm.9-.711a3.846,3.846,0,0,0-.5-.137,2.859,2.859,0,0,0,.1-.606h.645a1.7,1.7,0,0,1-.251.739Z" transform="translate(-454.226 -245.348)" fill="#a39160"/>
    <path id="Path_3001" data-name="Path 3001" d="M479.807,266.138a.164.164,0,0,1-.2-.125l-.1-.481a.165.165,0,0,1,.129-.192l.477-.1a.165.165,0,0,1,.192.129l.1.477a.163.163,0,0,1-.126.195Z" transform="translate(-451.676 -246.373)" fill="#a39160"/>
    <path id="Path_3002" data-name="Path 3002" d="M480.088,267.015" transform="translate(-451.445 -245.663)" fill="#a39160"/>
    <path id="Path_3003" data-name="Path 3003" d="M477.817,268.772l.109-.364.18.121Z" transform="translate(-452.352 -245.106)" fill="#a39160"/>
    <path id="Path_3004" data-name="Path 3004" d="M488.221,270.383a2.078,2.078,0,0,0-.918-1.895,1.73,1.73,0,0,0-.637-.278c.14-.5-.427-.621-.427-.621.07.54-.3.586-.547.676a2.076,2.076,0,0,0-1.261,2.65c.015.042.032.084.049.125a8.742,8.742,0,0,1,.887,2.834c-.062.392-.347.266-.316.032s.109-.7-.16-.915c0,0-.032.567-.434.325-.263-.153.055-.6.031-1.271a.5.5,0,0,0-.606-.523c.434.5-.02.591-.07,1.613-.043.9.683.806.907,1.7s-.547.708-.547.708a1.248,1.248,0,0,0-.227-.61c-.22-.308-1.173-.606-1.955-1.212s-.61-.833-.563-1.258-.5-.656-.684-.782-.109-.148-.109-.148c.39.185,1.106.157,1.129-.336,0,0-.73-.024-.39-.523.055-.087.469.074.554-.274,0,0-.269-.031-.195-.262.055-.168.781.126.833-.5,0,0-.316.024-.392-.164a.522.522,0,0,1,.087-.567,2.423,2.423,0,0,0,.43-.781,1.281,1.281,0,0,0,0-.438l.462-.7a.391.391,0,0,0-.106-.516l-1.72-1.125a.39.39,0,0,0-.512.109l-.469.707h0a1.219,1.219,0,0,0-.39.172c-.266.192-.344.782-.6.966-.617.423-.708.083-.708.083-.14.07-.074.423-.238.523a.368.368,0,0,1-.505-.12.359.359,0,0,1-.027-.052c-.258.148,0,.782.109.868a.833.833,0,0,0-.637.591s.355-.063.442.153-.242.39-.242.39a.5.5,0,0,1,.257.1c.133.09,0,.227,0,.227a5.978,5.978,0,0,1-1.173-1.09,1.624,1.624,0,0,0-1.278-.634,1.362,1.362,0,0,0-.782.078c-.187.043-.371-.062-.532.048s.024.586.024.586l.724-.157,1.343.39.392.438.445,1.329-.157.637-.563.68-1.234.458-.821-.118-.519-.29c-.32,1.146.362,1.259.362,1.259a.449.449,0,0,1,.357-.392.583.583,0,0,0,.434.528.39.39,0,0,1,.32-.36.532.532,0,0,0,.39.477.355.355,0,0,1,.286-.32.47.47,0,0,0,.355.423.327.327,0,0,1,.258-.29.364.364,0,0,0,.34.34.262.262,0,0,1,.235-.242.36.36,0,0,0,.39.305c-.081-.294.274-.505.54-.477s.116.231-.059.293l.074.165c.465.894,1.192.942,2.106,1.129s1.955.7,1.955.9l.066-.351c.148.238.418,2.005,1.216,2.461.308.176.656.059.715.3s-.2.32-.735.46-.747.427-.782.747a3.267,3.267,0,0,0,.434.957l1.955.078-.27-.087c-.043-.116-.1-.281-.164-.473-.109-.367.477-.554.606-.676s.031-.465.148-.726.39-.619.148-.959a2.73,2.73,0,0,1-.39-.663c-.078-.22.05-.431-.157-.466s-.294,0-.281-.207.488-.327.656-.637a3.227,3.227,0,0,1,.637-.992c.246-.169.337-.2.278-.36s-.285-.122-.285-.122c.266-1.173-.113-1.443-.782-3.087s.2-2.28.782-2.487a.821.821,0,0,1,1.02.512.238.238,0,0,0,.109-.113.244.244,0,0,0,.035-.153,1.42,1.42,0,0,1,.512,1.094c.05.567-.39.575-.563.477-.25-.148-.176-.523-.176-.523-.617,0-.591.742-.591.742-.2.083-.39-.218-.39-.218a1.1,1.1,0,0,0,.689,1.2,2.247,2.247,0,0,0-.3,1c-.059.9.782,1.427,1.149,1.255,0,0-.449-.536-.347-.817a1.866,1.866,0,0,1,.39-.578.558.558,0,0,0,.146-.294.955.955,0,0,0,1.387-.262C488.018,272.165,488.155,271.278,488.221,270.383Zm-11.667,1.872a2.032,2.032,0,0,0,.453-.876.971.971,0,0,1,.423.907,1.291,1.291,0,0,0-.876-.027Zm4.393-3.545.039-.325a.722.722,0,0,1,.586.493s-.453-.239-.626-.165Zm1.127-2.056a.446.446,0,1,1,.43.781.4.4,0,0,0,0-.312.427.427,0,0,0-.556-.235h0a.645.645,0,0,0-.14.1.457.457,0,0,1,.266-.329Zm-1-.782a.446.446,0,0,1,.266.809.386.386,0,0,0,.031-.168.423.423,0,0,0-.723-.29.44.44,0,0,1,.427-.36Zm.512,1.329a.212.212,0,0,1-.353-.231.215.215,0,0,1,.279-.074.211.211,0,0,1,.08.287l-.006.01Zm-1.541-.512,2.28,1.493-.056.094-2.278-1.493Zm.032,3.228-.278.421a.257.257,0,0,1-.351,0h-.152l-.085-.136a.254.254,0,0,1-.122-.325l.277-.427a.468.468,0,0,1-.32-.508V268.9a.482.482,0,0,0,.392.392.541.541,0,0,0,.437-.1l-.343-.222.609-.782c0-.2-.39-.516-.39-.516a.727.727,0,0,1,.676.36l-.707.9.68.445v.165l-.318-.207a.5.5,0,0,0,.087.437.473.473,0,0,0,.516.207.142.142,0,0,1-.036.028.456.456,0,0,1-.57-.1Z" transform="translate(-454.041 -246.35)" fill="#a39160"/>
    <path id="Path_3005" data-name="Path 3005" d="M484.6,277.736a1.783,1.783,0,0,1,1.91.094c.8.437,1.212,1.145.911,1.583s-1.173.438-1.99,0l-.035-.024v.024c-.3.438-1.173.438-1.989,0l-.035-.024v.024c-.3.438-1.173.438-1.99,0l-.035-.024v.024c-.3.438-1.173.438-1.986,0l-.035-.024v.024c-.3.438-1.173.438-1.99,0h-.031v.027c-.3.434-1.173.434-1.99,0s-1.208-1.149-.911-1.583,1.173-.438,1.99,0h.031v-.031a1.043,1.043,0,0,1,1-.313,2.049,2.049,0,0,1-.308-1.219c.148-.39.883-.536,1.321-.442s.626.344.837.411a.461.461,0,0,0,.578-.235,1.839,1.839,0,0,0,.188-.438s-1.388-.179-1.216-1.328a1.833,1.833,0,0,1,2.408-1.173.879.879,0,0,1,.711,1.016s-.39.027-.465.223c-.133.336.36.516.36.516-.36.25-.172.257-.418.469a.456.456,0,0,0-.187.488c.024.1-.113.29-.325.547a1.053,1.053,0,0,0-.235.673c-.022.222-.09.253-.445.3s-.312.2-.39.223a.132.132,0,0,0-.043.024,2.882,2.882,0,0,1,.652.258l.032.024v-.024c.3-.438,1.173-.434,1.993,0l.035.024v-.024a.626.626,0,0,1,.181-.168m1.5.73a1.517,1.517,0,0,0-1.141-.215,1.314,1.314,0,0,0,.672.673,1.491,1.491,0,0,0,1.138.211,1.318,1.318,0,0,0-.691-.669Zm-2.04,0a1.514,1.514,0,0,0-1.136-.215,1.293,1.293,0,0,0,.672.673,1.49,1.49,0,0,0,1.1.214,1.329,1.329,0,0,0-.656-.672Zm4.076,0a1.513,1.513,0,0,0-1.136-.215,1.326,1.326,0,0,0,.676.673,1.489,1.489,0,0,0,1.138.211,1.344,1.344,0,0,0-.7-.669Zm-6.112,0a1.518,1.518,0,0,0-1.141-.215,1.311,1.311,0,0,0,.676.673,1.489,1.489,0,0,0,1.138.211,1.333,1.333,0,0,0-.7-.669Zm-2.04,0a1.513,1.513,0,0,0-1.136-.215,1.311,1.311,0,0,0,.676.673,1.487,1.487,0,0,0,1.136.211,1.329,1.329,0,0,0-.7-.669Zm-2.036,0a1.489,1.489,0,0,0-1.138-.211,1.346,1.346,0,0,0,.677.673,1.49,1.49,0,0,0,1.141.21,1.352,1.352,0,0,0-.707-.663Z" transform="translate(-453.752 -243.271)" fill="#a39160"/>
  </g>
  <path id="Path_3006" data-name="Path 3006" d="M525.354,276.323v4.13h-7.5V266.782h7.5v3.741h9.092v-3.78a6.689,6.689,0,0,0-6.669-6.66H515.2a6.69,6.69,0,0,0-6.671,6.66v13.739a6.692,6.692,0,0,0,6.671,6.642h12.588a6.691,6.691,0,0,0,6.67-6.661v-4.139Z" transform="translate(-440.086 -248.432)" fill="#e31f0e"/>
  <path id="Path_3007" data-name="Path 3007" d="M550.515,260.076v20.4h-7.48v-20.4h-9.043v20.4a6.69,6.69,0,0,0,6.65,6.651H552.9a6.689,6.689,0,0,0,6.669-6.661V260.076Z" transform="translate(-429.916 -248.434)" fill="#e31f0e"/>
  <path id="Path_3008" data-name="Path 3008" d="M578.448,260.069v16.093l-8.3-16.093H559v27.07h8V271.416l8.115,15.722H586.28v-27.07Z" transform="translate(-419.93 -248.437)" fill="#e31f0e"/>
  <path id="Path_3009" data-name="Path 3009" d="M606.646,287.126h9.012l-9.95-27.05h-13.1l-9.961,27.05H591.7l1.952-5.41h11.006ZM595.9,275.5l3.213-8.788,3.213,8.788Z" transform="translate(-410.482 -248.434)" fill="#e31f0e"/>
  <path id="Path_3010" data-name="Path 3010" d="M630.381,274.362c3.662,0,6.181-3.223,6.181-7.138a6.942,6.942,0,0,0-6.669-7.148h-19.53v27.05h9.071v-8.79h7.676v8.79h9.473v-6.075C636.572,277.36,634.053,274.362,630.381,274.362Zm-10.956-2.226v-5.518H627.1v5.547Z" transform="translate(-399.414 -248.434)" fill="#e31f0e"/>
  <path id="Path_3011" data-name="Path 3011" d="M654.628,260.076H635.673v27.05h18.955a6.69,6.69,0,0,0,6.669-6.661V266.736A6.689,6.689,0,0,0,654.628,260.076Zm-2.071,20.37h-8.125V266.775h8.125Z" transform="translate(-389.306 -248.434)" fill="#e31f0e"/>
</svg>
