<svg id="Group_2718" data-name="Group 2718" xmlns="http://www.w3.org/2000/svg" width="190.62" height="70.794" viewBox="0 0 190.62 70.794">
  <path id="Path_2714" data-name="Path 2714" d="M573.817,66.721c20.84,9.945,25.8-2.414,27.831-2.954,2.35-1.462,7.243,9.149,8.609.158.858-5.75-.444-15.5-2.764-19.442-8.577-18.332-51.5-19.062-67.765-16.648-10.865,1.62-11.851,5.5-7.085,6.863,1.842.508,3.844.6,5.75,1.08,6.545,1.588,10.451,4.035,13.152,7.179,5.75,6.577,6.99,15.822,22.272,23.764M605.9,55.348c-7.307-13.057-28.467-20.62-58.616-24.622,38.632-1.08,59.346,6.577,58.616,24.622m-2.764,4c-.984-.094-3.176-.032-3.876.89-5.051,6.894-11.6,7.561-18.394,4.988-25.258-9.563-20.842-25.734-32.977-30.119,27.7,2.066,52.579,13.248,55.247,24.24" transform="translate(-478.252 -26.84)" fill="#a3dbe6"/>
  <path id="Path_2715" data-name="Path 2715" d="M501.57,74.69l-2.384-7.625-2.414,7.625Zm181.756,2.1a4.792,4.792,0,0,1-1.43,3.526,5.434,5.434,0,0,1-4.034,1.556,6.474,6.474,0,0,1-3.368-.986,9.22,9.22,0,0,1-1.238-1.016l1.144-1.144a7.051,7.051,0,0,0,1.016.89,4.463,4.463,0,0,0,2.542.922,3.7,3.7,0,0,0,2.668-.986,3.266,3.266,0,0,0,1.08-2.478,2.792,2.792,0,0,0-2.066-2.668c-1.27-.412-2.573-.794-3.812-1.238a3.451,3.451,0,0,1-2.1-3.368,4.394,4.394,0,0,1,1.3-3.145,4.907,4.907,0,0,1,3.622-1.43,7.242,7.242,0,0,1,2.574.508c.286.1.667.286,1.112.476l-.572,1.272a4.917,4.917,0,0,0-1.018-.446,6.886,6.886,0,0,0-2.223-.444,3.035,3.035,0,0,0-2.416,1.08,2.813,2.813,0,0,0-.826,2c0,1.048.7,1.842,2.066,2.35,1.27.476,2.573.922,3.876,1.366a3.6,3.6,0,0,1,2.1,3.4M670.934,81.68H668.9l-9.817-14.551V81.68h-1.62v-16.2h2.16l9.689,14.455V65.477h1.62v16.2ZM653.08,73.516a6.782,6.782,0,0,0-1.906-4.766,6.386,6.386,0,0,0-4.861-2.128,6.233,6.233,0,0,0-4.734,2.064,6.974,6.974,0,0,0-1.906,4.892,6.866,6.866,0,0,0,1.938,4.893,6.536,6.536,0,0,0,9.595-.062,7.144,7.144,0,0,0,1.874-4.893m1.62.062a8.34,8.34,0,1,1-16.68,0,7.908,7.908,0,0,1,2.414-5.877,8.519,8.519,0,0,1,11.851-.032,7.93,7.93,0,0,1,2.414,5.909m-19.412,8.1h-1.62v-16.2h1.62Zm-3.113-16.2-.382,1.366h-3.558V81.68h-1.62V66.843h-3.749V65.477Zm-10.9,16.2h-1.622v-16.2h1.622Zm-6-8.2a6.475,6.475,0,0,0-1.906-4.7,6.375,6.375,0,0,0-4.766-1.938h-1.176V80.314h1.24a6.362,6.362,0,0,0,4.67-1.938,6.738,6.738,0,0,0,1.938-4.893m1.62.032a8.139,8.139,0,0,1-8.165,8.165h-2.956v-16.2h2.8a8.093,8.093,0,0,1,5.973,2.319,7.676,7.676,0,0,1,2.352,5.72m-13.693,6.8-.414,1.366h-8.1v-16.2h8.483l-.382,1.366h-6.481v5.909h6.1v1.366h-6.1v6.227H603.2ZM591.065,69.988a3.068,3.068,0,0,0-.858-2.319,3.337,3.337,0,0,0-2.382-.826h-2.986V73.1h2.8a3.589,3.589,0,0,0,2.542-.794,3.036,3.036,0,0,0,.889-2.32m1.652-.254A5.157,5.157,0,0,1,591.7,73.07a4.2,4.2,0,0,1-3.431,1.4h-3.464V81.68h-1.62v-16.2H587.7a5.5,5.5,0,0,1,3.685,1.144,3.9,3.9,0,0,1,1.334,3.113M581.693,81.68h-1.938l-4.226-7.054-4.257,7.022h-1.938l5.21-8.356-4.956-7.847h1.938l3.971,6.577,4.036-6.577h1.938l-4.988,7.847Zm-12.867-1.366-.414,1.366h-8.1v-16.2h8.483l-.382,1.366h-6.481v5.909h6.1v1.366h-6.1v6.227h6.895ZM547.953,74.69l-2.382-7.625-2.382,7.625Zm4,6.99h-1.78l-1.842-5.719h-5.591l-1.876,5.719h-1.778l5.591-16.2H546.4Zm-14.678-4.988a4.846,4.846,0,0,1-1.558,3.876,5.949,5.949,0,0,1-4.066,1.3,6.216,6.216,0,0,1-4.066-1.24,4.758,4.758,0,0,1-1.652-3.939V65.477h1.62V76.692a3.67,3.67,0,0,0,1.048,2.8,4,4,0,0,0,2.892.984,4.262,4.262,0,0,0,3.05-1.016,3.735,3.735,0,0,0,1.08-2.8V65.445h1.62V76.692Zm-15.727-3.146a6.871,6.871,0,0,0-1.906-4.829,6.249,6.249,0,0,0-4.765-2.064,6.371,6.371,0,0,0-4.8,2.064,7,7,0,0,0-1.937,4.893,6.864,6.864,0,0,0,1.937,4.893,6.373,6.373,0,0,0,4.8,2.066,6.193,6.193,0,0,0,4.8-2.16,6.863,6.863,0,0,0,1.874-4.862m1.652.032a8.177,8.177,0,0,1-.73,3.3,10.121,10.121,0,0,1-1.4,2.256,4.5,4.5,0,0,1-.73.826l2,1.62-.889,1.144-2.446-1.938a8.05,8.05,0,0,1-4.067,1.08,8.293,8.293,0,0,1-6-2.382,8.368,8.368,0,1,1,14.264-5.91m-17.632,8.1h-1.78l-1.842-5.719h-5.591l-1.874,5.719h-1.78l5.592-16.2h1.715Z" transform="translate(-492.705 -11.934)"/>
</svg>
