<svg id="Group_2721" data-name="Group 2721" xmlns="http://www.w3.org/2000/svg" width="229.048" height="45" viewBox="0 0 229.048 45">
  <path id="Path_2769" data-name="Path 2769" d="M735.63,52.035l-.5,1.985h-5.572l-.038-5.649h4.427V47.187h-4.427V42.454h5.114l.5,1.985.687-.038-.229-3.13H724.866v.84l2.366.344V54.019l-2.328.344h-.038v.84h11.221l.229-3.092Z" transform="translate(-675.591 -34.249)" fill="#004998"/>
  <g id="Group_2720" data-name="Group 2720">
    <path id="Path_2770" data-name="Path 2770" d="M726.965,45.555h-.839l-.115-1.336a6.414,6.414,0,0,0-4.962-2.289c-4.312,0-5.649,2.632-5.649,5.8,0,2.863,2.062,6.908,6.413,6.908,2.4,0,4.046-1.641,5.191-2.938l.648.343a25.351,25.351,0,0,0-1.717,2.977,26.974,26.974,0,0,1-4.237.611c-4.465,0-8.626-1.794-8.626-7.6,0-4.465,3.054-6.985,7.977-6.985a33.213,33.213,0,0,1,5.8.879Z" transform="translate(-680.171 -34.334)" fill="#004998"/>
    <path id="Path_2771" data-name="Path 2771" d="M739.972,55.288h-5.841v-.84l1.946-.343,5.23-13.055h1.755l5.649,13.055,2.062.343v.84h-7.137v-.84l2.4-.343-1.565-3.932h-5.459l-1.526,3.932,2.481.343Zm-.5-6.26H743.9l-2.289-5.3Z" transform="translate(-671.993 -34.334)" fill="#004998"/>
    <path id="Path_2772" data-name="Path 2772" d="M764.129,42.138l-2.443.344v12.71h-.954l-10.191-11.26V54.009l2.4.344v.84h-5.992v-.84l2.4-.344V42.482l-2.443-.344V41.3h4.542L760.5,51.451v-8.97l-2.443-.344V41.3h6.069Z" transform="translate(-667.029 -34.238)" fill="#004998"/>
    <path id="Path_2773" data-name="Path 2773" d="M762.647,42.482l-2.481-.344V41.3h7.214v.84l-2.443.344V54.009l2.443.344v.84H760.2v-.84l2.443-.344Z" transform="translate(-661.883 -34.238)" fill="#004998"/>
    <path id="Path_2774" data-name="Path 2774" d="M772.219,55.288H766.38v-.84l1.946-.343,5.229-13.055h1.756l5.649,13.055,2.06.343v.84h-7.138v-.84l2.4-.343-1.565-3.932h-5.458l-1.527,3.932,2.481.343Zm-.5-6.26h4.429l-2.291-5.3Z" transform="translate(-659.47 -34.334)" fill="#004998"/>
    <path id="Path_2775" data-name="Path 2775" d="M843.526,52.035l-.5,1.985h-5.573V48.37h4.428V47.187h-4.428V42.454h5.076l.5,1.985.687-.076-.229-3.092H832.8v.84l2.328.344V54.019l-2.328.344h0v.84h11.183l.229-3.092Z" transform="translate(-633.676 -34.249)" fill="#004998"/>
    <path id="Path_2776" data-name="Path 2776" d="M796.016,45.528h-.84l-.115-1.336A6.415,6.415,0,0,0,790.1,41.9c-4.312,0-5.61,2.634-5.61,5.8,0,2.863,2.062,6.908,6.413,6.908,2.4,0,4.046-1.641,5.191-2.939l.648.343a25.157,25.157,0,0,0-1.717,2.978,27.144,27.144,0,0,1-4.237.611c-4.465,0-8.626-1.794-8.626-7.6,0-4.466,3.053-6.985,7.978-6.985a33.366,33.366,0,0,1,5.8.877Z" transform="translate(-653.342 -34.345)" fill="#004998"/>
    <path id="Path_2777" data-name="Path 2777" d="M796.534,42.482l-2.442-.344V41.3h6.717c3.474,0,4.848.686,4.848,3.282a4.309,4.309,0,0,1-2.52,3.817l3.168,4.543a5.248,5.248,0,0,0,2.291,1.984l-.306.687c-2.4-.343-3.55-.648-6.146-4.5l-1.336-1.984c-.419.037-1.22.114-1.984.114v4.847l2.518.344v.84H794.13v-.84l2.367-.344v-11.6Zm2.291,5.763c.534.039,1.068.076,1.678.076,1.717,0,2.825-.572,2.825-2.863,0-3.015-1.717-3.321-3.054-3.321-.611,0-.991.039-1.449.076Z" transform="translate(-648.708 -34.238)" fill="#004998"/>
    <path id="Path_2778" data-name="Path 2778" d="M821.635,41.31v.839l-2.176.344V49.4c0,4.2-2.328,6.145-6.489,6.145-4.389,0-6.488-1.6-6.488-5.344V42.493l-2.328-.344V41.31h6.985v.839l-2.328.344v7.367c0,2.366.764,4.5,4.351,4.5,3.053,0,4.5-1.565,4.5-5.077V42.454l-2.367-.343v-.84h6.336Z" transform="translate(-644.801 -34.249)" fill="#004998"/>
    <path id="Path_2779" data-name="Path 2779" d="M820.3,42.482l-2.481-.344V41.3h7.252v.84l-2.443.344V54.009l2.443.344v.84h-7.176v-.84l2.4-.344Z" transform="translate(-639.495 -34.238)" fill="#004998"/>
    <path id="Path_2780" data-name="Path 2780" d="M832.706,44.791c-.192-.991-.611-2.9-3.055-2.9a2.4,2.4,0,0,0-2.518,2.291c0,3.817,7.138,2.595,7.138,7.1,0,2.825-2.328,4.351-4.924,4.351a9.441,9.441,0,0,1-4.312-.993c-.039-.609-.192-2.442-.344-3.4l.726-.115c.153,1.03.5,3.664,3.778,3.664,1.68,0,3.054-.915,3.054-2.518,0-3.587-7.137-2.4-7.137-7.137,0-2.52,2.023-4.084,5-4.084a13.365,13.365,0,0,1,3.131.573,27.892,27.892,0,0,0,.153,3.129Z" transform="translate(-636.826 -34.334)" fill="#004998"/>
    <path id="Path_2781" data-name="Path 2781" d="M850.851,44.791c-.192-.991-.611-2.9-3.054-2.9a2.4,2.4,0,0,0-2.518,2.291c0,3.817,7.138,2.595,7.138,7.1,0,2.825-2.328,4.351-4.925,4.351a9.442,9.442,0,0,1-4.312-.993c-.039-.609-.192-2.442-.344-3.4l.726-.115c.153,1.03.5,3.664,3.778,3.664,1.68,0,3.054-.915,3.054-2.518,0-3.587-7.137-2.4-7.137-7.137,0-2.52,2.023-4.084,5-4.084a13.34,13.34,0,0,1,3.129.573,27.9,27.9,0,0,0,.153,3.129Z" transform="translate(-629.779 -34.334)" fill="#004998"/>
    <path id="Path_2782" data-name="Path 2782" d="M706.73,36.213a10.669,10.669,0,0,0-10.153,7.4,10.175,10.175,0,0,1,3.053.305c.726-3.74,2.825-6.6,7.137-6.6,5.573,0,7.443,4.77,7.443,10.038,0,4.122-1.908,9.084-7.443,9.084-4.5,0-6.6-3.243-7.214-6.679h-.037a12.778,12.778,0,0,1-2.9.192A10.356,10.356,0,0,0,706.73,57.51a10.649,10.649,0,0,0,0-21.3" transform="translate(-686.577 -36.213)" fill="#004998"/>
    <path id="Path_2783" data-name="Path 2783" d="M696.817,42.616a13.2,13.2,0,0,1-7.4.343l-.039.039c1.833,1.794,5.344,2.1,8.436,1.22s5.687-.954,7.443-.38h0c-1.794-1.833-5.306-2.1-8.436-1.222" transform="translate(-689.374 -33.914)" fill="#0075bf"/>
    <path id="Path_2784" data-name="Path 2784" d="M700.666,44.21a13.209,13.209,0,0,1-7.405.344l-.037.037c1.833,1.794,5.344,2.1,8.436,1.222s5.686-.954,7.443-.382h0c-1.794-1.833-5.306-2.1-8.435-1.222" transform="translate(-687.879 -33.295)" fill="#0075bf"/>
    <path id="Path_2785" data-name="Path 2785" d="M724.581,64.057a3.652,3.652,0,0,0-.076-.954l-1.907-5.42a.979.979,0,0,0-1.069-.648h-.421c-.114,0-.151-.039-.114-.153l.076-.382c0-.115.037-.153.19-.153.229,0,.687.037,1.833.037,1.336,0,1.909-.037,2.138-.037.114,0,.19.037.153.153l-.039.382c0,.114-.037.153-.153.153h-.458c-.648,0-.687.419-.572.84l1.641,4.847c.076.229.153.229.267.076.382-.535,3.016-4.275,3.207-4.847.229-.65.037-.955-.65-.955h-.343c-.114,0-.153-.076-.114-.19l.038-.344c0-.114.039-.153.19-.153.229,0,.916.039,1.909.039.954,0,1.488-.039,1.717-.039.153,0,.191.039.191.153l-.039.344c0,.153-.037.19-.153.19h-.343c-.611,0-.916.268-1.374.84-.229.305-3.435,4.809-3.7,5.152a3.146,3.146,0,0,0-.725,1.566l-.419,1.984c-.192.879.114.993.686.993h.535c.115,0,.153.039.115.153l-.039.382c0,.076-.037.153-.19.153-.268,0-.84-.039-2.1-.039-1.451,0-1.985.039-2.175.039-.115,0-.153-.039-.153-.153l.076-.382a.14.14,0,0,1,.153-.153h.5a1,1,0,0,0,1.145-.916Z" transform="translate(-677.1 -28.409)" fill="#004998"/>
    <path id="Path_2786" data-name="Path 2786" d="M727.643,64.827c0-2.214,1.68-5.191,3.969-5.191a1.838,1.838,0,0,1,1.87,2.06c0,1.909-1.526,5.42-4.046,5.42a2.117,2.117,0,0,1-1.794-2.289m5.153-3.435a.9.9,0,0,0-.879-.993c-.725,0-1.679.648-2.518,2.1a5.833,5.833,0,0,0-1.032,2.824.8.8,0,0,0,.8.879c1.831.037,3.626-3.665,3.626-4.809" transform="translate(-674.513 -27.117)" fill="#004998"/>
    <path id="Path_2787" data-name="Path 2787" d="M740.008,59.778c.153,0,.192.037.153.153l-1.336,3.626a16.854,16.854,0,0,0-.725,2.289c0,.153,0,.153.153.229.267,0,1.22-.877,1.373-1.069.039-.037.115-.076.153,0l.192.192c.037.037.037.076,0,.153s-1.68,1.755-2.9,1.755c-.229,0-.343-.19-.343-.419s.877-2.4,1.106-2.977l-.114-.039c-.726,1.069-2.6,3.435-4.314,3.435a.688.688,0,0,1-.648-.725,14.858,14.858,0,0,1,1.259-3.282,12.1,12.1,0,0,0,.878-2.214c0-.153-.114-.229-.267-.229-.305,0-1.184.8-1.374.993a.118.118,0,0,1-.153,0l-.153-.153c-.038-.037-.038-.076,0-.153.115-.153,1.565-1.68,2.71-1.68.343,0,.5.344.5.65a11.642,11.642,0,0,1-1.144,3.015,10.978,10.978,0,0,0-.916,2.518.28.28,0,0,0,.305.305c.916,0,2.786-2.289,3.282-3.015a6.205,6.205,0,0,0,.8-1.488l.611-1.68c.039-.114.115-.114.229-.114h.687Z" transform="translate(-672.527 -27.106)" fill="#004998"/>
    <path id="Path_2788" data-name="Path 2788" d="M739.046,66.9c-.114,0-.19-.076-.153-.153l.993-2.824c.306-.993.84-2.824.84-3.053a.3.3,0,0,0-.305-.268c-.343,0-1.145.8-1.374,1.069a.118.118,0,0,1-.153,0l-.19-.19c-.039-.039-.039-.076,0-.153a3.776,3.776,0,0,1,2.595-1.719c.344,0,.5.305.5.611a13.021,13.021,0,0,1-.65,2.481l.076.039c.458-.993,1.871-3.131,2.863-3.131a.807.807,0,0,1,.153,1.6.483.483,0,0,1-.419-.19.515.515,0,0,0-.458-.192c-.458,0-1.451,1.488-2.138,2.673a7.593,7.593,0,0,0-.686,1.526l-.573,1.756c-.037.114-.076.114-.229.114Z" transform="translate(-670.229 -27.128)" fill="#004998"/>
    <path id="Path_2789" data-name="Path 2789" d="M748.863,65.563c-.038.19.076.229.268.037.267-.267,4.618-6.374,4.809-6.6a2.96,2.96,0,0,0,.572-1.449.514.514,0,0,0-.534-.5h-.305c-.114,0-.153-.037-.153-.114l.076-.421c0-.114.039-.153.192-.153.19,0,.648.039,1.488.039.993,0,1.451-.039,1.641-.039.115,0,.19.039.153.192l-.076.343c-.038.115-.076.153-.19.153h-.382c-.382,0-.534.192-.611.879l-.916,7.709c-.039.229.037.267.19.153a38.936,38.936,0,0,0,2.634-4.084,38.265,38.265,0,0,0,2.023-3.7c.192-.5.153-.954-.343-.954h-.267c-.076,0-.115-.037-.115-.153l.077-.343a.181.181,0,0,1,.192-.192c.228,0,.648.039,1.488.039.954,0,1.412-.039,1.679-.039.115,0,.192.076.153.192l-.076.343a.139.139,0,0,1-.153.153h-.305a1.225,1.225,0,0,0-1.03.5c-.229.305-2.786,4.618-3.245,5.3-.5.8-2.863,4.351-3.625,5.228-.153.192-.382.458-.573.458-.229,0-.305-.229-.267-.535l.84-7.823c.038-.229-.076-.268-.229-.115-.192.229-5.383,7.367-6.031,8.091-.191.192-.344.421-.611.421-.19,0-.229-.229-.153-.764l1.565-9.771c.115-.611,0-.916-.572-.916h-.344c-.153,0-.19-.037-.19-.19l.076-.344c0-.076.037-.153.19-.153.192,0,.879.039,1.8.039,1.068,0,1.755-.039,1.947-.039.153,0,.19.039.19.192l-.076.343c0,.076-.038.153-.19.153h-.382c-.611,0-.8.229-.916.993Z" transform="translate(-666.954 -28.388)" fill="#004998"/>
    <path id="Path_2790" data-name="Path 2790" d="M756.235,64.827c0-2.214,1.68-5.191,3.969-5.191a1.839,1.839,0,0,1,1.87,2.06c0,1.909-1.526,5.42-4.046,5.42a2.117,2.117,0,0,1-1.794-2.289m5.152-3.435a.894.894,0,0,0-.877-.993c-.725,0-1.68.648-2.518,2.1a5.833,5.833,0,0,0-1.032,2.824.8.8,0,0,0,.8.879c1.831.037,3.625-3.665,3.625-4.809" transform="translate(-663.409 -27.117)" fill="#004998"/>
    <path id="Path_2791" data-name="Path 2791" d="M761.535,66.9c-.115,0-.192-.076-.153-.153l.993-2.824c.305-.993.84-2.824.84-3.053a.3.3,0,0,0-.305-.268c-.344,0-1.145.8-1.374,1.069a.118.118,0,0,1-.153,0l-.19-.19c-.039-.039-.039-.076,0-.153a3.773,3.773,0,0,1,2.595-1.719c.343,0,.5.305.5.611a12.976,12.976,0,0,1-.648,2.481l.076.039c.458-.993,1.87-3.131,2.863-3.131a.807.807,0,0,1,.153,1.6.488.488,0,0,1-.421-.19.51.51,0,0,0-.457-.192c-.458,0-1.451,1.488-2.138,2.673a7.668,7.668,0,0,0-.687,1.526l-.572,1.756c-.039.114-.076.114-.229.114Z" transform="translate(-661.496 -27.128)" fill="#004998"/>
    <path id="Path_2792" data-name="Path 2792" d="M769.285,58.044c.266-.648.229-1.107-.267-1.107h-.535c-.115,0-.153-.076-.115-.153l.115-.305c.037-.115.076-.115.19-.115h2.175c.153,0,.192.115.153.268l-3.626,9.274c-.153.421-.572,1.374-.229,1.374.268,0,1.069-.687,1.3-.916.076-.076.115-.037.153,0l.192.229a.175.175,0,0,1,0,.192c-.077.153-1.719,1.641-2.825,1.641-.229,0-.382-.115-.382-.5a10.249,10.249,0,0,1,.65-1.908Z" transform="translate(-659.78 -28.388)" fill="#004998"/>
    <path id="Path_2793" data-name="Path 2793" d="M775.413,56.948c-.153,0-.153-.076-.153-.115l.114-.382c0-.076.039-.114.192-.114H777.7a.223.223,0,0,1,.228.305c-.267.611-3.319,8.816-3.625,9.848-.153.535-.192.8.076.8.305,0,1.144-.8,1.22-.916a.174.174,0,0,1,.192,0l.19.192a.166.166,0,0,1,0,.19c-.114.153-1.641,1.565-2.557,1.565-.266,0-.458-.076-.458-.419a12.53,12.53,0,0,1,.763-2.52l-.153-.037c-.839,1.374-2.518,2.977-3.7,2.977a1.072,1.072,0,0,1-1.108-1.144,8.078,8.078,0,0,1,2.4-4.886,4.344,4.344,0,0,1,2.749-1.413,1.448,1.448,0,0,1,1.107.573l1.335-3.817c.115-.344.039-.687-.419-.687Zm-2.062,8.13a5.286,5.286,0,0,0,1.145-2.443c0-.84-.382-1.145-.916-1.145-1.641,0-3.511,3.817-3.511,5.459a.526.526,0,0,0,.5.572c.763-.076,2.1-1.488,2.786-2.442" transform="translate(-658.541 -28.398)" fill="#004998"/>
    <path id="Path_2794" data-name="Path 2794" d="M774.517,64.566a.92.92,0,0,1,.916-.916.953.953,0,0,1,.993.916,1,1,0,0,1-.993.954.938.938,0,0,1-.916-.954" transform="translate(-656.31 -25.558)" fill="#004998"/>
    <path id="Path_2795" data-name="Path 2795" d="M783.663,64.057a3.783,3.783,0,0,0-.076-.954l-1.909-5.42a.978.978,0,0,0-1.068-.648h-.421c-.114,0-.153-.039-.114-.153l.076-.382c0-.115.038-.153.19-.153.229,0,.687.037,1.833.037,1.336,0,1.908-.037,2.137-.037.115,0,.192.037.153.153l-.037.382c0,.114-.039.153-.153.153h-.458c-.65,0-.687.419-.573.84l1.642,4.847c.076.229.153.229.267.076.382-.535,3.015-4.275,3.206-4.847.229-.65.039-.955-.648-.955h-.343c-.115,0-.153-.076-.115-.19l.039-.344c0-.114.037-.153.229-.153.229,0,.915.039,1.908.039.955,0,1.488-.039,1.717-.039.153,0,.192.039.192.153l-.039.344c0,.153-.038.19-.153.19H790.8c-.611,0-.916.268-1.375.84-.229.305-3.435,4.809-3.7,5.152A3.157,3.157,0,0,0,785,64.554l-.419,1.984c-.192.879.114.993.687.993h.533c.115,0,.153.039.115.153l-.039.382c0,.076-.038.153-.19.153-.267,0-.84-.039-2.1-.039-1.451,0-1.985.039-2.176.039-.115,0-.153-.039-.153-.153l.076-.382a.139.139,0,0,1,.153-.153h.5a1,1,0,0,0,1.145-.916Z" transform="translate(-654.157 -28.409)" fill="#004998"/>
    <path id="Path_2796" data-name="Path 2796" d="M786.724,64.827c0-2.214,1.678-5.191,3.969-5.191a1.839,1.839,0,0,1,1.87,2.06c0,1.909-1.527,5.42-4.046,5.42a2.089,2.089,0,0,1-1.794-2.289m5.152-3.435A.894.894,0,0,0,791,60.4c-.725,0-1.68.648-2.52,2.1a5.829,5.829,0,0,0-1.03,2.824.8.8,0,0,0,.8.879c1.833.037,3.626-3.665,3.626-4.809" transform="translate(-651.569 -27.117)" fill="#004998"/>
    <path id="Path_2797" data-name="Path 2797" d="M799.061,59.778c.153,0,.192.037.153.153l-1.336,3.626a17.11,17.11,0,0,0-.725,2.289c0,.153,0,.153.153.229.267,0,1.22-.877,1.373-1.069.039-.037.115-.076.153,0l.192.192c.038.037.038.076,0,.153s-1.68,1.755-2.9,1.755c-.229,0-.343-.19-.343-.419s.877-2.4,1.107-2.977l-.114-.039c-.726,1.069-2.6,3.435-4.314,3.435a.688.688,0,0,1-.648-.725,14.856,14.856,0,0,1,1.259-3.282,10.989,10.989,0,0,0,.84-2.214c0-.153-.115-.229-.268-.229-.306,0-1.183.8-1.373.993a.118.118,0,0,1-.153,0l-.153-.153c-.039-.037-.039-.076,0-.153.114-.153,1.565-1.68,2.71-1.68.343,0,.5.344.5.65a11.607,11.607,0,0,1-1.145,3.015,10.956,10.956,0,0,0-.915,2.518.28.28,0,0,0,.3.305c.916,0,2.786-2.289,3.283-3.015a6.259,6.259,0,0,0,.8-1.488l.611-1.68c.037-.114.114-.114.229-.114h.725Z" transform="translate(-649.594 -27.106)" fill="#004998"/>
    <path id="Path_2798" data-name="Path 2798" d="M798.1,66.9c-.115,0-.192-.076-.153-.153l.991-2.824c.306-.993.84-2.824.84-3.053a.3.3,0,0,0-.306-.268c-.343,0-1.145.8-1.373,1.069a.118.118,0,0,1-.153,0l-.192-.19c-.037-.039-.037-.076,0-.153a3.776,3.776,0,0,1,2.6-1.719c.343,0,.5.305.5.611A12.977,12.977,0,0,1,800.2,62.7l.076.039c.457-.993,1.87-3.131,2.861-3.131a.807.807,0,0,1,.153,1.6.485.485,0,0,1-.419-.19.514.514,0,0,0-.458-.192c-.458,0-1.451,1.488-2.137,2.673a5.865,5.865,0,0,0-.687,1.526l-.573,1.756c-.037.114-.077.114-.229.114Z" transform="translate(-647.296 -27.128)" fill="#004998"/>
    <path id="Path_2799" data-name="Path 2799" d="M807.933,65.563c-.039.19.076.229.267.037.268-.267,4.619-6.374,4.809-6.6a2.953,2.953,0,0,0,.573-1.449.515.515,0,0,0-.534-.5h-.306c-.115,0-.153-.037-.153-.114l.076-.421c0-.114.037-.153.229-.153s.648.039,1.488.039c.993,0,1.451-.039,1.641-.039.115,0,.192.039.153.192l-.076.343c-.037.115-.076.153-.19.153h-.382c-.382,0-.535.192-.611.879L814,65.639c-.037.229.039.267.192.153a38.913,38.913,0,0,0,2.632-4.084,38.359,38.359,0,0,0,2.024-3.7c.19-.5.153-.954-.344-.954h-.266c-.076,0-.115-.037-.115-.153l.076-.343a.181.181,0,0,1,.192-.192c.229,0,.648.039,1.488.039.954,0,1.412-.039,1.68-.039.114,0,.19.076.151.192l-.075.343a.14.14,0,0,1-.153.153h-.305a1.225,1.225,0,0,0-1.031.5c-.229.305-2.786,4.618-3.245,5.3-.5.8-2.861,4.351-3.625,5.228-.153.192-.382.458-.573.458-.229,0-.305-.229-.266-.535l.84-7.823c.037-.229-.076-.268-.229-.115-.192.229-5.383,7.367-6.031,8.091-.19.192-.343.421-.611.421-.19,0-.229-.229-.153-.764l1.565-9.771c.115-.611,0-.916-.572-.916h-.419c-.153,0-.192-.037-.192-.19l.076-.344c0-.076.039-.153.229-.153s.877.039,1.794.039c1.069,0,1.756-.039,1.946-.039.153,0,.192.039.192.192l-.076.343c0,.076-.039.153-.192.153h-.382c-.611,0-.8.229-.915.993Z" transform="translate(-643.999 -28.388)" fill="#004998"/>
    <path id="Path_2800" data-name="Path 2800" d="M822.159,59.608c.077,0,.077.076.039.153-.344.726-1.222,3.131-1.3,3.4-.114.305-.84,2.481-.84,2.634s.077.229.192.229c.229,0,1.106-.916,1.22-1.069.039-.037.115-.076.153-.037l.153.19c.039.039.076.076.039.153-.192.344-1.717,1.833-2.71,1.833-.229,0-.382-.076-.382-.305a14.859,14.859,0,0,1,.84-2.673l-.076-.037c-.726,1.106-2.52,2.977-3.74,2.977a1.01,1.01,0,0,1-.955-1.107c0-2.557,2.863-6.336,5-6.336a1.344,1.344,0,0,1,1.259.611l.343-.458a.211.211,0,0,1,.192-.114h.572Zm-2.213,3.054a3.5,3.5,0,0,0,.419-1.451c0-.458-.19-1.03-.84-1.03-1.6,0-3.474,3.7-3.474,5.344,0,.419.192.611.458.611.916,0,3.131-2.825,3.436-3.474" transform="translate(-640.669 -27.128)" fill="#004998"/>
    <path id="Path_2801" data-name="Path 2801" d="M821.339,62.128c-.039,0-.039-.076,0-.153.114-.192,1.03-2.367,2.1-2.367.533,0,.725.421.877,1.985.19,1.985.306,4.046.343,5.191h.076a25.183,25.183,0,0,0,1.794-3.7,4.992,4.992,0,0,0,.268-1.527,3.418,3.418,0,0,0-.076-.648,1.635,1.635,0,0,1-.192-.611.64.64,0,0,1,.726-.648c.458,0,.687.419.687.877a9.762,9.762,0,0,1-1.184,3.7,25.469,25.469,0,0,1-4.122,6.3c-.458.5-1.641,1.6-2.671,1.6-.687,0-.993-.421-.993-.84a.776.776,0,0,1,.687-.725.917.917,0,0,1,.648.267.77.77,0,0,0,.421.229,1.656,1.656,0,0,0,.839-.382,6.313,6.313,0,0,0,1.909-2.366,2.428,2.428,0,0,0,.153-.993c-.037-.421-.382-5.154-.572-6.068-.076-.344-.153-.5-.305-.5-.305,0-.879,1.03-1.031,1.412a.1.1,0,0,1-.153.039Z" transform="translate(-639.046 -27.128)" fill="#004998"/>
    <path id="Path_2802" data-name="Path 2802" d="M825.653,64.566a.919.919,0,0,1,.915-.916.952.952,0,0,1,.993.916,1,1,0,0,1-.993.954.914.914,0,0,1-.915-.954" transform="translate(-636.452 -25.558)" fill="#004998"/>
    <path id="Path_2803" data-name="Path 2803" d="M724.581,64.057a3.652,3.652,0,0,0-.076-.954l-1.907-5.42a.979.979,0,0,0-1.069-.648h-.421c-.114,0-.151-.039-.114-.153l.076-.382c0-.115.037-.153.19-.153.229,0,.687.037,1.833.037,1.336,0,1.909-.037,2.138-.037.114,0,.19.037.153.153l-.039.382c0,.114-.037.153-.153.153h-.458c-.648,0-.687.419-.572.84l1.641,4.847c.076.229.153.229.267.076.382-.535,3.016-4.275,3.207-4.847.229-.65.037-.955-.65-.955h-.343c-.114,0-.153-.076-.114-.19l.038-.344c0-.114.039-.153.19-.153.229,0,.916.039,1.909.039.954,0,1.488-.039,1.717-.039.153,0,.191.039.191.153l-.039.344c0,.153-.037.19-.153.19h-.343c-.611,0-.916.268-1.374.84-.229.305-3.435,4.809-3.7,5.152a3.146,3.146,0,0,0-.725,1.566l-.419,1.984c-.192.879.114.993.686.993h.535c.115,0,.153.039.115.153l-.039.382c0,.076-.037.153-.19.153-.268,0-.84-.039-2.1-.039-1.451,0-1.985.039-2.175.039-.115,0-.153-.039-.153-.153l.076-.382a.14.14,0,0,1,.153-.153h.5a1,1,0,0,0,1.145-.916Z" transform="translate(-677.1 -28.409)" fill="#004998"/>
    <path id="Path_2804" data-name="Path 2804" d="M727.643,64.827c0-2.214,1.68-5.191,3.969-5.191a1.838,1.838,0,0,1,1.87,2.06c0,1.909-1.526,5.42-4.046,5.42a2.117,2.117,0,0,1-1.794-2.289m5.153-3.435a.9.9,0,0,0-.879-.993c-.725,0-1.679.648-2.518,2.1a5.833,5.833,0,0,0-1.032,2.824.8.8,0,0,0,.8.879c1.831.037,3.626-3.665,3.626-4.809" transform="translate(-674.513 -27.117)" fill="#004998"/>
    <path id="Path_2805" data-name="Path 2805" d="M740.008,59.778c.153,0,.192.037.153.153l-1.336,3.626a16.854,16.854,0,0,0-.725,2.289c0,.153,0,.153.153.229.267,0,1.22-.877,1.373-1.069.039-.037.115-.076.153,0l.192.192c.037.037.037.076,0,.153s-1.68,1.755-2.9,1.755c-.229,0-.343-.19-.343-.419s.877-2.4,1.106-2.977l-.114-.039c-.726,1.069-2.6,3.435-4.314,3.435a.688.688,0,0,1-.648-.725,14.858,14.858,0,0,1,1.259-3.282,12.1,12.1,0,0,0,.878-2.214c0-.153-.114-.229-.267-.229-.305,0-1.184.8-1.374.993a.118.118,0,0,1-.153,0l-.153-.153c-.038-.037-.038-.076,0-.153.115-.153,1.565-1.68,2.71-1.68.343,0,.5.344.5.65a11.642,11.642,0,0,1-1.144,3.015,10.978,10.978,0,0,0-.916,2.518.28.28,0,0,0,.305.305c.916,0,2.786-2.289,3.282-3.015a6.205,6.205,0,0,0,.8-1.488l.611-1.68c.039-.114.115-.114.229-.114h.687Z" transform="translate(-672.527 -27.106)" fill="#004998"/>
    <path id="Path_2806" data-name="Path 2806" d="M739.046,66.9c-.114,0-.19-.076-.153-.153l.993-2.824c.306-.993.84-2.824.84-3.053a.3.3,0,0,0-.305-.268c-.343,0-1.145.8-1.374,1.069a.118.118,0,0,1-.153,0l-.19-.19c-.039-.039-.039-.076,0-.153a3.776,3.776,0,0,1,2.595-1.719c.344,0,.5.305.5.611a13.021,13.021,0,0,1-.65,2.481l.076.039c.458-.993,1.871-3.131,2.863-3.131a.807.807,0,0,1,.153,1.6.483.483,0,0,1-.419-.19.515.515,0,0,0-.458-.192c-.458,0-1.451,1.488-2.138,2.673a7.593,7.593,0,0,0-.686,1.526l-.573,1.756c-.037.114-.076.114-.229.114Z" transform="translate(-670.229 -27.128)" fill="#004998"/>
    <path id="Path_2807" data-name="Path 2807" d="M748.863,65.563c-.038.19.076.229.268.037.267-.267,4.618-6.374,4.809-6.6a2.96,2.96,0,0,0,.572-1.449.514.514,0,0,0-.534-.5h-.305c-.114,0-.153-.037-.153-.114l.076-.421c0-.114.039-.153.192-.153.19,0,.648.039,1.488.039.993,0,1.451-.039,1.641-.039.115,0,.19.039.153.192l-.076.343c-.038.115-.076.153-.19.153h-.382c-.382,0-.534.192-.611.879l-.916,7.709c-.039.229.037.267.19.153a38.936,38.936,0,0,0,2.634-4.084,38.265,38.265,0,0,0,2.023-3.7c.192-.5.153-.954-.343-.954h-.267c-.076,0-.115-.037-.115-.153l.077-.343a.181.181,0,0,1,.192-.192c.228,0,.648.039,1.488.039.954,0,1.412-.039,1.679-.039.115,0,.192.076.153.192l-.076.343a.139.139,0,0,1-.153.153h-.305a1.225,1.225,0,0,0-1.03.5c-.229.305-2.786,4.618-3.245,5.3-.5.8-2.863,4.351-3.625,5.228-.153.192-.382.458-.573.458-.229,0-.305-.229-.267-.535l.84-7.823c.038-.229-.076-.268-.229-.115-.192.229-5.383,7.367-6.031,8.091-.191.192-.344.421-.611.421-.19,0-.229-.229-.153-.764l1.565-9.771c.115-.611,0-.916-.572-.916h-.344c-.153,0-.19-.037-.19-.19l.076-.344c0-.076.037-.153.19-.153.192,0,.879.039,1.8.039,1.068,0,1.755-.039,1.947-.039.153,0,.19.039.19.192l-.076.343c0,.076-.038.153-.19.153h-.382c-.611,0-.8.229-.916.993Z" transform="translate(-666.954 -28.388)" fill="#004998"/>
    <path id="Path_2808" data-name="Path 2808" d="M756.235,64.827c0-2.214,1.68-5.191,3.969-5.191a1.839,1.839,0,0,1,1.87,2.06c0,1.909-1.526,5.42-4.046,5.42a2.117,2.117,0,0,1-1.794-2.289m5.152-3.435a.894.894,0,0,0-.877-.993c-.725,0-1.68.648-2.518,2.1a5.833,5.833,0,0,0-1.032,2.824.8.8,0,0,0,.8.879c1.831.037,3.625-3.665,3.625-4.809" transform="translate(-663.409 -27.117)" fill="#004998"/>
    <path id="Path_2809" data-name="Path 2809" d="M761.535,66.9c-.115,0-.192-.076-.153-.153l.993-2.824c.305-.993.84-2.824.84-3.053a.3.3,0,0,0-.305-.268c-.344,0-1.145.8-1.374,1.069a.118.118,0,0,1-.153,0l-.19-.19c-.039-.039-.039-.076,0-.153a3.773,3.773,0,0,1,2.595-1.719c.343,0,.5.305.5.611a12.976,12.976,0,0,1-.648,2.481l.076.039c.458-.993,1.87-3.131,2.863-3.131a.807.807,0,0,1,.153,1.6.488.488,0,0,1-.421-.19.51.51,0,0,0-.457-.192c-.458,0-1.451,1.488-2.138,2.673a7.668,7.668,0,0,0-.687,1.526l-.572,1.756c-.039.114-.076.114-.229.114Z" transform="translate(-661.496 -27.128)" fill="#004998"/>
    <path id="Path_2810" data-name="Path 2810" d="M769.285,58.044c.266-.648.229-1.107-.267-1.107h-.535c-.115,0-.153-.076-.115-.153l.115-.305c.037-.115.076-.115.19-.115h2.175c.153,0,.192.115.153.268l-3.626,9.274c-.153.421-.572,1.374-.229,1.374.268,0,1.069-.687,1.3-.916.076-.076.115-.037.153,0l.192.229a.175.175,0,0,1,0,.192c-.077.153-1.719,1.641-2.825,1.641-.229,0-.382-.115-.382-.5a10.249,10.249,0,0,1,.65-1.908Z" transform="translate(-659.78 -28.388)" fill="#004998"/>
    <path id="Path_2811" data-name="Path 2811" d="M775.413,56.948c-.153,0-.153-.076-.153-.115l.114-.382c0-.076.039-.114.192-.114H777.7a.223.223,0,0,1,.228.305c-.267.611-3.319,8.816-3.625,9.848-.153.535-.192.8.076.8.305,0,1.144-.8,1.22-.916a.174.174,0,0,1,.192,0l.19.192a.166.166,0,0,1,0,.19c-.114.153-1.641,1.565-2.557,1.565-.266,0-.458-.076-.458-.419a12.53,12.53,0,0,1,.763-2.52l-.153-.037c-.839,1.374-2.518,2.977-3.7,2.977a1.072,1.072,0,0,1-1.108-1.144,8.078,8.078,0,0,1,2.4-4.886,4.344,4.344,0,0,1,2.749-1.413,1.448,1.448,0,0,1,1.107.573l1.335-3.817c.115-.344.039-.687-.419-.687Zm-2.062,8.13a5.286,5.286,0,0,0,1.145-2.443c0-.84-.382-1.145-.916-1.145-1.641,0-3.511,3.817-3.511,5.459a.526.526,0,0,0,.5.572c.763-.076,2.1-1.488,2.786-2.442" transform="translate(-658.541 -28.398)" fill="#004998"/>
    <path id="Path_2812" data-name="Path 2812" d="M774.517,64.566a.92.92,0,0,1,.916-.916.953.953,0,0,1,.993.916,1,1,0,0,1-.993.954.938.938,0,0,1-.916-.954" transform="translate(-656.31 -25.558)" fill="#004998"/>
    <path id="Path_2813" data-name="Path 2813" d="M783.663,64.057a3.783,3.783,0,0,0-.076-.954l-1.909-5.42a.978.978,0,0,0-1.068-.648h-.421c-.114,0-.153-.039-.114-.153l.076-.382c0-.115.038-.153.19-.153.229,0,.687.037,1.833.037,1.336,0,1.908-.037,2.137-.037.115,0,.192.037.153.153l-.037.382c0,.114-.039.153-.153.153h-.458c-.65,0-.687.419-.573.84l1.642,4.847c.076.229.153.229.267.076.382-.535,3.015-4.275,3.206-4.847.229-.65.039-.955-.648-.955h-.343c-.115,0-.153-.076-.115-.19l.039-.344c0-.114.037-.153.229-.153.229,0,.915.039,1.908.039.955,0,1.488-.039,1.717-.039.153,0,.192.039.192.153l-.039.344c0,.153-.038.19-.153.19H790.8c-.611,0-.916.268-1.375.84-.229.305-3.435,4.809-3.7,5.152A3.157,3.157,0,0,0,785,64.554l-.419,1.984c-.192.879.114.993.687.993h.533c.115,0,.153.039.115.153l-.039.382c0,.076-.038.153-.19.153-.267,0-.84-.039-2.1-.039-1.451,0-1.985.039-2.176.039-.115,0-.153-.039-.153-.153l.076-.382a.139.139,0,0,1,.153-.153h.5a1,1,0,0,0,1.145-.916Z" transform="translate(-654.157 -28.409)" fill="#004998"/>
    <path id="Path_2814" data-name="Path 2814" d="M786.724,64.827c0-2.214,1.678-5.191,3.969-5.191a1.839,1.839,0,0,1,1.87,2.06c0,1.909-1.527,5.42-4.046,5.42a2.089,2.089,0,0,1-1.794-2.289m5.152-3.435A.894.894,0,0,0,791,60.4c-.725,0-1.68.648-2.52,2.1a5.829,5.829,0,0,0-1.03,2.824.8.8,0,0,0,.8.879c1.833.037,3.626-3.665,3.626-4.809" transform="translate(-651.569 -27.117)" fill="#004998"/>
    <path id="Path_2815" data-name="Path 2815" d="M799.061,59.778c.153,0,.192.037.153.153l-1.336,3.626a17.11,17.11,0,0,0-.725,2.289c0,.153,0,.153.153.229.267,0,1.22-.877,1.373-1.069.039-.037.115-.076.153,0l.192.192c.038.037.038.076,0,.153s-1.68,1.755-2.9,1.755c-.229,0-.343-.19-.343-.419s.877-2.4,1.107-2.977l-.114-.039c-.726,1.069-2.6,3.435-4.314,3.435a.688.688,0,0,1-.648-.725,14.856,14.856,0,0,1,1.259-3.282,10.989,10.989,0,0,0,.84-2.214c0-.153-.115-.229-.268-.229-.306,0-1.183.8-1.373.993a.118.118,0,0,1-.153,0l-.153-.153c-.039-.037-.039-.076,0-.153.114-.153,1.565-1.68,2.71-1.68.343,0,.5.344.5.65a11.607,11.607,0,0,1-1.145,3.015,10.956,10.956,0,0,0-.915,2.518.28.28,0,0,0,.3.305c.916,0,2.786-2.289,3.283-3.015a6.259,6.259,0,0,0,.8-1.488l.611-1.68c.037-.114.114-.114.229-.114h.725Z" transform="translate(-649.594 -27.106)" fill="#004998"/>
    <path id="Path_2816" data-name="Path 2816" d="M798.1,66.9c-.115,0-.192-.076-.153-.153l.991-2.824c.306-.993.84-2.824.84-3.053a.3.3,0,0,0-.306-.268c-.343,0-1.145.8-1.373,1.069a.118.118,0,0,1-.153,0l-.192-.19c-.037-.039-.037-.076,0-.153a3.776,3.776,0,0,1,2.6-1.719c.343,0,.5.305.5.611A12.977,12.977,0,0,1,800.2,62.7l.076.039c.457-.993,1.87-3.131,2.861-3.131a.807.807,0,0,1,.153,1.6.485.485,0,0,1-.419-.19.514.514,0,0,0-.458-.192c-.458,0-1.451,1.488-2.137,2.673a5.865,5.865,0,0,0-.687,1.526l-.573,1.756c-.037.114-.077.114-.229.114Z" transform="translate(-647.296 -27.128)" fill="#004998"/>
    <path id="Path_2817" data-name="Path 2817" d="M807.933,65.563c-.039.19.076.229.267.037.268-.267,4.619-6.374,4.809-6.6a2.953,2.953,0,0,0,.573-1.449.515.515,0,0,0-.534-.5h-.306c-.115,0-.153-.037-.153-.114l.076-.421c0-.114.037-.153.229-.153s.648.039,1.488.039c.993,0,1.451-.039,1.641-.039.115,0,.192.039.153.192l-.076.343c-.037.115-.076.153-.19.153h-.382c-.382,0-.535.192-.611.879L814,65.639c-.037.229.039.267.192.153a38.913,38.913,0,0,0,2.632-4.084,38.359,38.359,0,0,0,2.024-3.7c.19-.5.153-.954-.344-.954h-.266c-.076,0-.115-.037-.115-.153l.076-.343a.181.181,0,0,1,.192-.192c.229,0,.648.039,1.488.039.954,0,1.412-.039,1.68-.039.114,0,.19.076.151.192l-.075.343a.14.14,0,0,1-.153.153h-.305a1.225,1.225,0,0,0-1.031.5c-.229.305-2.786,4.618-3.245,5.3-.5.8-2.861,4.351-3.625,5.228-.153.192-.382.458-.573.458-.229,0-.305-.229-.266-.535l.84-7.823c.037-.229-.076-.268-.229-.115-.192.229-5.383,7.367-6.031,8.091-.19.192-.343.421-.611.421-.19,0-.229-.229-.153-.764l1.565-9.771c.115-.611,0-.916-.572-.916h-.419c-.153,0-.192-.037-.192-.19l.076-.344c0-.076.039-.153.229-.153s.877.039,1.794.039c1.069,0,1.756-.039,1.946-.039.153,0,.192.039.192.192l-.076.343c0,.076-.039.153-.192.153h-.382c-.611,0-.8.229-.915.993Z" transform="translate(-643.999 -28.388)" fill="#004998"/>
    <path id="Path_2818" data-name="Path 2818" d="M822.159,59.608c.077,0,.077.076.039.153-.344.726-1.222,3.131-1.3,3.4-.114.305-.84,2.481-.84,2.634s.077.229.192.229c.229,0,1.106-.916,1.22-1.069.039-.037.115-.076.153-.037l.153.19c.039.039.076.076.039.153-.192.344-1.717,1.833-2.71,1.833-.229,0-.382-.076-.382-.305a14.859,14.859,0,0,1,.84-2.673l-.076-.037c-.726,1.106-2.52,2.977-3.74,2.977a1.01,1.01,0,0,1-.955-1.107c0-2.557,2.863-6.336,5-6.336a1.344,1.344,0,0,1,1.259.611l.343-.458a.211.211,0,0,1,.192-.114h.572Zm-2.213,3.054a3.5,3.5,0,0,0,.419-1.451c0-.458-.19-1.03-.84-1.03-1.6,0-3.474,3.7-3.474,5.344,0,.419.192.611.458.611.916,0,3.131-2.825,3.436-3.474" transform="translate(-640.669 -27.128)" fill="#004998"/>
    <path id="Path_2819" data-name="Path 2819" d="M821.339,62.128c-.039,0-.039-.076,0-.153.114-.192,1.03-2.367,2.1-2.367.533,0,.725.421.877,1.985.19,1.985.306,4.046.343,5.191h.076a25.183,25.183,0,0,0,1.794-3.7,4.992,4.992,0,0,0,.268-1.527,3.418,3.418,0,0,0-.076-.648,1.635,1.635,0,0,1-.192-.611.64.64,0,0,1,.726-.648c.458,0,.687.419.687.877a9.762,9.762,0,0,1-1.184,3.7,25.469,25.469,0,0,1-4.122,6.3c-.458.5-1.641,1.6-2.671,1.6-.687,0-.993-.421-.993-.84a.776.776,0,0,1,.687-.725.917.917,0,0,1,.648.267.77.77,0,0,0,.421.229,1.656,1.656,0,0,0,.839-.382,6.313,6.313,0,0,0,1.909-2.366,2.428,2.428,0,0,0,.153-.993c-.037-.421-.382-5.154-.572-6.068-.076-.344-.153-.5-.305-.5-.305,0-.879,1.03-1.031,1.412a.1.1,0,0,1-.153.039Z" transform="translate(-639.046 -27.128)" fill="#004998"/>
    <path id="Path_2820" data-name="Path 2820" d="M825.653,64.566a.919.919,0,0,1,.915-.916.952.952,0,0,1,.993.916,1,1,0,0,1-.993.954.914.914,0,0,1-.915-.954" transform="translate(-636.452 -25.558)" fill="#004998"/>
    <path id="Path_2821" data-name="Path 2821" d="M832.216,60.408a2.446,2.446,0,0,1-4.886,0,2.444,2.444,0,0,1,4.886,0m-.458,0a1.941,1.941,0,0,0-1.985-2.023,2.023,2.023,0,1,0,1.985,2.023m-2.863-.421v-.609c0-.115-.076-.192-.229-.192h-.076c-.039,0-.039,0-.039-.037v-.115c0-.037,0-.037.039-.037s.419.037.5.037.611-.037.687-.037a1.325,1.325,0,0,1,.8.229.556.556,0,0,1,.192.458.782.782,0,0,1-.687.762v.039a.516.516,0,0,1,.153.114c.039.076.267.382.343.5a4.114,4.114,0,0,0,.344.419.411.411,0,0,0,.305.076c.038,0,.038,0,.038.039v.114c0,.039,0,.039-.038.039H830.5a1.234,1.234,0,0,1-.192-.229,2.47,2.47,0,0,1-.267-.458,2.36,2.36,0,0,0-.268-.382.32.32,0,0,0-.267-.153h-.153v.877c0,.076.038.153.114.153h.153c.039,0,.039,0,.039.039v.114c0,.039,0,.039-.039.039h-1.03c-.039,0-.039,0-.039-.039v-.076c0-.037,0-.037.039-.037h.076a.2.2,0,0,0,.229-.229Zm.5.344h.268a.635.635,0,0,0,.687-.611c0-.153-.076-.343-.192-.382a.88.88,0,0,0-.535-.153h-.19v1.145Z" transform="translate(-635.8 -27.736)" fill="#004998"/>
    <path id="Path_2822" data-name="Path 2822" d="M855.721,43.473a2.446,2.446,0,0,1-4.886,0,2.35,2.35,0,0,1,2.443-2.367,2.284,2.284,0,0,1,2.442,2.367m-.457,0a1.941,1.941,0,0,0-1.985-2.023,1.913,1.913,0,0,0-1.985,2.023,1.986,1.986,0,1,0,3.971,0m-2.863-.458V42.4c0-.115-.076-.192-.229-.192H852.1c-.039,0-.039,0-.039-.037V42.06c0-.037,0-.037.039-.037s.419.037.5.037.611-.037.687-.037a1.328,1.328,0,0,1,.8.229.556.556,0,0,1,.192.458.785.785,0,0,1-.687.764v.037a.538.538,0,0,1,.153.115c.038.076.267.382.343.5a3.953,3.953,0,0,0,.344.419.411.411,0,0,0,.306.076c.037,0,.037,0,.037.039v.114c0,.039,0,.039-.037.039H854a1.23,1.23,0,0,1-.19-.229,2.428,2.428,0,0,1-.268-.458,2.27,2.27,0,0,0-.267-.382.323.323,0,0,0-.268-.153h-.151v.877a.139.139,0,0,0,.151.153h.153c.039,0,.039,0,.039.039v.114c0,.039,0,.039-.039.039h-1.03c-.038,0-.038,0-.038-.039v-.076c0-.037,0-.037.038-.037h.076a.2.2,0,0,0,.229-.229V43.015Zm.5.382h.267a.634.634,0,0,0,.687-.611c0-.153-.076-.344-.19-.382a.873.873,0,0,0-.535-.153h-.19V43.4Z" transform="translate(-626.673 -34.313)" fill="#004998"/>
  </g>
</svg>
