<svg id="g866" xmlns="http://www.w3.org/2000/svg" width="102.443" height="70.538" viewBox="0 0 102.443 70.538">
  <path id="path6" d="M991.543,110.577a6.18,6.18,0,0,0-1.3,3.764v11.818a4.426,4.426,0,0,1-.956,2.437c-.308.308-2.129,1.944-2.283,2.129l1.018.031c.339-.31,3.857-3.426,4.2-3.857a6.046,6.046,0,0,0,1.6-4.073V111.472a4.359,4.359,0,0,1,1.2-3.117c.433-.462,1.79-1.6,2.037-1.882l-1.08-.031C995.77,106.72,991.913,110.207,991.543,110.577Z" transform="translate(-934.058 -106.411)" fill="#d71a21"/>
  <path id="path8" d="M983.948,145.672l4.29,3.734h2.87a10.393,10.393,0,0,0,7.344-3.024,8.851,8.851,0,0,0,2.406-6.357v-6.14a4.987,4.987,0,0,0-1.666-3.641c-.185-.185-1.451-1.388-1.451-1.388v4.721s1.388,1.419,1.636,1.7c1.264,1.357,1.264,3.826-2.778,7.745a8.205,8.205,0,0,1-5.491,2.592Z" transform="translate(-935.134 -98.524)" fill="#d71a21"/>
  <path id="path10" d="M999.977,124.478a4.779,4.779,0,0,0-.925,2.839v2.314h2.344a3.541,3.541,0,0,0,2.377-1.265v-2.314a5.688,5.688,0,0,0,1.265,1.328c.246-.308,2.406-2.9,4.2-2.931,2.993-.031,2.314,3.764,1.11,4.967-.4.4-2.159,2.006-2.715,2.531-1.419,1.357-3.857.71-3.857-2.777,0,0-2.592,2.469-2.993,2.808s-1.728,1.759-1.728,1.759v6.14a5.987,5.987,0,0,1-1.759,4.813c-.31.339-3.611,3.364-4.073,3.7l-1.08.031s1.944-1.759,2.314-2.16a4.2,4.2,0,0,0,.956-2.931c0-.4-.061-9.627-.061-9.627H980.292c-5.247,0-6.357-5.8-6.388-7.375V120.5a3.91,3.91,0,0,0-1.574-3.055h1.48c.185.062,1.111.433,1.111,4.012,0,0-.062,4.134-.062,4.381,0,1.82,1.451,3.888,3.518,3.888l17.032-.031a6.364,6.364,0,0,1,1.3-3.117c.462-.525,4.135-3.857,4.535-4.2h1.08c-.154.154-1.944,1.729-2.314,2.16h0Zm5.586,3.488a15.041,15.041,0,0,0,1.449,1.7c1.852,1.48,2.716-.123,1.482-1.79C1008,127.194,1006.118,127.379,1005.563,127.966Z" transform="translate(-939.222 -102.54)" fill="#d71a21"/>
  <path id="path12" d="M984.855,134.276c0,.833-2.623,3.024-2.778,3.147-.184-.895-.864-1.851-2.808-3.826l2.87-2.87C984.083,132.671,984.855,133.1,984.855,134.276Z" transform="translate(-936.78 -97.865)" fill="#d71a21"/>
  <path id="path14" d="M991.1,109.845c.587.585,1.821,2.129,1.08,2.9-.648.649-1.666,1.7-1.666,1.7-.062-.37-1.019-1.3-1.019-1.3v3.116c-.031,1.265-.493,1.6-.493,1.6a8.3,8.3,0,0,1,2.314,5.245v3.024a2.061,2.061,0,0,1-.587,1.543c-.215.247-2.344,2.408-2.683,2.685a2.491,2.491,0,0,1-1.759.648h-7.992c-1.265,0-2.56-.987-2.56-1.974,0-.247.031-2.963.031-2.963a2.208,2.208,0,0,0,1.82,1.019,2.88,2.88,0,0,0,1.821-.864c.216-.247,6.047-6.3,6.047-6.3a48.942,48.942,0,0,0-4.5-3.733,1.558,1.558,0,0,0-2.221.925,20.116,20.116,0,0,0,0,6.048l-2.191-2.191a3.018,3.018,0,0,1,.216-3.949,5.776,5.776,0,0,1,3.826-1.975h3.178c2.129,0,4.475,2.129,4.475,2.129a1.375,1.375,0,0,0,.339-.741c0-1.11-.031-4.042-.031-4.042-1.6-1.6-1.821-3.27-1.049-4.042,1.449-1.449,1.974-1.944,1.974-1.944a4.981,4.981,0,0,0,1.636,3.426Zm-10.028,16.044a6.958,6.958,0,0,1-1.666,1.482h9.009c2.439,0,1.944-1.511,1.513-2.283a33.441,33.441,0,0,0-3.734-4.473s-4.968,5.121-5.122,5.275Z" transform="translate(-938.025 -106.419)" fill="#d71a21"/>
  <path id="path16" d="M972.466,126.893h-1.482a3.527,3.527,0,0,1,1.574,3.116V137.2c0,4.66,3.857,8.979,8.548,8.979h3.918a5.639,5.639,0,0,0,4.6-1.821,20.118,20.118,0,0,0,1.451-1.511,5.058,5.058,0,0,0,1.7-4.073v-2.346a4.317,4.317,0,0,0-1.759-3.455c-.37-.37-1.357-1.326-1.357-1.326v4.813s.987,1.049,1.419,1.388c2.036,1.6.431,4.381-1.482,4.381h-8.609a7.628,7.628,0,0,1-7.435-7.5v-3.888c.03-3.949-1.08-3.949-1.08-3.949Z" transform="translate(-939.696 -99.214)" fill="#d71a21"/>
  <path id="path18" d="M980.518,134.3c0,.833-2.623,3.024-2.777,3.147-.185-.895-.864-1.852-2.808-3.826l2.869-2.87C979.716,132.663,980.518,133.1,980.518,134.3Z" transform="translate(-938.306 -97.857)" fill="#d71a21"/>
  <path id="path20" d="M959.966,161.552h-4.628c-1.451,0-1.328-1.2-1.482-2.221v-6.6s1.018-.031,2.16-.031a8.291,8.291,0,0,1,4.413.68,4.7,4.7,0,0,0-4.413-2.685h-2.129v-2.129a5.4,5.4,0,0,0-.462-2.377h3.054c2.623,0,4.66-.03,6.789,1.359,0,0-.4-3.486-5.493-3.486H947.84a5.869,5.869,0,0,1,1.667,4.473l.062,12.035c0,3.023,1.2,3.116,1.2,3.116h9.781a2.7,2.7,0,0,0,2.993-2.437l.031-1.142S962.868,161.552,959.966,161.552Z" transform="translate(-947.84 -93.175)" fill="#d71a21"/>
  <path id="path22" d="M981.76,159.514V151.09c0-3.272-2.654-4.135-4.658-4.135a4.039,4.039,0,0,0-3.765,2.962,4.419,4.419,0,0,0-4.319-2.962,4.179,4.179,0,0,0-3.981,3.024s-.061-2.931-2.623-2.931h-2.5s1.451.585,1.451,3.116v9.35c0,3.085,1.234,3.147,1.234,3.147h4.135a3.958,3.958,0,0,1-1.574-3.178v-8.3a2.339,2.339,0,0,1,2.438-1.6,2.278,2.278,0,0,1,2.1,2.222v7.714c0,3.116,1.234,3.147,1.234,3.147h4.134a4.007,4.007,0,0,1-1.574-3.178v-8.3a2.328,2.328,0,0,1,4.536.649v7.683c.031,3.147,1.234,3.116,1.234,3.116H983.4a3.95,3.95,0,0,1-1.636-3.116Z" transform="translate(-943.591 -92.155)" fill="#d71a21"/>
  <path id="path24" d="M982.78,159.5a3.947,3.947,0,0,0,1.574,3.147H980.22s-1.265.031-1.265-3.116v-9.412c0-2.469-1.419-3.116-1.419-3.116h2.5c.894,0,2.715,0,2.715,3.487v8.948h0Z" transform="translate(-937.391 -92.139)" fill="#d71a21"/>
  <path id="path26" d="M993.55,148.2a2.064,2.064,0,0,0-2.1-1.111c-2.591,0-3.208,3.086-3.208,3.086-.216-2.437-.864-3.147-2.685-3.147h-2.5s1.451.585,1.451,3.116v9.35c0,3.085,1.234,3.147,1.234,3.147h4.134a3.947,3.947,0,0,1-1.573-3.147v-7.683a2.216,2.216,0,0,1,1.019-1.575,3.244,3.244,0,0,1,4.288.618Z" transform="translate(-935.447 -92.13)" fill="#d71a21"/>
  <path id="path28" d="M1006.974,149.684a5.117,5.117,0,0,1,2.437.616v-2.344h-3.455v-3.58a13.344,13.344,0,0,1-2.777,3.116,24.8,24.8,0,0,1-3.642,2.16l2.624.031v10.861c0,3.024,1.264,3.024,1.264,3.024h4.1a3.893,3.893,0,0,1-1.6-3.055v-10.83Z" transform="translate(-929.648 -93.062)" fill="#d71a21"/>
  <path id="path30" d="M1016.891,153.489c-2.314,2.406-4.135,2.036-5.585,3.826,0,0,.246,2.408,2.067,3.24a3.576,3.576,0,0,0,4.813-1.636v2.531s-1.049,1.234-4.411,1.234c-4.042,0-6.82-3.178-6.82-7.5,0-4.257,2.254-8.176,6.542-8.207C1017.662,146.916,1019.945,150.311,1016.891,153.489Zm-2.531-.987c.679-1.265,1.234-4.475-1.111-4.29-2.715.216-2.19,7.406-2.19,7.406.9-.987,2.252-1.2,3.3-3.116Z" transform="translate(-927.038 -92.147)" fill="#d71a21"/>
  <path id="path32" d="M980.5,147.068a1.883,1.883,0,1,0-1.913-1.882,1.91,1.91,0,0,0,1.913,1.882Z" transform="translate(-937.021 -93.44)" fill="#d71a21"/>
  <path id="path34" d="M995.283,160.856a1.857,1.857,0,0,1-1.6-1.975c0-3.888,3.178-4.442,4.042-5.462v6.573a2.974,2.974,0,0,1-2.438.864Zm2.438-8.948c-.956,1.667-8.424,2.036-7.281,7.807.462,2.283,1.974,2.962,3.888,2.962a3.706,3.706,0,0,0,3.456-1.883c.277,1.729,1.172,1.852,1.172,1.852h4.136a3.914,3.914,0,0,1-1.6-3.116v-8.794c0-2.1-2.314-3.734-4.783-3.734a6.588,6.588,0,0,0-3.857,1.141v2.716a3.491,3.491,0,0,1,2.993-2.16c2.1,0,2.252,1.049,2.252,1.574a2.786,2.786,0,0,1-.37,1.636Z" transform="translate(-932.892 -92.139)" fill="#d71a21"/>
  <path id="path36" d="M1022.644,158.4a2.754,2.754,0,0,1-3.055,2.562,3.515,3.515,0,0,1-3.024-2.191v2.777a7.315,7.315,0,0,0,3.919,1.111c2.808,0,5.678-2.129,5.616-5.122a4.761,4.761,0,0,0-.956-2.716,14.522,14.522,0,0,0-4.042-2.992,2.54,2.54,0,0,1-1.173-1.6c-.031-.525.247-1.574,2.315-1.574,2.036,0,2.931,2.159,2.931,2.159v-2.623a6.885,6.885,0,0,0-3.949-1.234c-2.469,0-4.721,1.636-4.66,3.734a4.925,4.925,0,0,0,2.314,4.165,18.753,18.753,0,0,0,2.129,1.328,2.689,2.689,0,0,1,1.636,2.221Z" transform="translate(-923.657 -92.155)" fill="#d71a21"/>
</svg>
