<svg id="Group_2746" data-name="Group 2746" xmlns="http://www.w3.org/2000/svg" width="170.974" height="26.331" viewBox="0 0 170.974 26.331">
  <path id="Path_2875" data-name="Path 2875" d="M90.467,235.848,75.2,228.5V212.322Zm1.214,2.8L75.2,231.695v6.959Z" transform="translate(-58.717 -212.322)" fill="#98002e"/>
  <path id="Path_2876" data-name="Path 2876" d="M63.892,235.848,79.16,212.322V228.5l-15.268,7.352" transform="translate(-62.678 -212.322)" fill="#e31837"/>
  <path id="Path_2877" data-name="Path 2877" d="M62.993,233.626H79.475v-6.959l-16.482,6.959" transform="translate(-62.993 -207.296)" fill="#e31837"/>
  <path id="Path_2878" data-name="Path 2878" d="M88.67,228.25a1.086,1.086,0,1,1-1.076,1.094h0A1.076,1.076,0,0,1,88.67,228.25Zm0,2a.924.924,0,1,0-.922-.924h0a.92.92,0,0,0,.922.924Zm-.239-.292h-.154v-1.248h.479c.29,0,.393.12.393.342a.34.34,0,0,1-.308.359l.377.547h-.172l-.377-.547h-.221Zm0-.7h.205c.172,0,.359-.016.359-.221,0-.154-.154-.205-.274-.205h-.273v.427Z" transform="translate(-54.373 -206.741)" fill="#98002e"/>
  <g id="Group_2745" data-name="Group 2745" transform="translate(45.838 2.463)">
    <path id="Path_2879" data-name="Path 2879" d="M96.938,235.187h7.4c7.626,0,12.156-3.95,12.156-10.5s-4.531-10.48-12.156-10.48h-7.4Zm4.684-17.336h2.718c4.941,0,7.42,2.444,7.42,6.838s-2.479,6.84-7.42,6.84h-2.718Z" transform="translate(-96.938 -214.124)" fill="#003d79"/>
    <path id="Path_2880" data-name="Path 2880" d="M124.442,226.092h8.908V222.45h-8.908v-4.6h10.07v-3.642H119.74v20.978h15.1v-3.642h-10.4Z" transform="translate(-88.949 -214.124)" fill="#003d79"/>
    <path id="Path_2881" data-name="Path 2881" d="M154.264,231.546h-9.045V214.209h-4.7v20.978h13.746Z" transform="translate(-81.669 -214.124)" fill="#003d79"/>
    <path id="Path_2882" data-name="Path 2882" d="M174.32,214.209H155.5v3.642h7.044v17.337h4.719V217.851h7.061Z" transform="translate(-76.421 -214.124)" fill="#003d79"/>
    <path id="Path_2883" data-name="Path 2883" d="M195.346,235.209h-4.907l-2.051-5.249h-8.532l-2.051,5.249h-4.583l8.772-21.063h4.736Zm-8.293-8.771-2.924-7.454-2.941,7.454Z" transform="translate(-70.21 -214.146)" fill="#003d79"/>
  </g>
</svg>
