<svg id="Group_2620" data-name="Group 2620" xmlns="http://www.w3.org/2000/svg" width="189.653" height="38.304" viewBox="0 0 189.653 38.304">
  <path id="Path_2606" data-name="Path 2606" d="M502.269,228.714c2.325,1.483,4.728,1.6,5.468,2.977.741-1.379,3.143-1.494,5.481-2.977a5.2,5.2,0,0,0,2.773-4.421,5.851,5.851,0,0,0-2.773-4.6,5.588,5.588,0,0,1,1.7,3.73c0,1.917-1.06,3.731-4,4.959-1.432.6-2.644.8-3.169,1.43-.523-.626-1.737-.83-3.169-1.43-2.939-1.227-4-3.042-4-4.959a5.6,5.6,0,0,1,1.7-3.73,5.819,5.819,0,0,0-2.773,4.6,5.157,5.157,0,0,0,2.761,4.421m2.656-1.5c1.113.639,2.313.857,2.824,1.394.511-.537,1.713-.742,2.811-1.394a4.8,4.8,0,0,0,2.39-3.462c.511-3.347-1.662-5.7-3.232-9.237a34,34,0,0,1-1.968-6.95,33.1,33.1,0,0,1-1.967,6.95c-1.572,3.527-3.757,5.878-3.232,9.237a4.751,4.751,0,0,0,2.375,3.462m2.824-3.359a1.533,1.533,0,1,1-1.533,1.533,1.529,1.529,0,0,1,1.533-1.533m12.828,17.326c-.473-1.214-.677-2.109-1.111-3.182-1.955-4.753-5.533-5.021-7.6-4.638a6.286,6.286,0,0,0-4.126,2.569,6.243,6.243,0,0,0-4.127-2.569c-2.07-.383-5.647-.115-7.59,4.638-.434,1.061-.652,1.955-1.125,3.182a5.32,5.32,0,0,1-1.929,2.8,6.971,6.971,0,0,1-2.632.792,11.721,11.721,0,0,0,9.954-.038,10.131,10.131,0,0,0,4.778-6.235,3.75,3.75,0,0,1,.946-1.61,2.137,2.137,0,0,1,.8-.485,2.736,2.736,0,0,1,.933-.166,2.517,2.517,0,0,1,.933.166,2.137,2.137,0,0,1,.8.485,3.752,3.752,0,0,1,.946,1.61,10.161,10.161,0,0,0,4.779,6.235,11.67,11.67,0,0,0,9.953.038,6.979,6.979,0,0,1-2.632-.792,5.156,5.156,0,0,1-1.955-2.8m-16.956-6.236a3.043,3.043,0,0,0-1.89.41.792.792,0,0,0-.307.945.689.689,0,0,0,.907.358.572.572,0,0,0,.357-.741.5.5,0,0,0-.357-.32,1.1,1.1,0,0,1,.881,1.572,1.489,1.489,0,0,1-1.1.881,1.956,1.956,0,0,1-2.337-1.24,1.87,1.87,0,0,1,.856-2.159c1.814-1.24,5.316-.345,6.72,1.584a6.248,6.248,0,0,0-3.731-1.291M515.7,236.84a1.962,1.962,0,0,1-2.325,1.24,1.519,1.519,0,0,1-1.1-.881,1.1,1.1,0,0,1,.881-1.572.5.5,0,0,0-.358.32.584.584,0,0,0,.358.741.7.7,0,0,0,.919-.358.786.786,0,0,0-.305-.945,3.065,3.065,0,0,0-1.891-.41,6.281,6.281,0,0,0-3.743,1.317c1.392-1.929,4.906-2.824,6.72-1.584a1.852,1.852,0,0,1,.844,2.133m7.257-17.005c-3.577.319-4.983,2.466-5.686,5.481-.983,4.268-4.011,5.187-6.465,6.134-2.517.971-3.066,2.312-3.066,2.312s-.55-1.328-3.067-2.312c-2.452-.946-5.481-1.866-6.465-6.134-.7-3.015-2.1-5.162-5.686-5.481a9.42,9.42,0,0,0-5.494,1.341,3.406,3.406,0,0,1,1.7.6,4.214,4.214,0,0,1,1.61,2.709c.78,3.143,1.5,4.28,2.339,5.251,1.252,1.444,3.756,2.927,8.778,2.671,3.9-.192,5.635,1.392,6.286,2.185.652-.792,2.389-2.39,6.286-2.185,5.021.256,7.525-1.228,8.778-2.671.842-.971,1.559-2.108,2.338-5.251a4.219,4.219,0,0,1,1.61-2.709,3.406,3.406,0,0,1,1.7-.6,9.42,9.42,0,0,0-5.494-1.341" transform="translate(-487.025 -207.569)" fill="#ed1d24" fill-rule="evenodd"/>
  <path id="Path_2607" data-name="Path 2607" d="M536.208,210.2c2.422-.222,4.7.949,5.391,2.967,1.978,5.735-5.815,8.44-8.944,4.806-2.888-3.331-.2-7.41,3.553-7.773m-.807,7.855c4.825,2.2,5.9-7.168.888-6.643-.061.02-.081.1-.081.1-2.746.443-3.392,5.37-.807,6.542" transform="translate(-471.396 -206.653)" fill="#241a16" fill-rule="evenodd"/>
  <path id="Path_2608" data-name="Path 2608" d="M555.948,210.835c-.041.5-.465.646-.525,1.13-2.727-1.232-6-.141-6.1,2.707-.12,2.443,1.918,4.179,4.867,3.492a18.766,18.766,0,0,0,.08-2.866h2.04v3.754c-4.422,2.081-11.125-1.008-8.844-6.016,1.132-2.585,5.351-3.735,8.48-2.2" transform="translate(-465.918 -206.663)" fill="#241a16" fill-rule="evenodd"/>
  <path id="Path_2609" data-name="Path 2609" d="M565.307,210.2c3.372-.3,6.159,1.817,5.572,5.593-.565,3.674-6.359,5.471-9.206,2.1a4.816,4.816,0,0,1,1.6-7.249,5.7,5.7,0,0,1,2.039-.443m-.969,7.794c4.847,2.624,6.259-7.31.969-6.461-2.6.4-3.432,5.107-.969,6.461" transform="translate(-461.123 -206.653)" fill="#241a16" fill-rule="evenodd"/>
  <path id="Path_2610" data-name="Path 2610" d="M585.062,210.838c-.041.5-.445.646-.524,1.13-2.585-1.313-6.058-.02-6.119,2.786-.039,2.221,1.778,4.119,4.867,3.412a18.681,18.681,0,0,0,.1-2.866h2.04v3.835c-3.735,1.05-7.612.364-8.844-2.362-2.1-4.6,4.018-8.218,8.48-5.936" transform="translate(-455.66 -206.666)" fill="#241a16" fill-rule="evenodd"/>
  <path id="Path_2611" data-name="Path 2611" d="M628.712,210.831a1.969,1.969,0,0,1-.868,1.05c-.545-.526-2.725-.89-2.827.362-.1.869,1.151,1.455,1.756,1.918a6.908,6.908,0,0,1,1.939,1.756c1.817,3.312-4,4.806-6.361,2.867.182-.443.566-.666.707-1.13.969.787,3.755,1.292,3.8-.445.061-1.917-4-2.423-4.058-4.7-.081-2.523,3.9-2.907,5.916-1.675" transform="translate(-439.405 -206.659)" fill="#241a16" fill-rule="evenodd"/>
  <path id="Path_2612" data-name="Path 2612" d="M526.516,210.267v3.492h4.241a28.039,28.039,0,0,0,.08-3.492h2.04v9.166h-2.02v-4.361a41.791,41.791,0,0,0-4.24-.1c-.2,1.313-.02,3.009-.081,4.463H524.5v-9.166Z" transform="translate(-473.839 -206.62)" fill="#241a16" fill-rule="evenodd"/>
  <path id="Path_2613" data-name="Path 2613" d="M546.83,216.582v-6.3h1.676v9.085c-1.394.526-2.059-.626-2.746-1.392-1.394-1.6-2.867-3.473-4.16-4.806v6.2a6.31,6.31,0,0,1-1.675.081v-9.166c1.453-.323,2.039.665,2.746,1.474,1.392,1.616,2.807,3.453,4.158,4.825" transform="translate(-468.41 -206.636)" fill="#241a16" fill-rule="evenodd"/>
  <path id="Path_2614" data-name="Path 2614" d="M554.92,210.267h2.12V214.1c1.152-1.01,2.5-2.6,3.715-3.835H562.9c-1.232,1.413-2.544,2.725-3.9,4.018,1.414,1.776,3.028,3.351,4.523,5.067a8.96,8.96,0,0,1-2.4.081c-.787-.222-1.494-1.616-2.039-2.262-.768-.909-1.474-1.614-2.04-2.26v4.542h-2.12v-9.186Z" transform="translate(-463.133 -206.62)" fill="#241a16" fill-rule="evenodd"/>
  <path id="Path_2615" data-name="Path 2615" d="M575.968,216.582v-6.3h1.7v9.085c-1.394.526-2.039-.626-2.746-1.392-1.394-1.575-2.888-3.473-4.16-4.806v6.2a6.419,6.419,0,0,1-1.7.081v-9.166c1.474-.323,2.039.685,2.766,1.474,1.372,1.616,2.766,3.453,4.138,4.825" transform="translate(-458.156 -206.636)" fill="#241a16" fill-rule="evenodd"/>
  <path id="Path_2616" data-name="Path 2616" d="M592.124,210.267c1.191,3.109,2.484,6.1,3.8,9.085a11.09,11.09,0,0,1-2.221.081c-.343-.827-.666-1.676-.949-2.544h-3.634c-.465.788-.748,1.717-1.172,2.544h-1.675c1.393-3.069,2.746-6.2,4.24-9.166Zm-2.564,5.491h2.725c-.4-1.171-.848-2.3-1.311-3.412-.485,1.13-1.01,2.221-1.414,3.412" transform="translate(-452.102 -206.62)" fill="#241a16" fill-rule="evenodd"/>
  <rect id="Rectangle_244" data-name="Rectangle 244" width="2.039" height="9.166" transform="translate(144.262 3.647)" fill="#241a16"/>
  <path id="Path_2617" data-name="Path 2617" d="M601.633,215.263c.746,1.413,1.978,2.805,2.543,4.1h-2.3c-.949-1.069-1.514-2.524-2.382-3.674h-.89a31.033,31.033,0,0,0-.08,3.674h-2.04v-9.085c3.251-.041,6.905-.384,7.007,2.362a2.687,2.687,0,0,1-1.857,2.625m-3.109-3.776v3.048c3.512.929,3.774-4.079,0-3.048" transform="translate(-448.507 -206.629)" fill="#241a16" fill-rule="evenodd"/>
  <path id="Path_2618" data-name="Path 2618" d="M604.536,210.272v7.853a33.644,33.644,0,0,0,4.079.081v1.211h-6.1v-9.166h2.018Z" transform="translate(-446.384 -206.625)" fill="#241a16" fill-rule="evenodd"/>
  <rect id="Rectangle_245" data-name="Rectangle 245" width="2.039" height="9.166" transform="translate(162.756 3.647)" fill="#241a16"/>
  <path id="Path_2619" data-name="Path 2619" d="M617.074,216.587v-6.3h1.6v9.166c-1.433.323-1.978-.687-2.665-1.474-1.394-1.616-2.847-3.392-4.16-4.806-.222,1.918-.02,4.221-.1,6.28h-1.6v-9.166c1.575-.4,1.978.767,2.664,1.555,1.394,1.614,2.969,3.291,4.26,4.744" transform="translate(-443.698 -206.641)" fill="#241a16" fill-rule="evenodd"/>
  <path id="Path_2620" data-name="Path 2620" d="M623.279,210.278v1.211h-3.534v2.443a27.541,27.541,0,0,0,3.453.081v1.232h-3.453v2.866a27.873,27.873,0,0,0,3.715.081V219.4h-5.754v-9.166h5.573Z" transform="translate(-441.039 -206.63)" fill="#241a16" fill-rule="evenodd"/>
  <path id="Path_2621" data-name="Path 2621" d="M559.113,224.385c-1.534.362-3.372.464-5.047.685-.2.162-.041.666-.081.949,1.939.2,4.28.041,6.359.1v1.392H556a7.274,7.274,0,0,0,4.521,2c-.181.606-.545.99-.706,1.575a12.813,12.813,0,0,1-1.333-.425v6.278H556.71c-.02-.242.061-.565-.1-.687h-6.723c-.282.02-.161.445-.181.687H547.93c.2-1.9.041-4.158.081-6.2-.524.041-.787.323-1.333.343a13.2,13.2,0,0,0-.807-1.394,11.962,11.962,0,0,0,4.522-2.179h-4.34v-1.392h6.015c.222-.182.02-.727.081-1.05-1.494.142-3.169.081-4.784.081-.061-.525-.3-.929-.343-1.474a44.833,44.833,0,0,0,11.061-.787c.667-.122.849,1.191,1.03,1.494m-5.128,5.651a20.915,20.915,0,0,0,3.008-.08,7.816,7.816,0,0,1-2.927-2.181,10.337,10.337,0,0,0-.081,2.26m-4.419,0h2.644a10.87,10.87,0,0,0-.081-2.179,11.052,11.052,0,0,1-2.563,2.179m.161,1.494v.868h6.984v-.969c-2.4-.019-4.541.162-6.984.1m.1,2.281c-.2.182-.02.727-.081,1.05h6.984v-1.05Z" transform="translate(-466.318 -202.18)" fill="#241a16" fill-rule="evenodd"/>
  <path id="Path_2622" data-name="Path 2622" d="M567.814,223.023h1.675V224.5a13.164,13.164,0,0,0,2.4.1v-1.575h1.675V224.5a14,14,0,0,0,2.483.1v1.311h-2.382c-.183.283-.041.888-.081,1.313h2.746v1.413h-2.664a5.229,5.229,0,0,0,2.927,2.179c-.2.585-.606.969-.807,1.555a18.263,18.263,0,0,1-2.2-1.494v2.886h-4.8a1.282,1.282,0,0,0,.1,1.211c1.615-.041,3.472.1,4.945-.08.445-.384.4-1.232.445-2a10.059,10.059,0,0,1,1.856.606c-.283,1.313-.161,2.766-1.856,2.967-1.474.183-5.753.3-6.622-.181-1.514-.807-.3-2.967-.706-4.622-.424.181-.727.484-1.15.685a4.08,4.08,0,0,1-1.071-1.392,5.96,5.96,0,0,0,3.028-2.26c-.868.12-1.534-.182-2.12,0-.646.2-.726,1.029-1.232,1.311-.848-.443-1.392-1.171-2.3-1.574.283-.465.687-.829.969-1.313a20.284,20.284,0,0,1,2.482,1.494V227.2h2.221c.2-.242.02-.848.081-1.232H565.9a.517.517,0,0,1-.08-.445c-.282-.1-.445.606-.808.707-.847-.484-1.392-1.292-2.382-1.655a3.493,3.493,0,0,1,1.232-1.313,4.473,4.473,0,0,0,3.916,1.313c.161-.343-.02-1.071.041-1.555m1.675,4.179h2.4V225.97h-2.4Zm-.423,2.624h3.269c-.121-.5-.5-.768-.706-1.211-1.514-.242-2.341.181-2.563,1.211m-.364,2.523h3.088v-1.211H568.7Z" transform="translate(-460.606 -202.131)" fill="#241a16" fill-rule="evenodd"/>
  <path id="Path_2623" data-name="Path 2623" d="M600.471,223.184a11.236,11.236,0,0,1,2.221-.1c.161.4.464.665.545,1.13h5.673v3.331H606.97v-1.756c-3.088-.2-6.58-.02-9.83-.081v1.837h-1.878v-3.331h5.652c.122-.262-.283-.767-.445-1.03" transform="translate(-448.937 -202.111)" fill="#241a16" fill-rule="evenodd"/>
  <path id="Path_2624" data-name="Path 2624" d="M583.323,223.157a2.629,2.629,0,0,1-.262,1.211,5.3,5.3,0,0,0,2.039,0c-.081,2.685.4,7.994.1,10.819-.182,1.453-1.152,1.534-2.927,1.414-.02-.585-.284-.888-.264-1.494a6.41,6.41,0,0,0,1.414.08c.4-1.25.059-3.23.181-4.8h-2.3c-.262,2.26-.323,4.723-1.232,6.378a6.718,6.718,0,0,1-1.413-.969,12.251,12.251,0,0,0,.969-5.309c-.142-.2-.667-.02-.969-.08v-1.313h.969V224.47a6.42,6.42,0,0,0,1.7-.081,4.49,4.49,0,0,0,.364-1.211h1.634Zm-2.14,5.915h2.4v-3.309h-2.4Z" transform="translate(-454.779 -202.084)" fill="#241a16" fill-rule="evenodd"/>
  <path id="Path_2625" data-name="Path 2625" d="M585.554,223.157h1.857a10.124,10.124,0,0,1,.626,1.656h2.846v1.494h-7.266v-1.494H586.1a14.515,14.515,0,0,0-.546-1.656" transform="translate(-453.035 -202.084)" fill="#241a16" fill-rule="evenodd"/>
  <path id="Path_2626" data-name="Path 2626" d="M580.661,225.574a15.647,15.647,0,0,1,.625,2.282,5.728,5.728,0,0,0,1.414-.262c-.182-.768-.465-1.474-.707-2.181-.545-.041-.807.2-1.332.161" transform="translate(-454.075 -201.291)" fill="#241a16" fill-rule="evenodd"/>
  <path id="Path_2627" data-name="Path 2627" d="M601.681,225.958c-1.071,2.079-3.109,3.189-5.833,3.674a10.581,10.581,0,0,0-.809-1.394c2.079-.5,4.077-1.09,4.866-2.886a4.52,4.52,0,0,1,1.776.606" transform="translate(-449.016 -201.311)" fill="#241a16" fill-rule="evenodd"/>
  <path id="Path_2628" data-name="Path 2628" d="M581.993,225.413c.242.707.524,1.413.707,2.181a5.728,5.728,0,0,1-1.414.262,15.647,15.647,0,0,0-.625-2.282c.525.041.787-.2,1.332-.161" transform="translate(-454.075 -201.291)" fill="#241a16" fill-rule="evenodd"/>
  <path id="Path_2629" data-name="Path 2629" d="M602.775,225.415a8.363,8.363,0,0,0,.081,1.917c1.09.384,2.866.081,4.258.182.183.343.041,1.009.081,1.474-3.411-.061-7.267.908-6.278-3.472a6.861,6.861,0,0,1,1.857-.1" transform="translate(-447.002 -201.293)" fill="#241a16" fill-rule="evenodd"/>
  <path id="Path_2630" data-name="Path 2630" d="M589.3,226.251c0,1.9-.02,4.138,0,6.2,0,.565-.2,1.372.362,1.655.585-.665.323-2.523.264-3.572.585.059.927.362,1.493.423-.222,1.352.343,2.725-.08,3.754s-2.644,1.394-3.451.445c-1.191-1.374.181-5.41-.343-7.327-.183-.2-.748-.041-1.071-.081.081,3.209-.181,6.055-1.513,7.872a10.635,10.635,0,0,1-1.414-1.049c1.313-1.857,1.313-4.986,1.252-8.215a41.1,41.1,0,0,1,4.5-.1" transform="translate(-453.061 -200.999)" fill="#241a16" fill-rule="evenodd"/>
  <path id="Path_2631" data-name="Path 2631" d="M607.839,228.9v1.494h-4.6a11.9,11.9,0,0,0-.1,2.443c1.917.181,4.218.019,6.3.08v1.494H594.92v-1.494h6.116a13.606,13.606,0,0,0,.1-2.442h-4.522c-.061-.465.122-1.171-.1-1.494,3.614-.2,7.59-.02,11.325-.081" transform="translate(-449.058 -200.071)" fill="#241a16" fill-rule="evenodd"/>
  <path id="Path_2632" data-name="Path 2632" d="M582.7,231.549c-.545.02-.848.283-1.414.262-.141-.868-.423-1.615-.625-2.443.283-.2.787-.161,1.069-.343.646.526.726,1.6.969,2.524" transform="translate(-454.075 -200.019)" fill="#241a16" fill-rule="evenodd"/>
  <path id="Path_2633" data-name="Path 2633" d="M564,229.219c.565.264.948.687,1.494.969a9.609,9.609,0,0,1-2.2,4.36c-.3-.545-.908-.807-1.15-1.392A10.947,10.947,0,0,0,564,229.219" transform="translate(-460.591 -199.951)" fill="#241a16" fill-rule="evenodd"/>
</svg>
