<svg id="Group_2621" data-name="Group 2621" xmlns="http://www.w3.org/2000/svg" width="277.312" height="37.35" viewBox="0 0 277.312 37.35">
  <path id="Path_2634" data-name="Path 2634" d="M53.175,290.691h1.764v-1.768H56.7v-1.768H54.939v-1.768H53.175v1.768H51.411v1.768h1.764Zm11.468-.442a3.1,3.1,0,1,0,3.086,3.094,3.091,3.091,0,0,0-3.086-3.094M43.471,300.86H64.643v-3.537H43.471Zm3.088-7.517a3.087,3.087,0,1,0-3.088,3.1,3.091,3.091,0,0,0,3.088-3.1m7.94,0a3.088,3.088,0,1,0,3.088-3.094,3.092,3.092,0,0,0-3.088,3.094m-3.971,3.1a3.1,3.1,0,1,0-3.088-3.1,3.092,3.092,0,0,0,3.088,3.1M73.463,304.4l-2.646,7.959L68.17,304.4H59.349v14.148h5.294V307.933l3.527,10.611h5.293l3.528-10.611v10.611h5.293V304.4Zm-24.7,0H43.471v14.148H57.586v-3.568H48.765Zm-7.058,0H36.414L31.123,309.7V304.4H25.829v14.148h5.294v-5.306l5.291,5.306h7.057l-7.938-7.957Z" transform="translate(-25.829 -285.386)" fill="#00a0e3"/>
  <path id="Path_2635" data-name="Path 2635" d="M88.8,313.6a.143.143,0,0,1-.147.147H86.486a.284.284,0,0,1-.3-.188l-2.971-4.532a.271.271,0,0,0-.23-.147H80.374c-.127,0-.169.042-.169.169v4.488c0,.147-.062.21-.189.21H78.161c-.149,0-.189-.062-.189-.21V299.655c0-.17.084-.233.189-.233H83.3c2.758,0,5.078,1.1,5.078,4.488a4.5,4.5,0,0,1-2.846,4.573c.78,1.222,3.245,5.017,3.245,5.017a.177.177,0,0,1,.022.1m-5.879-12.517h-2.57a.167.167,0,0,0-.169.17v5.8c0,.124.043.168.191.168h2.4c2.087,0,3.308-.842,3.308-3.182,0-2.149-1.2-2.951-3.161-2.951" transform="translate(-7.48 -280.447)" fill="#00a0e3"/>
  <path id="Path_2636" data-name="Path 2636" d="M93.271,313.4a5.751,5.751,0,0,1-6.027-6.111c0-4.3,2.613-6.278,6.048-6.278,3.455,0,6.069,1.939,6.069,6.278a5.738,5.738,0,0,1-6.09,6.111m0-10.725c-2.086,0-3.791,1.137-3.791,4.614,0,3.036,1.559,4.321,3.834,4.321s3.854-1.328,3.854-4.321c0-3.5-1.748-4.614-3.9-4.614" transform="translate(-4.218 -279.887)" fill="#00a0e3"/>
  <path id="Path_2637" data-name="Path 2637" d="M105.741,310.519a16.01,16.01,0,0,1-3.454,6.532.372.372,0,0,1-.3.147H100.01a.162.162,0,0,1-.17-.147.335.335,0,0,1,.043-.1c.61-.572,2.317-2.469,2.508-3.584v-.022a.172.172,0,0,0-.169-.189h-1.16a.228.228,0,0,1-.231-.17l-3.857-11.693a.079.079,0,0,0-.019-.043c0-.084.105-.127.21-.127h1.962c.124,0,.188.022.228.149l3.163,9.968a.212.212,0,0,0,.23.166h.445c.084,0,.146-.022.189-.145l2.779-9.989a.211.211,0,0,1,.211-.149h1.876a.147.147,0,0,1,.149.149v.022Z" transform="translate(-0.8 -279.849)" fill="#00a0e3"/>
  <path id="Path_2638" data-name="Path 2638" d="M116.876,312.676c0,.168-.041.251-.251.295-1.6.169-3.939.42-5.1.42-2.36,0-5.143-.758-5.143-4.318,0-3.413,3.266-3.689,5.016-3.689.864,0,2.592.17,3.223.254,0-2.425-1.41-2.846-3.519-2.846-1.117,0-2.15.084-2.928.149h-.062a.193.193,0,0,1-.211-.17l-.211-1.283v-.022c0-.105.084-.17.211-.17a30.7,30.7,0,0,1,3.541-.251c3.266,0,5.435,1.013,5.435,4.277Zm-2.212-5.352c0-.127-.043-.211-.231-.211h-2.846c-1.453,0-2.928.189-2.928,1.96,0,2.085,1.518,2.36,2.823,2.36h2.951c.188,0,.231-.043.231-.211Z" transform="translate(2.517 -279.876)" fill="#00a0e3"/>
  <path id="Path_2639" data-name="Path 2639" d="M118.491,314.289h-1.834c-.127,0-.189-.041-.189-.211V298.315c0-.147.062-.188.189-.21l1.813-.211c.169,0,.21.062.21.211v15.973c0,.149-.041.211-.188.211" transform="translate(6.066 -280.984)" fill="#00a0e3"/>
  <path id="Path_2640" data-name="Path 2640" d="M130.8,313.751h-4.865c-.147,0-.191-.041-.191-.21V299.655c0-.17.065-.233.191-.233h5.163c3.729,0,6.869,1.476,6.869,6.724,0,5.815-3.161,7.6-7.166,7.6m.4-12.665H128.2c-.168,0-.23.084-.23.211v10.5c0,.146.041.21.211.21h3.055c2.486,0,4.467-1.58,4.467-5.541,0-3.919-1.813-5.375-4.51-5.375" transform="translate(9.329 -280.447)" fill="#00a0e3"/>
  <path id="Path_2641" data-name="Path 2641" d="M146.447,312.774a30.647,30.647,0,0,1-4.553.507c-3.581,0-5.477-1.2-5.477-4.806v-7.143a.187.187,0,0,1,.21-.21h1.791c.146,0,.233.062.233.188v7.271c0,2.066.99,2.886,3.139,2.886.8,0,1.728-.062,2.443-.124.13-.022.212-.065.212-.212v-9.82c0-.147.042-.188.211-.188h1.791c.147,0,.231.062.231.188V312.5a.243.243,0,0,1-.231.272" transform="translate(13.086 -279.849)" fill="#00a0e3"/>
  <path id="Path_2642" data-name="Path 2642" d="M152.823,313.768c-.041.127-.105.168-.253.189a17.523,17.523,0,0,1-2.171.192c-2,0-2.886-.887-2.886-3.015v-7.481c0-.149-.064-.211-.212-.211h-1.43c-.147,0-.212-.084-.212-.231V302.2c0-.127.065-.189.212-.189h1.452c.127,0,.191-.065.191-.214v-2.758c0-.149.041-.211.211-.254l1.791-.189c.147,0,.231.062.231.211v2.99c0,.149.043.214.211.214h2.275c.17,0,.211.062.211.211v1.011c0,.126-.041.188-.211.188h-2.275c-.146,0-.211.084-.211.233v6.912c0,1.221.189,1.728,1.77,1.728H152.8c.189,0,.211.084.211.211Z" transform="translate(16.338 -280.738)" fill="#00a0e3"/>
  <path id="Path_2643" data-name="Path 2643" d="M161.531,313.081a31.466,31.466,0,0,1-3.182.253c-3.941,0-6.362-1.917-6.362-6.281,0-4.509,3.2-6.024,6.34-6.024a28.119,28.119,0,0,1,3.12.231c.149.019.211.062.211.23l-.211,1.18c-.022.127-.065.211-.189.211h-.043c-.8-.062-1.6-.084-2.57-.084-2.573,0-4.361,1.117-4.361,4.237,0,3.288,1.789,4.4,4.361,4.4,1.117,0,2.106-.043,2.886-.087h.065c.126,0,.166.065.166.191v1.328c0,.127-.041.168-.231.211" transform="translate(18.565 -279.881)" fill="#00a0e3"/>
  <path id="Path_2644" data-name="Path 2644" d="M171.608,314.078c0,.17-.041.211-.21.211h-1.813c-.169,0-.21-.041-.21-.211V307.1c0-2.275-1.244-3.184-3.288-3.184a18.122,18.122,0,0,0-2.656.147c-.146.022-.211.065-.211.214v9.8c0,.149-.042.211-.188.211H161.2c-.166,0-.188-.041-.188-.211V298.337c0-.169.042-.21.188-.21l1.813-.233c.147,0,.21.041.21.233v4.131c0,.145.105.145.276.145a25.468,25.468,0,0,1,2.95-.231c3.541,0,5.162,1.453,5.162,5.121Z" transform="translate(21.74 -280.984)" fill="#00a0e3"/>
  <path id="Path_2645" data-name="Path 2645" d="M188.5,313.6a.144.144,0,0,1-.149.147h-1.876a.253.253,0,0,1-.272-.21l-1.244-4.6c-.022-.127-.065-.189-.189-.189h-5.712c-.146,0-.188.041-.231.169l-1.244,4.594c-.043.188-.127.231-.273.231h-1.666c-.127,0-.23-.064-.23-.191,0-.019.019-.041.019-.062l3.687-13.887a.275.275,0,0,1,.254-.191h5.143a.309.309,0,0,1,.293.231l3.668,13.846c0,.043.022.062.022.105m-5.585-12.349a.186.186,0,0,0-.189-.169h-1.645c-.126,0-.21.043-.228.169l-1.518,5.668v.043c0,.084.062.124.145.124h4.849a.1.1,0,0,0,.105-.1v-.065Z" transform="translate(26.808 -280.447)" fill="#00a0e3"/>
  <path id="Path_2646" data-name="Path 2646" d="M188.813,300.011c0,.149-.041.21-.188.21h-1.835c-.105,0-.191-.061-.191-.231v-1.729c0-.147.064-.21.191-.21h1.835c.147,0,.188.062.188.21Zm-.188,14.223h-1.835c-.127,0-.191-.062-.191-.211v-11.61a.189.189,0,0,1,.212-.21H188.6c.169,0,.21.062.21.188v11.632c0,.149-.041.211-.188.211" transform="translate(30.745 -280.929)" fill="#00a0e3"/>
  <path id="Path_2647" data-name="Path 2647" d="M195.765,302.814c-.925,0-1.622.064-2.527.126-.17.022-.233.084-.233.211v9.822c0,.146-.042.208-.188.208h-1.835a.183.183,0,0,1-.191-.208V301.8a.252.252,0,0,1,.21-.273c1.436-.192,3.078-.423,4.784-.485a.185.185,0,0,1,.192.211v1.388c0,.108-.065.17-.214.17" transform="translate(32.221 -279.876)" fill="#00a0e3"/>
  <path id="Path_2648" data-name="Path 2648" d="M198.286,314.289h-1.833c-.127,0-.189-.041-.189-.211V298.315c0-.147.062-.188.189-.21l1.812-.211c.17,0,.214.062.214.211v15.973c0,.149-.043.211-.192.211" transform="translate(34.146 -280.984)" fill="#00a0e3"/>
  <path id="Path_2649" data-name="Path 2649" d="M202.7,300.011c0,.149-.043.21-.192.21h-1.833c-.105,0-.189-.061-.189-.231v-1.729c0-.147.062-.21.189-.21h1.833c.149,0,.192.062.192.21Zm-.192,14.223h-1.833c-.127,0-.189-.062-.189-.211v-11.61a.188.188,0,0,1,.211-.21h1.791c.169,0,.212.062.212.188v11.632c0,.149-.043.211-.192.211" transform="translate(35.632 -280.929)" fill="#00a0e3"/>
  <path id="Path_2650" data-name="Path 2650" d="M215.012,313.176h-1.835c-.147,0-.191-.041-.191-.211v-7.187c0-2.317-1.157-2.97-3.434-2.97-.716,0-1.77.084-2.446.146-.168,0-.187.043-.187.214v9.8c0,.17-.065.211-.212.211h-1.835c-.146,0-.211-.041-.211-.211V301.8c0-.169.043-.21.233-.253a37.808,37.808,0,0,1,4.741-.485c3.457,0,5.563,1.011,5.563,4.573v7.333c0,.149-.041.211-.188.211" transform="translate(37.101 -279.871)" fill="#00a0e3"/>
  <path id="Path_2651" data-name="Path 2651" d="M225.6,308.1h-8.808c-.127,0-.189.022-.189.211.084,2.654,1.875,3.243,4.467,3.243.968,0,2.044-.082,3.182-.166.084,0,.189.019.189.146v.042l-.189,1.284c-.041.149-.105.149-.254.192a26.45,26.45,0,0,1-3.643.272c-3.606,0-6.027-1.494-6.027-6.194,0-4.53,2.613-6.069,5.774-6.069,3.856,0,5.687,2.15,5.687,6.828,0,.146-.062.211-.189.211m-5.625-5.353a3.11,3.11,0,0,0-3.393,3.477c0,.169.043.21.189.21H223.3c.147,0,.231-.019.231-.188a3.247,3.247,0,0,0-3.56-3.5" transform="translate(40.502 -279.871)" fill="#00a0e3"/>
  <path id="Path_2652" data-name="Path 2652" d="M228.151,313.329a21.128,21.128,0,0,1-3.435-.315c-.17-.043-.211-.086-.211-.232V311.5a.156.156,0,0,1,.17-.17h.062c.569.022,1.917.127,3.034.127,1.5,0,3.288-.062,3.288-1.7,0-2.847-6.68-1.561-6.68-5.628,0-2.488,2.613-3.076,4.888-3.076a22.671,22.671,0,0,1,3.223.316c.149.041.233.127.233.231l-.211,1.222c0,.084-.062.146-.189.146h-.042a30.043,30.043,0,0,0-3.013-.189c-1.242,0-2.654.065-2.654,1.371,0,2.254,6.659,1.242,6.659,5.414,0,2.678-2.045,3.773-5.122,3.773" transform="translate(44.039 -279.876)" fill="#00a0e3"/>
</svg>
