<svg id="g10" xmlns="http://www.w3.org/2000/svg" width="187.283" height="45.021" viewBox="0 0 187.283 45.021">
  <path id="path22" d="M811.963,298.659l-.161.618s2.029-.032,2.847-.032c1.872,0,3.013.169,3.139,1.31a5.454,5.454,0,0,1-.451,2.231c-.2.7-.379,1.379-.573,2.074a5.3,5.3,0,0,1-.819,1.874,3,3,0,0,1-1.6,1.076,42.208,42.208,0,0,1-5,.08c-.1.258-.164.558-.246.837,2.662.135,5.229-.043,7.953.039a11.388,11.388,0,0,0,2.542-.039,3.184,3.184,0,0,0,2.419-2.154c.367-1.073.7-2.327,1.026-3.466a8.146,8.146,0,0,1,.573-1.714,3.9,3.9,0,0,1,1.067-1.2,3.323,3.323,0,0,1,3.443-.558,1.707,1.707,0,0,1,.984,1.755,8.192,8.192,0,0,1-.492,2.232c-.634,2.255-1.2,4.171-1.8,6.378a17.992,17.992,0,0,1-.615,2.113,4.03,4.03,0,0,1-3.074,2.392,26.109,26.109,0,0,1-3.895.041H807.5s-.2.576-.288.876c5.145.073,10.45.039,15.456.039,1.364,0,2.627.036,3.814-.078a23.464,23.464,0,0,0,8.9-2.632,24.941,24.941,0,0,0,9.758-9.367,8.079,8.079,0,0,1,7.431-4.069c.109-.287.164-.412.253-.656Z" transform="translate(-665.687 -282.096)" fill="#0a468c"/>
  <path id="path26" d="M742.216,294.841h4.756c-2.078,7.308-4.1,14.673-6.192,21.964h-4.714c2-7.365,4.076-14.665,6.15-21.964" transform="translate(-690.722 -283.439)" fill="#0a468c"/>
  <path id="path30" d="M702.525,315.591v-.119c1.667-5.686,3.194-11.51,4.879-17.181h16.029a9.606,9.606,0,0,1,2.46.2,3.9,3.9,0,0,1,2.788,4.864c-.3,1.364-.788,2.858-1.148,4.106-.6,2.066-1.156,4.1-1.721,6.1a10.507,10.507,0,0,1-.617,2.032c-1.544-.026-3.2.054-4.673-.039.864-3.212,2-7.16,2.952-10.484a5,5,0,0,0,.287-1.634c-.137-1.567-1.941-1.365-3.691-1.356-1.119,3.937-2.24,7.942-3.32,11.84a11.162,11.162,0,0,1-.533,1.674c-1.544-.026-3.2.054-4.675-.039,1.2-4.54,2.535-8.937,3.733-13.474h-4.223c-1.245,4.531-2.485,9.066-3.812,13.513-1.409,0-3.17,0-4.715,0" transform="translate(-702.525 -282.225)" fill="#0a468c"/>
  <path id="path34" d="M726.667,298.293h7.216c2.613,0,4.7-.149,6.231.917a3.877,3.877,0,0,1,1.64,3.189,11.957,11.957,0,0,1-.7,3.469c-.911,3.212-1.826,6.622-2.746,9.727h-7.626c-2.428,0-5.5.312-7.134-.519a3.258,3.258,0,0,1-1.763-2.631,6.722,6.722,0,0,1,1.19-4.265,6.637,6.637,0,0,1,3.034-2.471c2.758-1.159,6.743-.358,10.454-.6a3.05,3.05,0,0,0,.206-2.354c-.6-1.182-3.195-.837-5.085-.837h-5.944c.314-1.236.645-2.456,1.025-3.627m2.582,10.445a2.2,2.2,0,0,0-2.255,2.51c.219.5.757.673,1.4.718,1.809.126,4.3-.095,6.19,0q.458-1.608.9-3.228c-1.9.105-4.369-.141-6.232,0" transform="translate(-695.755 -282.227)" fill="#0a468c"/>
  <path id="path38" d="M746.953,298.295h7.462a29.635,29.635,0,0,1,3.647.078c2.5.341,4.295,2.036,3.937,4.9a28.552,28.552,0,0,1-1.107,4.146c-.795,2.807-1.471,5.512-2.3,8.172h-7.872c-2.551,0-5.549.287-7.134-.679a3.207,3.207,0,0,1-1.517-2.551,6.675,6.675,0,0,1,1.23-4.185,6.507,6.507,0,0,1,2.993-2.471c2.762-1.16,6.8-.357,10.454-.6a3.039,3.039,0,0,0,.206-2.354c-.6-1.182-3.195-.837-5.085-.837h-5.944c.322-1.228.646-2.454,1.025-3.627M749.5,308.74a3.45,3.45,0,0,0-1.19.319,2.232,2.232,0,0,0-.984,2.273c.142.391.746.595,1.311.637,1.991.15,4.25-.112,6.232,0q.47-1.594.9-3.228c-2,.132-4.214-.176-6.273,0" transform="translate(-688.614 -282.229)" fill="#0a468c"/>
  <path id="path42" d="M761.569,298.291h4.714c-.742,2.816-1.762,6.257-2.623,9.408-.279,1.017-.971,2.59-.37,3.469.476.692,1.634.6,2.87.6,1.188,0,2.447,0,3.4,0,1.319-4.444,2.539-8.987,3.814-13.474h4.756c-1.707,6.143-3.507,12.56-5.208,18.576a7.687,7.687,0,0,1-2.255,3.747,9.347,9.347,0,0,1-3.812,2.193c-1.625.441-3.733.238-5.823.238H755.05c.273-1.261.662-2.412.984-3.626h4.51c1.588,0,3.209.1,4.508,0a3.487,3.487,0,0,0,2.747-1.6,10.53,10.53,0,0,0,.7-2.232c-3.835-.1-8.421.607-9.962-1.8a3.66,3.66,0,0,1-.533-1.633,10.639,10.639,0,0,1,.656-3.668c.931-3.31,1.962-6.866,2.828-10.086.035-.031.024-.109.083-.119" transform="translate(-684.042 -282.225)" fill="#0a468c"/>
  <path id="path46" d="M792.162,298.305c-.35,1.2-.669,2.431-1.023,3.627h-8.528a6.978,6.978,0,0,0-2.584.239,2.175,2.175,0,0,0-1.188,2.233c.293.666,1.108.718,1.886.718h2.624c1.772,0,3.554-.084,4.755.477a3.418,3.418,0,0,1,1.845,3.627,7.174,7.174,0,0,1-2.051,4.346,6.877,6.877,0,0,1-4.468,1.993c-2.04.191-4.283.041-6.478.041s-4.352,0-6.436,0c.228-1.148.653-2.448.984-3.628h9.552a5.461,5.461,0,0,0,2.747-.4,2.088,2.088,0,0,0,.9-2.154c-.33-1-3.07-.677-4.469-.677-1.775,0-3.511.061-4.675-.479a3.276,3.276,0,0,1-1.926-3.627,6.738,6.738,0,0,1,.738-2.473,6.926,6.926,0,0,1,6.027-3.866c1.962-.122,3.95,0,5.9,0Z" transform="translate(-678.6 -282.239)" fill="#0a468c"/>
  <path id="path50" d="M790.123,298.291h4.714c-1.571,5.794-3.2,11.532-4.837,17.261-1.291.092-3.316.014-4.675.041-.095-.155,0-.368.042-.519,1.529-5.459,3.161-11.154,4.714-16.663,0-.057-.007-.112.042-.119" transform="translate(-673.403 -282.225)" fill="#0a468c"/>
  <path id="path54" d="M796.055,298.291h9.676c3.052,0,5.345,1.169,5.412,4.106a12.147,12.147,0,0,1-.7,3.469c-.9,3.235-1.81,6.505-2.746,9.686-2.455.073-5.08.041-7.709.041-2.469,0-5.5.314-7.133-.56a3.268,3.268,0,0,1-1.394-1.474,5.7,5.7,0,0,1,.533-4.7,6.7,6.7,0,0,1,2.911-2.95c2.9-1.478,7.265-.516,10.946-.8a3.1,3.1,0,0,0,.206-2.354c-.584-1.184-3.21-.837-5.085-.837H795.03c.269-1.213.66-2.309.944-3.508.035-.031.024-.109.081-.119m2.542,10.445a3.5,3.5,0,0,0-1.188.319,2.2,2.2,0,0,0-.984,2.312c.165.379.775.558,1.353.6,1.979.138,4.222-.1,6.19,0,.289-1.088.61-2.144.9-3.228-2,.134-4.2-.178-6.273,0" transform="translate(-671.34 -282.225)" fill="#0a468c"/>
  <path id="path58" d="M784.512,312.33c-.793,3.254-1.867,6.582-2.705,9.927h-1.434q1.393-4.9,2.746-9.847c.314-.173.948-.035,1.394-.08" transform="translate(-675.131 -277.289)" fill="#0a468c"/>
  <path id="path62" d="M770.341,313.924H773.5c1.62,0,3.193-.207,3.568.915a4.164,4.164,0,0,1-.369,2.393c-.4,1.432-.814,3.032-1.23,4.465-1.617-.087-3.524.112-5.125,0-1.065-.076-1.843-.615-1.886-1.675a3.133,3.133,0,0,1,1.149-2.392c1.288-1,3.612-.53,5.739-.638.123-.464.469-1.006.288-1.514-.23-.64-1.632-.439-2.583-.439h-3.034a5.744,5.744,0,0,1,.327-1.115m.369,4.423a1.644,1.644,0,0,0-.779,1.6c.236,1.165,3.084.429,4.427.638.195-.6.362-1.315.534-1.913.053-.189.223-.426.081-.6-1.175.22-3.358-.256-4.264.279" transform="translate(-679.326 -276.729)" fill="#0a468c"/>
  <path id="path66" d="M778.167,313.92c-.669,2.632-1.437,5.166-2.132,7.773h-1.394q1.059-3.916,2.172-7.773Z" transform="translate(-677.148 -276.725)" fill="#0a468c"/>
  <path id="path70" d="M778.067,321.736h-1.4c.3-1.237.775-2.827,1.19-4.345s.78-2.9,2.214-3.349a12.381,12.381,0,0,1,2.705-.119,4.88,4.88,0,0,1-.328,1.115,11.107,11.107,0,0,0-1.517.041c-1.194.23-1.4,1.315-1.721,2.432-.383,1.319-.86,3.153-1.148,4.225" transform="translate(-676.433 -276.728)" fill="#0a468c"/>
  <path id="path74" d="M785.972,313.92c-.734,2.581-1.448,5.183-2.174,7.773H782.4q1.063-3.831,2.133-7.654a.1.1,0,0,1,.081-.119Z" transform="translate(-674.416 -276.725)" fill="#0a468c"/>
  <path id="path78" d="M786.609,313.93c2.56.258,6.542-.932,6.4,1.872a7.469,7.469,0,0,1-.369,1.515c-.387,1.4-.838,2.955-1.188,4.386h-1.434c.311-1.209.833-2.973,1.229-4.386.189-.672.487-1.5.082-1.953-.608-.684-2.408-.142-3.608-.319-.683,2.167-1.264,4.433-1.886,6.658h-1.394c.707-2.608,1.422-5.209,2.173-7.773" transform="translate(-673.701 -276.735)" fill="#0a468c"/>
  <path id="path82" d="M799.021,313.93c-.118.364-.189.772-.327,1.115-1.128.07-2.163-.095-3.116,0a3.15,3.15,0,0,0-2.583,2.113c1.559.092,3.295.014,4.921.041-.073.38-.2.708-.288,1.076h-4.92a2.249,2.249,0,0,0-.123,1.434c.395,1.364,2.952.737,4.51.877.057.347-.191.745-.246,1.117-2.323-.084-4.652.419-5.494-1.037-1.034-1.789.334-4.592,1.559-5.66a4.438,4.438,0,0,1,2.378-1.076c1.254-.115,2.339.084,3.73,0" transform="translate(-671.395 -276.735)" fill="#0a468c"/>
  <path id="path86" d="M805.254,313.96c-.131.35-.206.757-.327,1.117-1.445.2-3.783-.338-4.879.158-.46.209-1.112.94-.779,1.6.36.7,3.185.169,4.058.558,1.225.546,1.083,2.268.369,3.228a2.846,2.846,0,0,1-1.968,1.077c-1.676.168-3.8-.127-5.616,0a8.5,8.5,0,0,1,.328-1.117c1.67-.206,5.141.5,6.027-.6a1.342,1.342,0,0,0,.2-1.275c-.438-.9-3.585-.1-4.509-.718a1.619,1.619,0,0,1-.575-1.514,3.02,3.02,0,0,1,2.83-2.512c1.63-.134,3.14.1,4.837,0" transform="translate(-669.593 -276.726)" fill="#0a468c"/>
  <path id="path90" d="M851.733,302.553c-2.886.063-5.045-1.175-5.252-3.787-.043-.527,0-1.019-.042-1.475a11.815,11.815,0,0,0-.942-3.708c-1.882-4.321-5.594-6.7-11.561-7.176H815.4c-.035.324-.18.542-.2.877H827.17a16.409,16.409,0,0,1,3.853.119,1.99,1.99,0,0,1,1.517,2.072,9.532,9.532,0,0,1-.533,2.035c-.573,1.983-1.065,3.949-1.64,5.94a9.9,9.9,0,0,1-1.434,3.627,3.491,3.491,0,0,1-3.608,1.275,1.85,1.85,0,0,1-1.188-.757c-.619-.953-.05-2.42.246-3.468.161-.576.338-1.109.491-1.634a6.815,6.815,0,0,0,.41-1.714,1.569,1.569,0,0,0-1.146-1.6,9.377,9.377,0,0,0-2.583-.119c-2.639,0-5.486-.032-8.036.039-.055.278-.16.508-.206.8,2.3,0,5.986-.288,5.986,1.6a5.164,5.164,0,0,1-.288,1.394c-.244.849-.5,1.69-.737,2.552a10.288,10.288,0,0,1-.369,1.276,2.423,2.423,0,0,1-2.583,1.833h-4.488l-.107.418h40.856c.062-.187.1-.277.151-.418" transform="translate(-664.45 -286.407)" fill="#0a468c"/>
</svg>
