<svg id="Group_147" data-name="Group 147" xmlns="http://www.w3.org/2000/svg" width="274.12" height="35.725" viewBox="0 0 274.12 35.725">
  <path id="Path_101" data-name="Path 101" d="M261.27,62.481c0-1.2.515-1.375,1.717-.687,2.062,1.2,4.122,2.232,4.122,2.232,0-.687.687-1.2,1.89-.858a20.543,20.543,0,0,0,2.4.515s-.687-1.545-1.03-2.233c-.515-1.2,0-1.889.515-2.06,0,0-.687-.515-1.2-.858-1.03-.688-.858-1.547.172-1.89,1.374-.687,3.263-1.374,3.263-1.374a1.709,1.709,0,0,1-.515-2.405c.687-1.03,1.889-2.577,1.889-2.577h-3.263a1.56,1.56,0,0,1-1.545-1.717s-1.89,1.374-3.263,2.232c-1.2.86-2.233,0-2.062-1.374.345-2.06.516-4.465.516-4.465a1.675,1.675,0,0,1-2.577-.515c-.858-1.718-1.718-3.779-1.718-3.779s-.858,2.06-1.717,3.779a1.642,1.642,0,0,1-2.4.687s.172,2.405.515,4.465a1.23,1.23,0,0,1-2.06,1.2c-1.375-.858-3.435-2.232-3.435-2.232a1.65,1.65,0,0,1-1.547,1.717h-3.262s1.2,1.547,1.889,2.577a1.758,1.758,0,0,1-.515,2.405,29.453,29.453,0,0,0,3.263,1.374c1.03.515,1.373,1.2.172,1.89a8.585,8.585,0,0,1-1.2.858c.687.172,1.2.858.687,2.06-.343.688-1.031,2.233-1.031,2.233a20.8,20.8,0,0,1,2.4-.515,1.38,1.38,0,0,1,1.89.858s2.06-1.2,4.122-2.232c1.03-.688,1.717-.345,1.717.687V65.4a10.873,10.873,0,0,1-.858,4.465c-7.729-.858-14.256-7.042-14.256-15.286a15.807,15.807,0,1,1,17.519,15.286v2.06c9.275-.858,16.489-8.244,16.489-17.346,0-9.79-8.245-17.519-18.379-17.519-9.961,0-18.206,7.729-18.206,17.346,0,8.417,6.355,15.459,14.771,17a5.708,5.708,0,0,1,3.092,1.375c.86-1.718,1.031-5.153,1.031-7.042Z" transform="translate(-242.376 -37.061)" fill="#f01428"/>
  <path id="Path_102" data-name="Path 102" d="M310.855,61.581V43.032h9.1c4.809,0,7.042,2.06,7.214,4.637a4.4,4.4,0,0,1-1.031,3.263,9.5,9.5,0,0,1-2.747,2.062l6.869,8.759h-4.98l-6.184-7.9h-4.122v7.729Zm4.122-10.134h1.89c4.98,0,6.01-.858,6.01-3.263s-2.232-2.747-5.5-2.747h-2.405Z" transform="translate(-218.279 -34.96)" fill="#2e2a25"/>
  <path id="Path_103" data-name="Path 103" d="M280.745,61.581l8.072-18.549h4.98l8.074,18.549h-4.982l-2.232-4.98h-8.589l-2.232,4.98ZM287.1,54.2h6.354l-3.263-7.385Z" transform="translate(-228.874 -34.96)" fill="#2e2a25"/>
  <rect id="Rectangle_241" data-name="Rectangle 241" width="4.294" height="18.55" transform="translate(78.664 8.072)" fill="#2e2a25"/>
  <g id="Group_145" data-name="Group 145" transform="translate(123.493 7.557)">
    <path id="Path_104" data-name="Path 104" d="M353.132,61.029a20.305,20.305,0,0,1-7.729,1.2c-3.607,0-6.527-.858-8.587-2.577a8.87,8.87,0,0,1-3.092-7.214c0-3.09,1.03-5.667,3.092-7.214,2.06-1.717,4.98-2.575,8.931-2.575a36.976,36.976,0,0,1,7.385.687V46.43a25.145,25.145,0,0,0-7.214-1.2,7.883,7.883,0,0,0-5.5,1.89,7.435,7.435,0,0,0-1.89,5.324,7.113,7.113,0,0,0,2.062,5.325,8.344,8.344,0,0,0,5.667,1.889,19.589,19.589,0,0,0,6.87-1.374Z" transform="translate(-333.724 -42.651)" fill="#2e2a25"/>
  </g>
  <path id="Path_105" data-name="Path 105" d="M352.019,61.581l8.072-18.549h4.98l8.072,18.549h-4.98L365.93,56.6h-8.587l-2.233,4.98Zm6.526-7.385H364.9l-3.092-7.385Z" transform="translate(-203.794 -34.96)" fill="#2e2a25"/>
  <path id="Path_106" data-name="Path 106" d="M391.784,61.581l8.074-18.549h4.98l8.072,18.549h-4.98L405.7,56.6h-8.587l-2.233,4.98Zm6.355-7.385h6.355l-3.263-7.385Z" transform="translate(-189.801 -34.96)" fill="#2e2a25"/>
  <path id="Path_107" data-name="Path 107" d="M438.964,46.811l3.263,7.385h-6.355Zm-1.374-3.779-8.072,18.549h3.09l2.233-4.98h8.587l2.233,4.98h4.98L442.57,43.032Z" transform="translate(-176.522 -34.96)" fill="#2e2a25"/>
  <path id="Path_108" data-name="Path 108" d="M372.219,61.581V43.032H377.2l11.679,13.225V43.032h3.607v18.55h-4.637L375.826,47.669V61.581Z" transform="translate(-196.685 -34.96)" fill="#2e2a25"/>
  <g id="Group_146" data-name="Group 146" transform="translate(229.121 8.072)">
    <path id="Path_109" data-name="Path 109" d="M411.858,61.581V43.032h8.931a11.472,11.472,0,0,1,7.387,2.233,8.411,8.411,0,0,1,2.575,6.526c0,3.092-.858,5.5-2.748,7.042a10.607,10.607,0,0,1-7.557,2.577h-8.587ZM416.152,59h3.263a6.942,6.942,0,0,0,5.153-1.717c1.2-1.2,1.717-2.748,1.717-5.153a7.66,7.66,0,0,0-1.373-4.465,5.249,5.249,0,0,0-2.233-1.717,10.451,10.451,0,0,0-3.779-.515h-2.577V59Z" transform="translate(-411.858 -43.032)" fill="#2e2a25"/>
  </g>
</svg>
