<svg id="layer1" xmlns="http://www.w3.org/2000/svg" width="267.88" height="41.68" viewBox="0 0 267.88 41.68">
  <path id="AirNewZealand" d="M40.309,399.941,28.531,416.919h2.127l2.915-4.135h6.973l.315,1.929c.226,1.529.625,2.206,2.4,2.206h1.772L42.2,399.941Zm10.243,1.379-3.507,15.6h3.783l3.505-15.6Zm6.776,0,.749,1.34-3.192,14.26h3.783l3.151-14.181H63c2.177,0,3.084,1.267,2.915,3.151-.139,1.687-1.386,3.538-5.2,3.939l3.073,5.4c.791,1.375,1.14,1.694,3.23,1.694h2.01L64.813,410.3c2.259-.348,4.721-1.766,5-4.295.339-2.9-1.747-4.687-5.278-4.687Zm22.927,0,.986,1.811-3.073,13.788h1.97l2.6-11.463,5.87,9.769a2.9,2.9,0,0,0,3.034,1.694l3.505-15.6h-1.97l-2.441,10.793-5.318-9.139c-.767-1.321-1.159-1.655-2.8-1.655Zm18.4,0-3.507,15.6H107.2c-.224-1.075-.7-1.5-2.087-1.5H99.321l1.3-5.751h5.948l.354-1.576h-5.988l1.182-5.279h5.516c1.383,0,1.86-.423,2.087-1.5Zm12.448,0,2.4,15.6h1.812l5.4-9.3,1.3,9.3h1.812l9.377-15.6h-2.009l-6.5,10.912-1.261-10.243c-.055-.48-.464-.669-.945-.669h-2.6l.512,3.7-4.1,7.21-1.537-10.243c-.058-.48-.465-.669-.945-.669Zm30.136,0c.226,1.075.7,1.5,2.089,1.5h7.012L139.228,414c-.96.972-1.6,1.6-1.655,2.915h14.419c-.226-1.067-.688-1.492-2.049-1.5h-7.327l10.715-11.03c1.355-1.451,1.66-2.189,1.774-3.073Zm16.782,0-3.466,15.6h12.014c-.23-1.075-.7-1.5-2.087-1.5h-5.792l1.3-5.751h5.948l.354-1.576H160.3l1.182-5.279H167c1.386,0,1.863-.422,2.087-1.5Zm20.051,0-10.557,15.6h2.127l2.8-4.135h6.343l.393,1.929c.342,1.511.7,2.206,2.482,2.206h1.813l-3.507-15.6Zm10.912,0-3.505,15.6h10.478c-.226-1.072-.744-1.5-2.128-1.5h-4.215l3.153-14.1Zm18.437,0-10.519,15.6h2.089l2.8-4.135h6.342l.434,1.929c.337,1.511.7,2.206,2.482,2.206h1.812l-3.546-15.6Zm9.534,0,1.023,1.811-3.112,13.788h2.009l2.56-11.463,5.87,9.769a2.957,2.957,0,0,0,3.073,1.694l3.468-15.6h-1.97l-2.4,10.793-5.358-9.139c-.761-1.321-1.159-1.655-2.8-1.655Zm17.923,0,.71,1.34-3.19,14.26h5.751c5.141,0,9.936-2.855,10.754-7.8.818-4.888-2.7-7.8-7.681-7.8h-6.343Zm4.491,1.457h1.025c3.585,0,5.23,2.363,4.609,6.343a7.359,7.359,0,0,1-7.445,6.381h-1.064ZM39.285,404.669l1.023,6.5H34.716Zm137.879,1.023,1.221,5.477H173.5Zm29.389,0,1.221,5.477H202.89Z" transform="translate(-28.531 -378.983)" fill="#231f20"/>
  <path id="koru" d="M221.5,384.438c-4.724,0-9.1,3.357-11.582,5.791a178.886,178.886,0,0,0-13.512,14.457H235.8l1.772-3.939H205.782a67.066,67.066,0,0,1,7.564-8.155c1.3-1.213,4.692-4.254,8.155-4.254,2.274,0,4.057,1.422,4.057,3.349a2.534,2.534,0,0,1-1.614,2.443,2.648,2.648,0,0,0-2.521-3.034,2.959,2.959,0,0,0-3.151,2.836c0,2.345,2.133,4.018,4.609,4.018,4.76,0,6.973-3.384,6.973-6.657C229.852,387.991,226.632,384.438,221.5,384.438Zm-25.764,22.3a125.582,125.582,0,0,0,4.807,11.621c2.32,4.836,6.17,7.761,10.872,7.761,4.419,0,7.407-3.362,7.407-6.58a5.888,5.888,0,0,0-6.067-6.027c-3.516,0-4.254,2.642-4.254,3.309a2.984,2.984,0,0,0,2.915,2.954c2.566,0,2.758-2.048,2.758-2.048a2.124,2.124,0,0,1,.788,1.812c0,1.257-1.065,2.875-3.546,2.875-1.979,0-4.888-1.042-6.893-5.278-2.359-4.96-2.521-6.421-2.521-6.421h31.081l1.774-3.979Z" transform="translate(30.307 -384.438)" fill="#231f20"/>
</svg>
