<svg id="Group_2635" data-name="Group 2635" xmlns="http://www.w3.org/2000/svg" xmlns:xlink="http://www.w3.org/1999/xlink" width="189.855" height="26.106" viewBox="0 0 189.855 26.106">
  <defs>
    <linearGradient id="linear-gradient" x1="0.458" y1="13.735" x2="0.532" y2="13.047" gradientUnits="objectBoundingBox">
      <stop offset="0" stop-color="#fff"/>
      <stop offset="0.218" stop-color="#fcfcfc"/>
      <stop offset="0.394" stop-color="#f2f2f2"/>
      <stop offset="0.554" stop-color="#e1e2e2"/>
      <stop offset="0.705" stop-color="#c9cacc"/>
      <stop offset="0.725" stop-color="#c6c7c8"/>
    </linearGradient>
    <clipPath id="clip-path">
      <path id="Path_2665" data-name="Path 2665" d="M389.9,394.486s2.628-.442,3.465.541c.877,1.027,2.172,3.6-8.26,12.755l-8.072-10.952,7.719-2.892Z" transform="translate(-377.028 -393.938)" fill="none"/>
    </clipPath>
    <linearGradient id="linear-gradient-2" x1="73.709" y1="-22.597" x2="74.795" y2="-22.597" gradientUnits="objectBoundingBox">
      <stop offset="0" stop-color="#fff"/>
      <stop offset="0.089" stop-color="#fbfbfb"/>
      <stop offset="0.18" stop-color="#eeefef"/>
      <stop offset="0.274" stop-color="#dadadb"/>
      <stop offset="0.368" stop-color="#bdbdbe"/>
      <stop offset="0.462" stop-color="#98999a"/>
      <stop offset="0.5" stop-color="#87888a"/>
    </linearGradient>
  </defs>
  <g id="Group_2628" data-name="Group 2628">
    <path id="Path_2653" data-name="Path 2653" d="M359.018,413.588a4.363,4.363,0,0,1-2.923,1.025c-1.9,0-2.854-.55-3.354-1.725a5.077,5.077,0,0,1-4.262,1.725c-2.892,0-4.847-1.51-4.847-4.1,0-2.8,2.49-4.148,5.865-5.19l.253-.077c1.7-.523,3.013-1.106,3.013-2.552v-.716c0-2.16-.991-3.292-2.809-3.292-1.415,0-2,.662-2.175,2.1-.089.752-.407,1.651-1.5,1.651a1.35,1.35,0,0,1-1.492-1.382c0-1.891,2.185-3.226,5.428-3.226,3.985,0,5.533,1.593,5.533,4.847v7.975c0,2.1.35,2.85,1.343,2.85a2.465,2.465,0,0,0,1.484-.526Zm-6.219-4.529v-4.252c-.629.361-1.223.671-1.8.971-2.414,1.255-4.2,2.312-4.2,4.833a2.763,2.763,0,0,0,2.671,2.963C351.615,413.575,352.8,411.935,352.8,409.059Z" transform="translate(-246.618 -388.507)" fill="#d81e05" fill-rule="evenodd"/>
    <path id="Path_2654" data-name="Path 2654" d="M279.57,405.679h7.811l-3.881-9.815Zm8.206,1h-8.6l-.68,1.7a16.253,16.253,0,0,0-1.341,4.894c-.005,1.582,1.118,2.278,3.288,2.573v.65H271.87v-.677c2.54-.149,3.693-3.355,6.47-10.126l6.048-14.752h.8l7.623,18.726c1.59,3.9,2.427,6.077,4.818,6.151v.677H287.234v-.676c2.024-.111,3.08-.669,3.084-1.922a10.179,10.179,0,0,0-.911-3.089Z" transform="translate(-271.87 -390.934)" fill="#d81e05"/>
    <g id="Group_2622" data-name="Group 2622" transform="translate(25.632 9.877)">
      <path id="Path_2655" data-name="Path 2655" d="M306.558,398.24h-5.575v.7h.278c2.335,0,2.408.772,2.408,4.872v4.671c0,1.464-.057,2.492-.823,3.4a4.139,4.139,0,0,1-3.092,1.511c-2.135,0-3.218-1.478-3.218-4.319V398.24H290.83v.7h.279c2.333,0,2.408.772,2.408,4.872v5.125c0,3.553,1.513,5.528,5.218,5.528a6.708,6.708,0,0,0,4.934-1.94V414.3l.873-.126c1.543-.219,3-.43,4.421-.587l.084-.009v-.579l-.088-.005c-1.81-.141-2.3-.815-2.3-3.143V398.24Z" transform="translate(-290.83 -398.24)" fill="#d81e05"/>
    </g>
    <g id="Group_2623" data-name="Group 2623" transform="translate(47.199 9.324)">
      <path id="Path_2656" data-name="Path 2656" d="M306.991,402.153c0,2.873,2.365,3.829,4.878,5.229,1.694.952,2.9,1.967,2.9,3.562a2.58,2.58,0,0,1-2.7,2.705c-2.394,0-3.815-1.242-4.765-4.783l-.02-.07h-.5v5.56h.475l.028-.042c.365-.512.672-.731,1.026-.731a2.345,2.345,0,0,1,.741.261,7.591,7.591,0,0,0,3.235.769c3.093,0,5.247-2.037,5.247-4.842a4.5,4.5,0,0,0-1.425-3.314,15.061,15.061,0,0,0-3.488-2.291c-1.991-1.09-3.308-1.775-3.308-3.339a2.19,2.19,0,0,1,2.45-2.106c1.945,0,3.388,1.411,3.957,4.083l.016.074h.5v-4.788h-.489l-.024.058c-.169.41-.362.568-.686.568a2.3,2.3,0,0,1-.718-.245,6.717,6.717,0,0,0-2.706-.639A4.355,4.355,0,0,0,306.991,402.153Z" transform="translate(-306.783 -397.831)" fill="#d81e05"/>
    </g>
    <g id="Group_2624" data-name="Group 2624" transform="translate(61.287 5.61)">
      <path id="Path_2657" data-name="Path 2657" d="M326.878,414.28a4.6,4.6,0,0,1-3.473,1.3c-2.938,0-4.323-1.334-4.323-3.929,0-2.432.139-11.373.139-11.373H317.2V399.4l.08-.012c2.126-.354,3.292-1.563,4.157-4.233l.022-.066h.753l-.038,4.268h4.057v.926h-4.06l-.072,10.293v.443c0,2.19.618,3.419,2.406,3.419a2.524,2.524,0,0,0,1.867-.731Z" transform="translate(-317.204 -395.084)" fill="#d81e05"/>
    </g>
    <g id="Group_2625" data-name="Group 2625" transform="translate(72.378 9.327)">
      <path id="Path_2658" data-name="Path 2658" d="M330.513,397.917a28.042,28.042,0,0,1-4.951,1.176l-.08.011v.575l.087.007c1.953.141,2.489.823,2.489,3.178v5.585c0,4.16,0,4.909-2.408,4.909h-.242v.7h8.762v-.7h-.316c-1.417,0-2.037-.223-2.373-.85-.373-.7-.4-2.02-.4-3.948v-3.165c0-3.684,1.4-6.083,2.7-6.083.63,0,.934.385,1.256.875a1.87,1.87,0,0,0,1.575,1.111,1.344,1.344,0,0,0,1.456-1.382c0-1.282-1.122-2.082-2.779-2.082a4.666,4.666,0,0,0-4.284,3,25.955,25.955,0,0,0-.146-2.755l-.008-.059-.308-.105Z" transform="translate(-325.408 -397.833)" fill="#d81e05"/>
    </g>
    <g id="Group_2626" data-name="Group 2626" transform="translate(85.987 1.582)">
      <path id="Path_2659" data-name="Path 2659" d="M337.189,393.891a1.727,1.727,0,0,0,1.787,1.786,1.709,1.709,0,0,0,1.787-1.786,1.787,1.787,0,1,0-3.574,0Z" transform="translate(-334.872 -392.104)" fill="#d81e05"/>
      <path id="Path_2660" data-name="Path 2660" d="M341.024,397.894a50.166,50.166,0,0,1-5.4,1.176l-.08.014v.573l.089.005c1.951.142,2.486.825,2.486,3.178v5.6c0,4.16,0,4.909-2.406,4.909h-.242v.7h8.356v-.7h-.242c-2.377,0-2.444-.7-2.444-4.909V397.86Z" transform="translate(-335.475 -390.079)" fill="#d81e05"/>
    </g>
    <g id="Group_2627" data-name="Group 2627" transform="translate(113.831 9.325)">
      <path id="Path_2661" data-name="Path 2661" d="M361.174,397.917a27.992,27.992,0,0,1-4.949,1.176l-.08.011v.575l.085.007c1.955.141,2.487.823,2.487,3.178v5.585c0,4.16,0,4.909-2.405,4.909h-.242v.7h8.356v-.7h-.245c-2.374,0-2.443-.7-2.443-4.909v-4.89a4.524,4.524,0,0,1,.788-3.1,4.1,4.1,0,0,1,3.09-1.474c2.135,0,3.218,1.44,3.218,4.283v5.185c0,4.21-.066,4.909-2.406,4.909h-.242v.706h8.357v-.706H374.3c-2.367,0-2.443-.777-2.443-4.909v-5.221c0-3.4-1.424-5.4-5.067-5.4a6.829,6.829,0,0,0-5.07,1.963c-.03-.308-.207-1.782-.207-1.782l-.311-.105Z" transform="translate(-356.071 -397.832)" fill="#d81e05"/>
    </g>
  </g>
  <g id="Group_2634" data-name="Group 2634" transform="translate(139.98 0.026)">
    <path id="Path_2662" data-name="Path 2662" d="M425.283,390.953a327.089,327.089,0,0,0-32.936,4.218s-1.136.215-1.883.365c0,0,2.628-.442,3.465.541.876,1.027,2.172,3.6-8.26,12.755a93.9,93.9,0,0,1-10.254,7.65l6.845-1.1a101.543,101.543,0,0,1,19.068-13.8,177.356,177.356,0,0,1,23.9-10.561C425.316,390.985,425.283,390.953,425.283,390.953Z" transform="translate(-375.414 -390.953)" fill="url(#linear-gradient)"/>
    <path id="Path_2663" data-name="Path 2663" d="M425.283,390.953a327.089,327.089,0,0,0-32.936,4.218s-1.136.215-1.883.365c0,0,2.628-.442,3.465.541.876,1.027,2.172,3.6-8.26,12.755a93.9,93.9,0,0,1-10.254,7.65l6.845-1.1a101.543,101.543,0,0,1,19.068-13.8,177.356,177.356,0,0,1,23.9-10.561C425.316,390.985,425.283,390.953,425.283,390.953Z" transform="translate(-375.414 -390.953)" fill="#d81e05"/>
    <g id="Group_2633" data-name="Group 2633" transform="translate(2.182 4.035)">
      <g id="Group_2630" data-name="Group 2630">
        <g id="Group_2629" data-name="Group 2629" clip-path="url(#clip-path)">
          <path id="Path_2664" data-name="Path 2664" d="M378.761,397.26l6.244.937c11.759-5.46,11.21.526,11.21.526l4.28-5.821c-3.127.464-6.292.991-9.313,1.583,0,0-1.136.215-1.883.365l-10.539,2.366-.015,0c-.011,0-.018.007-.018.019s.007.015.018.019Z" transform="translate(-376.43 -394.303)" fill="url(#linear-gradient-2)"/>
        </g>
      </g>
      <g id="Group_2632" data-name="Group 2632">
        <g id="Group_2631" data-name="Group 2631" clip-path="url(#clip-path)">
          <path id="Path_2666" data-name="Path 2666" d="M378.761,397.26l6.244.937c11.759-5.46,11.21.526,11.21.526l4.28-5.821c-3.127.464-6.292.991-9.313,1.583,0,0-1.136.215-1.883.365l-10.539,2.366-.015,0c-.011,0-.018.007-.018.019s.007.015.018.019Z" transform="translate(-376.43 -394.303)" fill="#d81e05"/>
        </g>
      </g>
    </g>
  </g>
</svg>
