<svg id="Group_2637" data-name="Group 2637" xmlns="http://www.w3.org/2000/svg" width="178.621" height="65.518" viewBox="0 0 178.621 65.518">
  <g id="Group_2636" data-name="Group 2636">
    <path id="Path_2668" data-name="Path 2668" d="M920.213,420.283h123.656l-2.451,3.829H920.213Z" transform="translate(-920.213 -358.594)" fill="#f99f1c"/>
    <path id="Path_2669" data-name="Path 2669" d="M1030.7,432.376h-4.545l9.182-14.491a7.228,7.228,0,0,0-.422-6.173l-12.8-21.191a4.088,4.088,0,0,1,0-3.852l3.786-5.666,15.02,24.536s3.872,5.137-.336,11.5Z" transform="translate(-884.527 -372.415)" fill="#f99f1c"/>
    <path id="Path_2670" data-name="Path 2670" d="M1043.163,430.166l5.579-8.5a6.554,6.554,0,0,1,5.837-3.508h5.923l4.13,6.509s-3.258-.337-4.715,1.986l-6.088,9.181a8.1,8.1,0,0,1-7.295,4.295h-28.679l10.91-16.749s1.544-1.964-.614-5.222l-9.71-15.6s-2.386-2.308.087-6.258l2.836-4.3,13.489,21.871a5.679,5.679,0,0,1,0,6.6l-10.131,15.8h21.363s2.408.442,4.48-2.644l5.309-8.167a8.2,8.2,0,0,1,3.872-3.872h-4.293a5.392,5.392,0,0,0-3.952,2.751l-4.716,7.295a6.52,6.52,0,0,1-5.5,3.086h-7.466l9.009-13.983s4.909-6.451,1.457-12.375l-14.933-24.7a4.346,4.346,0,0,1,.172-4.123l3.258-4.887,17.005,27.387s2.493,4.1,2.493,7.273-1.986,6.766-3.087,8.589l-7.488,11.675s-.842,1.121-.25,1.542c.609.422,1.2-.335,1.708-.95" transform="translate(-886.012 -374.651)" fill="#f99f1c"/>
  </g>
  <path id="Path_2671" data-name="Path 2671" d="M982.456,411.369H985.1v10.468h6.451v2.243h-9.1Zm11.125,12.711H996.2V411.369h-2.623Zm-32.187,0h2.6V411.369h-2.6Zm53.565-12.711h9.961v2.1H1017.6v3.108h6.216v2.308H1017.6v3.086h7.317v2.114h-9.961Zm14.026-17.084h9.96v2.094h-7.317v3.086h6.238v2.308h-6.238v3.086h7.317v2.094h-9.96ZM968.031,424.08V411.369h7.552s3.637.064,3.637,3.7a4.21,4.21,0,0,1-2.75,4.25l3.829,4.759H977.04l-5.287-6.595H974.5a1.982,1.982,0,0,0,1.966-2.029,1.913,1.913,0,0,0-2.072-2.029h-3.723v10.66h-2.643Zm46.463-17.126V394.286h7.552s3.637.065,3.637,3.7a4.226,4.226,0,0,1-2.751,4.23l3.83,4.737H1023.5l-5.287-6.553h2.751a1.98,1.98,0,0,0,1.964-2.029,1.9,1.9,0,0,0-2.071-2.029h-3.723v10.618Zm-52.908-2.2h3.572v-5.816H967.7v8.017h-6.659c-.994,0-5.794-1.122-5.837-6.174a6.293,6.293,0,0,1,6.031-6.494h6.536v2.244h-5.9a3.944,3.944,0,0,0-3.958,4.165c0,3.23,3.273,4.058,3.68,4.058m38.068,6.616h2.665v1.964l1.672-1.964h3.15a4.065,4.065,0,0,1,4.316,4.38v8.33h-2.687v-8.731a1.829,1.829,0,0,0-1.9-1.737h-4.545V424.08h-2.665Zm-58.667-17.084h2.643v1.944l1.672-1.944h3.151a4.078,4.078,0,0,1,4.337,4.38v8.288h-2.686v-8.7a1.857,1.857,0,0,0-1.922-1.736h-4.552v10.423h-2.643Zm-6.259,12.669h2.6V394.286h-2.6Zm93.09,17.1V421.9h7.36s1.458.272,1.458-1.5-1.1-1.586-1.5-1.586h-4.25s-3.28.228-3.28-3.615,3.236-3.83,3.236-3.83h8.08v2.243h-7.087s-1.544,0-1.544,1.459,1.036,1.736,2.008,1.736h3.786s3.195-.337,3.195,3.465-3.28,3.787-3.28,3.787Zm-107.344-17.1V404.8h7.36s1.457.278,1.457-1.5-1.1-1.586-1.5-1.586h-4.25s-3.28.228-3.28-3.595c0-3.852,3.236-3.83,3.236-3.83h8.082v2.244h-7.088s-1.544,0-1.544,1.457,1.057,1.736,2.008,1.736h3.787s3.194-.335,3.194,3.445c0,3.808-3.279,3.787-3.279,3.787Z" transform="translate(-920.196 -367.742)" fill="#00266b"/>
  <path id="Path_2672" data-name="Path 2672" d="M999.114,393.7a6.927,6.927,0,1,0,6.923,6.988v-.058a6.908,6.908,0,0,0-6.923-6.93m0,11.3a4.373,4.373,0,0,1,0-8.745,4.373,4.373,0,1,1,0,8.745m-27.243-10.518h-2.793l-6.031,12.669h2.973l1.6-3.645h5.744l1.586,3.645h2.965m-9.552-5.509,2.116-5.187,2.093,5.172Zm-21.256,9.931h-2.793l-6.031,12.71h2.973l1.6-3.65H948.6l1.586,3.65h2.965m-9.559-5.529,2.114-5.2,2.094,5.187ZM986.6,394.489h-7.038v12.669h2.7v-6.152l1.557,2.144h2.78a4.339,4.339,0,0,0,0-8.66m-.1,6.316H982.26v-3.987H986.5c.95,0,1.6,1.05,1.6,2.008a1.836,1.836,0,0,1-1.6,1.979" transform="translate(-913.854 -367.946)" fill="#00266b"/>
</svg>
