<svg id="Group_148" data-name="Group 148" xmlns="http://www.w3.org/2000/svg" width="232.714" height="20.338" viewBox="0 0 232.714 20.338">
  <path id="Path_110" data-name="Path 110" d="M640.594,41.725,630.141,57.08c-1.375,2.02-3.608,3.966-6.305,4.173v.472h11.626c3.086,0,5.339-2.04,6.862-4.287l10.734-15.713H640.594Z" transform="translate(-420.345 -41.725)" fill="red"/>
  <path id="Path_111" data-name="Path 111" d="M501.058,61.375V43.062h5.262V61.375h-5.262Zm121.372,0L609.784,50.5V61.375H605.34V43.062h3.775l12.478,10.7v-10.7h4.444V61.375Zm27.5-12.4a18.42,18.42,0,0,0-8.607-2.152c-4.241,0-7.4,2.228-7.4,5.324,0,3.172,3.219,5.42,7.364,5.42A16.624,16.624,0,0,0,650.1,55.1v4.533a20.345,20.345,0,0,1-9.037,2.075c-7.214,0-12.888-3.737-12.888-9.571,0-5.739,5.783-9.421,12.869-9.421A23.309,23.309,0,0,1,649.93,44.4Zm-114.323,12.4V43.062H553.2v3.926H540.87v4.55H552.92v3.927H540.87v5.91h-5.263Zm117.505,0V43.062h18.259v3.926h-13v3.173h12.794v3.926H658.372v3.362h12.943v3.926ZM571.478,54.5l7.269,6.874h-5.614a3.59,3.59,0,0,1-2.716-1.041l-4.947-4.871a.592.592,0,0,0-.426-.15h-3.366v6.061h-5.263V43.062h11.4c5.912,0,8.4,2.7,8.4,5.682,0,3.474-3.051,5.133-4.742,5.759Zm-4.2-3.02c2.081,0,3.085-1.076,3.085-2.285s-.891-2.209-3.085-2.209h-5.6v4.494ZM526.308,54.5l7.271,6.872h-5.614a3.59,3.59,0,0,1-2.715-1.04L520.3,55.464a.6.6,0,0,0-.429-.15H516.51v6.061h-5.263V43.062h11.4c5.913,0,8.406,2.7,8.406,5.682C531.052,52.218,528,53.877,526.308,54.5Zm-4.2-3.021c2.083,0,3.088-1.076,3.088-2.285s-.892-2.209-3.088-2.209h-5.6v4.494Zm-29.289,9.893-2.3-4.022H480.436l-2.1,4.022h-5.021l10.042-18.3h4.575l11.382,18.3Zm-10.374-7.837h5.877l-3.051-5.587ZM597.9,61.375l-2.251-4.022h-9.815l-2.028,4.022h-4.893l9.781-18.3h4.444l11.065,18.3Zm-10.1-7.837h5.727l-2.974-5.587Z" transform="translate(-473.313 -41.375)" fill="#27397f"/>
</svg>
