<svg id="Group_151" data-name="Group 151" xmlns="http://www.w3.org/2000/svg" xmlns:xlink="http://www.w3.org/1999/xlink" width="254.176" height="39.243" viewBox="0 0 254.176 39.243">
  <defs>
    <linearGradient id="linear-gradient" x1="0.7" y1="80.232" x2="0.338" y2="78.872" gradientUnits="objectBoundingBox">
      <stop offset="0" stop-color="#e6ebef"/>
      <stop offset="0.076" stop-color="#bbcee5"/>
      <stop offset="0.185" stop-color="#85a9d8"/>
      <stop offset="0.28" stop-color="#5d8fcf"/>
      <stop offset="0.354" stop-color="#457ec9"/>
      <stop offset="0.4" stop-color="#3c78c7"/>
      <stop offset="0.9" stop-color="#2e5c99"/>
    </linearGradient>
  </defs>
  <g id="Group_150" data-name="Group 150" transform="translate(0 21.375)">
    <g id="Group_149" data-name="Group 149">
      <path id="Path_112" data-name="Path 112" d="M894.851,58.463a1.719,1.719,0,0,0,.807-1.543V42.712a1.741,1.741,0,0,0-.807-1.56h6.772c3.02,0,5.967,1.236,5.967,4.664a3.9,3.9,0,0,1-3.295,3.576c2.462-.023,4.841,1.482,4.841,4.2,0,3.883-4.072,4.874-6.937,4.874h-7.349Zm5.482-15.82a7.62,7.62,0,0,0-1.11.069v6.059h.685c2.075,0,4.081-.641,4.081-3.046C903.99,43.338,902.386,42.643,900.333,42.643Zm.431,7.688c-.495,0-.938,0-1.541.045v6.4a12.256,12.256,0,0,0,2.312.2c1.737,0,3.5-.775,3.5-3.43C905.039,50.92,902.95,50.331,900.764,50.331Zm15.07-7.688a6.092,6.092,0,0,0-.887.093v5.986c.283.02.539.05.819.05,1.948,0,3.391-1.075,3.391-3.195C919.157,43.413,917.739,42.643,915.834,42.643Zm8.729,15.921a7.368,7.368,0,0,1-2.029-.162c-1.179-.347-2.805-3-3.451-4.045-1.006-1.694-1.881-4.026-4.135-4.052V56.92a1.7,1.7,0,0,0,.821,1.543h-5.2a1.713,1.713,0,0,0,.807-1.543V42.712a1.768,1.768,0,0,0-.807-1.56h6.26c2.723,0,6.131,1.045,6.131,4.317,0,2.746-2.273,4.153-4.8,4.153,3.6.02,5.72,8.474,9.7,8.5A11.557,11.557,0,0,1,924.563,58.564Zm3.552-.1a1.694,1.694,0,0,0,.88-1.543V42.712a1.729,1.729,0,0,0-.88-1.56h5.328a1.676,1.676,0,0,0-.873,1.56V56.92a1.643,1.643,0,0,0,.873,1.543Zm11.561,0a1.676,1.676,0,0,0,.849-1.543V43.136H936.7a5.5,5.5,0,0,0-2.693.558L935.2,41.15h12.69a14.886,14.886,0,0,0,3.077-.235,3.647,3.647,0,0,1-2.751,2.268c-1.007-.023-2.674-.091-4.111-.091V56.92a1.7,1.7,0,0,0,.86,1.541h-5.285Zm11.921,0a1.7,1.7,0,0,0,.872-1.543V42.712a1.735,1.735,0,0,0-.872-1.56h5.326a1.691,1.691,0,0,0-.885,1.56V56.92a1.657,1.657,0,0,0,.885,1.543Zm15.7-3.916c0-3.3-7.767-4.042-7.767-9.305,0-3.258,3.1-4.325,5.825-4.325a11.059,11.059,0,0,1,4.088.68l.193,3.236a4.641,4.641,0,0,0-3.984-2.464c-1.256,0-2.573.622-2.573,2.058,0,3.419,7.9,4.254,7.9,9.24,0,3.618-3.161,5.117-6.351,5.117a10.3,10.3,0,0,1-5.348-1.284,12.312,12.312,0,0,1-.124-1.778,14.31,14.31,0,0,1,.166-2.112,5.571,5.571,0,0,0,4.967,3.568C966.012,57.177,967.3,56.425,967.3,54.546Zm16.639,3.916a1.711,1.711,0,0,0,.777-1.543V50.48a35.123,35.123,0,0,0-3.673-.15,36.34,36.34,0,0,0-3.728.15v6.44a1.732,1.732,0,0,0,.773,1.543h-5.13a1.7,1.7,0,0,0,.787-1.543V42.712a1.746,1.746,0,0,0-.787-1.56h5.13a1.741,1.741,0,0,0-.773,1.56v5.82c.95.1,2.232.149,3.728.149,1.453,0,2.747-.064,3.673-.149v-5.82a1.75,1.75,0,0,0-.777-1.56h5.122a1.731,1.731,0,0,0-.764,1.56V56.92a1.722,1.722,0,0,0,.764,1.543Z" transform="translate(-894.851 -40.915)" fill="#2e5c99"/>
      <path id="Path_113" data-name="Path 113" d="M981.942,58.462a.774.774,0,0,0,.315-.6,1.85,1.85,0,0,0-.166-.6s-1.421-3.869-1.587-4.319a26.843,26.843,0,0,0-3.272-.132,29.767,29.767,0,0,0-3.108.132c-.146.387-1.669,4.234-1.669,4.234a3.265,3.265,0,0,0-.276.812c0,.257.22.383.408.473H969.1a2.71,2.71,0,0,0,1.179-1.333l5.727-14.782a.537.537,0,0,0,.035-.212,1.162,1.162,0,0,0-.634-.986H979.9l5.824,15.964a2.676,2.676,0,0,0,1.172,1.346h-4.956Zm-4.523-14.016-2.625,6.739a21.915,21.915,0,0,0,2.386.107,22.4,22.4,0,0,0,2.687-.107Zm10.366,14.016a1.691,1.691,0,0,0,.875-1.543V42.711a1.726,1.726,0,0,0-.875-1.56h5.324a1.687,1.687,0,0,0-.875,1.56V56.92a1.651,1.651,0,0,0,.875,1.543Zm13.419-15.82a6,6,0,0,0-.862.093v5.986c.277.02.531.05.8.05,1.952,0,3.39-1.075,3.39-3.195C1004.533,43.413,1003.11,42.642,1001.2,42.642Zm9.163,15.921a7.406,7.406,0,0,1-2.028-.162c-1.18-.347-2.8-3-3.451-4.045-1-1.694-2.3-4.052-4.546-4.052V56.92a1.7,1.7,0,0,0,.8,1.543h-5.194a1.7,1.7,0,0,0,.818-1.543V42.711a1.754,1.754,0,0,0-.818-1.56h6.273c2.716,0,6.119,1.045,6.119,4.317a4.285,4.285,0,0,1-4.361,4.153c3.735.215,5.987,8.5,9.693,8.5A11.658,11.658,0,0,1,1010.367,58.564Zm21.6-15.723-5.26,15.621a2.049,2.049,0,0,1-1.1-.319,14.58,14.58,0,0,1-1.633-3.366l-2.378-6.006-3.424,9.692h-1.63l-5.888-15.66a3.055,3.055,0,0,0-1.327-1.651h5.117a.82.82,0,0,0-.364.722,2.218,2.218,0,0,0,.147.6l3.835,10.361,4.083-11.684,4.5,11.264,3.406-10.2a1.845,1.845,0,0,0,.134-.553.61.61,0,0,0-.306-.514h3.389A3.012,3.012,0,0,0,1031.965,42.841Zm6.289,1.6-2.624,6.739a22.144,22.144,0,0,0,2.391.107,22.371,22.371,0,0,0,2.684-.107Zm4.518,14.016a.734.734,0,0,0,.315-.6,2.6,2.6,0,0,0-.157-.6s-1.413-3.869-1.585-4.319a26.993,26.993,0,0,0-3.277-.132,29.908,29.908,0,0,0-3.107.132c-.147.387-1.662,4.234-1.662,4.234a2.8,2.8,0,0,0-.277.812c0,.257.211.383.4.473h-3.485a2.675,2.675,0,0,0,1.175-1.333l5.747-14.782a.8.8,0,0,0,.032-.212,1.154,1.154,0,0,0-.645-.986h4.5l5.823,15.964a2.711,2.711,0,0,0,1.178,1.346h-4.968Zm15.644-15.494-4.1,7.191V56.92a1.719,1.719,0,0,0,.773,1.543h-5.1a1.816,1.816,0,0,0,.761-1.543V50.136l-3.565-5.71c-.319-.534-1.805-3.023-3.618-3.023a11.5,11.5,0,0,1,3-.472c1.678,0,2.508.153,3.535,1.762l3.3,5.228c.276-.514,2.888-5.055,2.888-5.055a3.677,3.677,0,0,0,.531-1.137.644.644,0,0,0-.361-.577h3.676A4.518,4.518,0,0,0,1058.416,42.968Zm9.6,11.578c0-3.3-7.768-4.042-7.768-9.305,0-3.258,3.09-4.325,5.817-4.325a11.047,11.047,0,0,1,4.087.68l.194,3.236a4.652,4.652,0,0,0-3.985-2.465c-1.258,0-2.566.622-2.566,2.058,0,3.419,7.9,4.254,7.9,9.24,0,3.618-3.139,5.117-6.354,5.117a10.332,10.332,0,0,1-5.354-1.284,11.452,11.452,0,0,1-.135-1.778,13.946,13.946,0,0,1,.175-2.112,5.577,5.577,0,0,0,4.971,3.568C1066.727,57.177,1068.014,56.425,1068.014,54.546Z" transform="translate(-868.722 -40.915)" fill="#2e5c99"/>
    </g>
  </g>
  <path id="Path_114" data-name="Path 114" d="M1085.128,32.194c-2.911,2.893-9.217,5.376-12.32,6.539-4.238,1.591-6.119,2.155-8.49,2.927-2.685.871-8.054,2.5-8.054,2.5a131.986,131.986,0,0,0,18.963,4.323,59.987,59.987,0,0,0,9.438-4.223,24.434,24.434,0,0,0,5.777-3.688,5.6,5.6,0,0,0,1.718-2.859,3.963,3.963,0,0,0,.068-.633s0-.187-.018-.347a1.575,1.575,0,0,0-.039-.31,4.728,4.728,0,0,0-.143-.564A3.755,3.755,0,0,0,1091,34.436a8.722,8.722,0,0,0-3.482-1.952,20.428,20.428,0,0,0-2.16-.55Z" transform="translate(-838.051 -22.7)" fill="url(#linear-gradient)"/>
  <path id="Path_115" data-name="Path 115" d="M1109.7,39.4a3.034,3.034,0,0,0-.093-.572,2.193,2.193,0,0,0-.32-.692,5.932,5.932,0,0,0-.823-.968,7.219,7.219,0,0,0-.975-.761,13.015,13.015,0,0,0-5.21-1.791,49.608,49.608,0,0,0-6.059-.3c-.991-.014-7.394.039-9.039.069-7.31.15-16.258.17-18.6.17-24.2.111-34.731-.411-46.454-2.762a134.678,134.678,0,0,1-15.5-3.862c8.8-.3,60.12-2.433,69.483-2.682,6.129-.173,10.483-.21,13.965-.008a46.7,46.7,0,0,1,5.535.607,26.457,26.457,0,0,1,4.56,1.23,10.836,10.836,0,0,1,4.713,3.032,7.953,7.953,0,0,1,.6.73c.391.543.845,1.213,1,1.463a32.318,32.318,0,0,1,2.08,3.551c.227.442.427.9.622,1.352a9.172,9.172,0,0,1,.33.9,5.109,5.109,0,0,1,.172,1Z" transform="translate(-855.522 -25.104)" fill="#ce210f"/>
</svg>
