<svg xmlns="http://www.w3.org/2000/svg" width="325.985" height="85.649" viewBox="0 0 325.985 85.649">
  <g id="Group_17" data-name="Group 17" transform="translate(-70.462 -52.369)">
    <g id="Group_16" data-name="Group 16" transform="translate(70.462 52.369)">
      <path id="Path_1" data-name="Path 1" d="M415.754,77.183c-.234-1.591-1.415-2.793-3.423-3.4-.485-.1-1.508-.322-1.729-.371-18.277-3.922-73.327-15.544-90.712-19.431-5.007-1.12-7.582-1.577-9.605-1.613.053,0,.085,0,.133,0s.11.006.147.006c1.512.095,3.729.76,4.988.9,3.065,1.02,6.689,1.568,10.69,2.9,1.239.4,2.421.82,3.577,1.253a79.525,79.525,0,0,1,9.529,4.123,114.593,114.593,0,0,1,35.911,29.572,93.094,93.094,0,0,1,6.433,9.183l31-18.447c.54-.319,1.093-.668,1.508-.958A3.8,3.8,0,0,0,415.754,77.183Z" transform="translate(-89.807 -52.369)" fill="#eda132"/>
      <path id="Path_2" data-name="Path 2" d="M350.418,107.884a102.779,102.779,0,0,0-20.736-21.559c-.131-.113-.26-.222-.392-.333,1.206,1.207,5.123,6.776,5.029,28.05a10.07,10.07,0,0,0,.556,3.319c.065.209.4,1.007.46,1.12a10.254,10.254,0,0,0,9.239,5.821,10.13,10.13,0,0,0,3.449-.608c.9-.356,1-.36,1.672-.658.057-.04.578-.233,3.967-2.26.007-.011.011-.02.018-.031C356.633,116.34,351.724,109.7,350.418,107.884Z" transform="translate(-91.34 -55.081)" fill="#006eb0"/>
      <g id="Group_7" data-name="Group 7" transform="translate(213.492)">
        <path id="Path_3" data-name="Path 3" d="M374.623,91.125a114.629,114.629,0,0,0-35.907-29.572,69.707,69.707,0,0,0-8.928-3.9c-1.155-.433-2.938-1.086-4.185-1.477-4.747-1.5-9.4-2.671-11.962-3.174a19.969,19.969,0,0,0-4.076-.628,7.134,7.134,0,0,0-4.923,2.593,7.961,7.961,0,0,0-1.955,5.1,7.651,7.651,0,0,0,1.819,5.262,12.892,12.892,0,0,0,2.148,2.05c3.814,3.174,13.136,9.667,20.466,15.9.13.11.264.22.391.333a102.7,102.7,0,0,1,20.737,21.559c1.3,1.813,6.217,8.456,3.265,12.861l.014.031c4.449-2.661,13.391-8.127,21.8-13.147,2.139-1.279,4.28-2.551,6.35-3.786.461-.277.923-.553,1.376-.823A93.4,93.4,0,0,0,374.623,91.125Z" transform="translate(-302.686 -52.369)" fill="#202f60"/>
      </g>
      <g id="Group_15" data-name="Group 15" transform="translate(0 29.117)">
        <g id="Group_14" data-name="Group 14">
          <path id="Path_4" data-name="Path 4" d="M153.647,86.294a6.948,6.948,0,0,0-2.192-1.474,6.866,6.866,0,0,0-2.719-.547h-3.363a6.846,6.846,0,0,0-2.717.547,6.868,6.868,0,0,0-3.668,3.666,6.853,6.853,0,0,0-.545,2.718v10.17a6.853,6.853,0,0,0,.547,2.721,6.871,6.871,0,0,0,3.664,3.663,6.862,6.862,0,0,0,2.718.548h3.363a6.851,6.851,0,0,0,2.718-.547,6.86,6.86,0,0,0,3.667-3.667,6.852,6.852,0,0,0,.548-2.718v-2.7H151.8v2.7a2.947,2.947,0,0,1-.237,1.185,3.078,3.078,0,0,1-.656.986,3.116,3.116,0,0,1-.983.656,2.969,2.969,0,0,1-1.188.236h-3.363a2.957,2.957,0,0,1-1.186-.236,3.018,3.018,0,0,1-1.64-1.638,2.97,2.97,0,0,1-.236-1.189V91.2a2.966,2.966,0,0,1,.234-1.184,3.025,3.025,0,0,1,1.641-1.641,2.959,2.959,0,0,1,1.187-.237h3.363a2.99,2.99,0,0,1,1.186.234,3.129,3.129,0,0,1,.985.658,3.082,3.082,0,0,1,.656.982A2.966,2.966,0,0,1,151.8,91.2v2.021h3.869V91.2a6.878,6.878,0,0,0-.548-2.72A6.98,6.98,0,0,0,153.647,86.294Z" transform="translate(-75.946 -84.059)" fill="#fff"/>
          <path id="Path_5" data-name="Path 5" d="M176.831,86.294a6.956,6.956,0,0,0-2.19-1.474,6.865,6.865,0,0,0-2.718-.547h-4.61a6.851,6.851,0,0,0-2.718.547,6.87,6.87,0,0,0-3.667,3.666,6.856,6.856,0,0,0-.545,2.718v10.17a6.868,6.868,0,0,0,.546,2.721,6.863,6.863,0,0,0,3.664,3.663,6.867,6.867,0,0,0,2.719.548h4.61a6.842,6.842,0,0,0,2.716-.547,6.859,6.859,0,0,0,3.666-3.665,6.851,6.851,0,0,0,.548-2.719V91.2a6.911,6.911,0,0,0-2.022-4.91Zm-4.908,18.143h-4.61a2.967,2.967,0,0,1-1.185-.235,3.045,3.045,0,0,1-1.641-1.639,2.97,2.97,0,0,1-.236-1.189V91.2a2.958,2.958,0,0,1,.235-1.185,3.032,3.032,0,0,1,1.639-1.64,2.966,2.966,0,0,1,1.188-.237h4.61a2.969,2.969,0,0,1,1.184.235,3.03,3.03,0,0,1,1.641,1.642,2.962,2.962,0,0,1,.236,1.185v10.17a2.962,2.962,0,0,1-.238,1.189,3.055,3.055,0,0,1-.655.982,3.1,3.1,0,0,1-.984.657A2.96,2.96,0,0,1,171.922,104.437Z" transform="translate(-77.715 -84.059)" fill="#fff"/>
          <path id="Path_6" data-name="Path 6" d="M198.775,100.9,188.552,84.535h-3.925v23.551H188.5V91.726l10.223,16.36h3.924V84.535h-3.869Z" transform="translate(-79.671 -84.081)" fill="#fff"/>
          <path id="Path_7" data-name="Path 7" d="M222.3,100.895l-10.223-16.36h-3.925v23.551h3.869V91.725l10.224,16.361h3.923V84.535H222.3Z" transform="translate(-81.569 -84.081)" fill="#fff"/>
          <path id="Path_8" data-name="Path 8" d="M231.688,108.086h16.6v-3.869H235.557V97.929h12.379V94.06H235.557V88.4h12.727V84.535h-16.6Z" transform="translate(-83.467 -84.081)" fill="#fff"/>
          <path id="Path_9" data-name="Path 9" d="M273.324,84.535h-4.775l-5.711,7.9-5.711-7.9h-4.778l8.107,11.22-8.91,12.332h4.778l6.518-9.03,6.541,9.03h4.78l-8.928-12.333Z" transform="translate(-85.069 -84.081)" fill="#fff"/>
          <path id="Path_10" data-name="Path 10" d="M291.587,101.395a2.936,2.936,0,0,1-.239,1.19,3.028,3.028,0,0,1-1.639,1.638,2.961,2.961,0,0,1-1.185.235h-3.871a2.959,2.959,0,0,1-1.186-.235,3.113,3.113,0,0,1-.984-.657,3.065,3.065,0,0,1-.657-.986,2.934,2.934,0,0,1-.236-1.185V84.535H277.72v16.86a6.859,6.859,0,0,0,.547,2.717,6.865,6.865,0,0,0,3.665,3.667,6.852,6.852,0,0,0,2.72.548h3.871a6.862,6.862,0,0,0,2.717-.547,6.859,6.859,0,0,0,3.666-3.665,6.85,6.85,0,0,0,.548-2.719V84.535h-3.868Z" transform="translate(-87.18 -84.081)" fill="#fff"/>
          <path id="Path_11" data-name="Path 11" d="M317.337,97.51a5.459,5.459,0,0,0-2.891-2.889,5.381,5.381,0,0,0-2.145-.434h-6.108a1.507,1.507,0,0,1-.61-.12,1.651,1.651,0,0,1-.873-.872,1.513,1.513,0,0,1-.119-.612V89.743a1.533,1.533,0,0,1,.119-.6,1.653,1.653,0,0,1,.351-.526,1.673,1.673,0,0,1,.526-.353,1.477,1.477,0,0,1,.607-.119h5.948a1.515,1.515,0,0,1,.609.121,1.634,1.634,0,0,1,.522.35,1.6,1.6,0,0,1,.348.521,1.507,1.507,0,0,1,.123.609v2.8h3.869v-2.8a5.388,5.388,0,0,0-.434-2.142,5.451,5.451,0,0,0-2.892-2.894,5.407,5.407,0,0,0-2.145-.434h-5.948a5.4,5.4,0,0,0-2.145.434,5.446,5.446,0,0,0-2.892,2.889,5.414,5.414,0,0,0-.435,2.147v2.841a5.406,5.406,0,0,0,.433,2.145,5.448,5.448,0,0,0,2.894,2.893,5.4,5.4,0,0,0,2.145.434H312.3a1.5,1.5,0,0,1,.608.121,1.65,1.65,0,0,1,.522.347,1.667,1.667,0,0,1,.351.528,1.51,1.51,0,0,1,.12.606v3.2a1.493,1.493,0,0,1-.117.608,1.686,1.686,0,0,1-.351.524,1.609,1.609,0,0,1-.526.349,1.49,1.49,0,0,1-.608.123h-6.457a1.5,1.5,0,0,1-.609-.12,1.664,1.664,0,0,1-.52-.349,1.682,1.682,0,0,1-.355-.527,1.5,1.5,0,0,1-.12-.609V99.166h-3.868v3.694a5.374,5.374,0,0,0,.434,2.144A5.439,5.439,0,0,0,303.7,107.9a5.39,5.39,0,0,0,2.145.436H312.3a5.4,5.4,0,0,0,2.145-.434A5.468,5.468,0,0,0,317.339,105a5.4,5.4,0,0,0,.434-2.143v-3.2A5.411,5.411,0,0,0,317.337,97.51Z" transform="translate(-89.007 -84.059)" fill="#fff"/>
          <g id="Group_9" data-name="Group 9" transform="translate(134.21 28.679)">
            <path id="Path_12" data-name="Path 12" d="M236.027,128.25c1.1,0,1.924.033,2.768.108l.175.018v-2.395l.34.2c1.25.745,2.042,1.2,3.16,1.749l.157.075.063-.162a14.138,14.138,0,0,1,1.515-2.791l.111-.167-.189-.071a26.665,26.665,0,0,1-6.918-3.77,22.269,22.269,0,0,1-5.251-5.343l-.048-.066h-3.55l-.048.079a12.885,12.885,0,0,1-1.527,2.067,27.154,27.154,0,0,1-3.309,3.257,28.591,28.591,0,0,1-6.844,3.916l-.184.08.112.163a16.3,16.3,0,0,1,1.544,2.566l.069.136.14-.064a25.754,25.754,0,0,0,2.9-1.591l.343-.2v2.337l.176-.019c.784-.072,1.719-.108,2.853-.108h4.11v3.928h-4.62a27.177,27.177,0,0,1-2.912-.11l-.174-.016v2.938l.173-.014c.838-.075,1.763-.113,2.913-.113h4.62v4.61h-7.633a33.577,33.577,0,0,1-3.422-.134l-.177-.017v3.088l.177-.025a27.8,27.8,0,0,1,3.334-.159h18.638a28.362,28.362,0,0,1,3.36.16l.177.024v-3.089l-.176.017c-.866.09-2.009.135-3.393.135h-7.99v-4.61h5.063c1.136,0,2.055.038,2.889.113l.176.014v-2.94l-.176.015c-.8.078-1.689.113-2.889.113h-5.063V128.25Zm1.567-2.7c-.572.031-.785.031-1.415.031h-11.83c-.45,0-.723,0-1.328-.031l-.669-.034.556-.376a24.067,24.067,0,0,0,7.136-6.928l.176-.272.195.258a26.768,26.768,0,0,0,7.3,6.943l.544.374Z" transform="translate(-216.448 -115.268)" fill="#fff"/>
            <g id="Group_8" data-name="Group 8" transform="translate(32.92 0.038)">
              <path id="Path_13" data-name="Path 13" d="M261.511,125.932h-3.22l.009-.235c.056-1.292.056-1.292.09-2.25v-1.23h3.359c.856,0,1.422.021,1.919.046l.575.026v-2.727l-.182.023a19.39,19.39,0,0,1-2.282.095h-1.421v-1.892a20.219,20.219,0,0,1,.094-2.274l.023-.176h-3l.022.177a18.443,18.443,0,0,1,.12,2.3v1.859h-2.107a17.984,17.984,0,0,1-2.518-.114l-.182-.025v2.787l.177-.022a17.743,17.743,0,0,1,2.224-.088h.558l0,.23a64.6,64.6,0,0,1-.6,10.012,17.772,17.772,0,0,1-2.821,7.971l-.08.117.106.1a9.1,9.1,0,0,1,1.808,2.206l.131.211.136-.207a18.734,18.734,0,0,0,2.612-6.03,35.981,35.981,0,0,0,1.1-8.138l.014-.217h2.8v.226c-.032,4.029-.167,7.138-.392,8.989-.24,1.8-.424,2.261-1.571,2.261a7.954,7.954,0,0,1-1.467-.138l-.252-.045.072.245a11.255,11.255,0,0,1,.4,2.416l.006.138.14.01c.535.039.813.039,1.2.039,2.225,0,3.136-.5,3.61-1.97a45.559,45.559,0,0,0,.854-9.794c.027-3.486.034-4.163.079-4.789l.017-.188-.186.014C262.96,125.919,262.376,125.932,261.511,125.932Z" transform="translate(-252.256 -115.282)" fill="#fff"/>
              <path id="Path_14" data-name="Path 14" d="M281.118,140.374a17.815,17.815,0,0,1-4.773-7.011l-.07-.165.139-.106a30.905,30.905,0,0,0,4.276-3.788l.1-.1-1.717-2-.121.156a14.418,14.418,0,0,1-3.257,3.085l-.266.193-.084-.325a23.966,23.966,0,0,1-.593-3.769l-.018-.17.08-.091c.465-.357,1.989-1.527,2.229-1.715.344-.275.5-.4.7-.546l.158-.116-2.076-1.808-.171.141a29.156,29.156,0,0,1-4.426,3.2,30.861,30.861,0,0,1-5.67,2.866l-.186.068.1.165a9.073,9.073,0,0,1,1.059,2.226l.058.172.165-.076c.336-.165.724-.359,1.087-.549l.33-.167V140.7a25.661,25.661,0,0,1-.127,2.767l-.017.179h2.958l-.017-.176c-.077-.854-.112-1.761-.112-2.771V128.728l.123-.06a10.418,10.418,0,0,0,.923-.533l.611-.383.045.348a28.821,28.821,0,0,0,1.779,7.523,19.678,19.678,0,0,0,5,7.653l.172.168.088-.216a10.247,10.247,0,0,1,1.531-2.634l.092-.12Z" transform="translate(-253.314 -115.827)" fill="#fff"/>
              <path id="Path_15" data-name="Path 15" d="M265.169,122.535v-.017l-.283.32c-.362.417-.609.685-1.011,1.079l-.143.144.171.107a7.906,7.906,0,0,1,1.75,1.455l.115.133.122-.129a20.4,20.4,0,0,0,3.137-4.227l.066-.113h8.879c1.143,0,1.853.025,2.528.083l.174.013v-2.812l-.177.018a22.811,22.811,0,0,1-2.675.127h-7.413l.748-1.848c.148-.361.253-.621.361-.86l.083-.185-2.792-.547-.032.158a17.98,17.98,0,0,1-3.2,6.55l-.208.3h0Z" transform="translate(-253.182 -115.277)" fill="#fff"/>
            </g>
            <path id="Path_16" data-name="Path 16" d="M316.3,140.521a91.2,91.2,0,0,1-10.836.483c-4.339,0-6.325-.213-7.6-.821a4.737,4.737,0,0,1-2.422-2.229l-.035-.1V131.2c0-1.352.021-2.137.074-2.892l.017-.195-.192.02a14.8,14.8,0,0,1-1.826.088h-2.24a14.067,14.067,0,0,1-1.957-.093l-.181-.024V130.9l.184-.022a11,11,0,0,1,1.6-.089h1.833v6.947l-.073.065a18.928,18.928,0,0,1-3.934,2.932l-.132.066,1.256,3.021.248-.2c.067-.052.133-.1.194-.156l.195-.149a29.626,29.626,0,0,0,3.449-2.946l.186-.169.154.194a7.306,7.306,0,0,0,3.68,2.7c1.453.431,3.656.6,7.851.6,2.823,0,6.964-.05,9.861-.17l.131,0,.023-.128a16.452,16.452,0,0,1,.671-2.664l.074-.234Z" transform="translate(-222.266 -116.274)" fill="#fff"/>
            <path id="Path_17" data-name="Path 17" d="M296.017,120.644a29.685,29.685,0,0,0-4.387-4.817l-.112-.1-2.059,1.972.121.113a26.534,26.534,0,0,1,4.276,4.945l.115.162,2.124-2.16Z" transform="translate(-222.337 -115.276)" fill="#fff"/>
            <path id="Path_18" data-name="Path 18" d="M316.274,121.532a25.038,25.038,0,0,1-2.53.077h-5.811v-1.958h4.827c1.007,0,1.66.025,2.256.079l.18.018v-2.426l-.178.019c-.844.076-1.672.111-2.616.111h-4.469v-.228a16.265,16.265,0,0,1,.095-1.807l.022-.181h-2.89l.017.181c.056.495.081.995.106,1.8l.005.234h-4.148a22.915,22.915,0,0,1-2.588-.1l-.175-.018v2.391l.17-.015c.424-.032.994-.062,2.265-.062h4.47v1.958h-5.339c-1.278,0-1.9-.016-2.5-.074l-.175-.021v2.421l.175-.018c.644-.054,1.279-.074,2.5-.074h1.007l.061.13a15.3,15.3,0,0,1,.879,2.119l.095.292H300.6a24.683,24.683,0,0,1-2.5-.073l-.179-.019v2.386l.179-.019c.592-.051,1.271-.074,2.5-.074h4.678v1.992h-4.143c-.986,0-1.715-.021-2.289-.078l-.177-.014v2.167l.177-.015c.575-.053,1.323-.081,2.289-.081h4.143v1.965H300.3a20.417,20.417,0,0,1-2.463-.1l-.176-.023v2.309l.175-.023a21.814,21.814,0,0,1,2.465-.094h4.987l-.005.234c-.025.851-.049,1.451-.108,2.024l-.015.174h2.917l-.025-.178a16.95,16.95,0,0,1-.087-2.029v-.225h5.605a22.633,22.633,0,0,1,2.5.1l.177.019v-2.312l-.177.019a20.343,20.343,0,0,1-2.525.1h-5.576v-1.965H312.5c.952,0,1.67.026,2.256.081l.177.015v-2.167l-.177.014c-.568.057-1.294.078-2.256.078h-4.531v-1.992h5.3c1.234,0,1.892.022,2.5.075l.179.018v-2.388l-.179.019c-.6.059-1.206.074-2.5.074h-1.991l.152-.32c.275-.6.5-1.081.887-2.08l.061-.142h1.373c1.2,0,1.845.022,2.531.078l.172.017v-2.423Zm-6.6,2.309-.1.3a19.016,19.016,0,0,1-.853,2.119l-.051.125H304.5l-.052-.156a18.564,18.564,0,0,0-.792-2.066l-.149-.319Z" transform="translate(-222.967 -115.236)" fill="#fff"/>
          </g>
          <path id="Path_19" data-name="Path 19" d="M85.668,86.294a6.969,6.969,0,0,0-2.192-1.474,6.864,6.864,0,0,0-2.72-.547H77.393a6.926,6.926,0,0,0-4.907,2.019,6.981,6.981,0,0,0-1.478,2.194,6.9,6.9,0,0,0-.545,2.718v10.17a6.909,6.909,0,0,0,6.931,6.932h3.363a6.841,6.841,0,0,0,2.718-.547,6.857,6.857,0,0,0,3.668-3.667,6.867,6.867,0,0,0,.547-2.718v-2.7H83.819v2.7a2.976,2.976,0,0,1-.234,1.185,3.022,3.022,0,0,1-1.641,1.642,2.962,2.962,0,0,1-1.188.236H77.393a2.952,2.952,0,0,1-1.185-.236,3.026,3.026,0,0,1-1.64-1.638,2.97,2.97,0,0,1-.236-1.189V91.2a2.966,2.966,0,0,1,.234-1.184,3.019,3.019,0,0,1,1.64-1.641,2.959,2.959,0,0,1,1.187-.237h3.363a2.987,2.987,0,0,1,1.186.234,3.113,3.113,0,0,1,.986.658,3.079,3.079,0,0,1,.655.982,2.966,2.966,0,0,1,.236,1.188v2.021h3.869V91.2a6.863,6.863,0,0,0-.549-2.72A6.975,6.975,0,0,0,85.668,86.294Z" transform="translate(-70.462 -84.059)" fill="#fff"/>
          <g id="Group_12" data-name="Group 12" transform="translate(18.664)">
            <g id="Group_10" data-name="Group 10" transform="translate(0 0.014)">
              <path id="Path_20" data-name="Path 20" d="M105.414,86.63H99.356v19.814h-.271V86.63H93.068v-.27h12.346Z" transform="translate(-90.949 -84.242)" fill="#fff"/>
              <path id="Path_21" data-name="Path 21" d="M101.288,108.376H96.78V88.562H90.763V84.056h16.583v4.506h-6.058Z" transform="translate(-90.763 -84.056)" fill="#fff"/>
            </g>
            <g id="Group_11" data-name="Group 11" transform="translate(18.721)">
              <path id="Path_22" data-name="Path 22" d="M113.7,86.345v19.828h10.942v.269H113.431v-20.1Z" transform="translate(-111.312 -84.227)" fill="#fff"/>
              <path id="Path_23" data-name="Path 23" d="M126.575,108.375H111.127V84.041h4.506v19.829h10.942Z" transform="translate(-111.127 -84.041)" fill="#fff"/>
            </g>
          </g>
          <g id="Group_13" data-name="Group 13" transform="translate(51.642 9.78)">
            <path id="Path_24" data-name="Path 24" d="M128.94,96.982h2.579v.27H128.94Z" transform="translate(-126.821 -94.864)" fill="#fff"/>
            <rect id="Rectangle_5" data-name="Rectangle 5" width="6.815" height="4.506" fill="#fff"/>
          </g>
        </g>
      </g>
    </g>
  </g>
</svg>
