<svg id="Group_34" data-name="Group 34" xmlns="http://www.w3.org/2000/svg" width="250.64" height="250.64" viewBox="0 0 250.64 250.64">
  <path id="Path_31" data-name="Path 31" d="M1424.882,1574.955a125.32,125.32,0,1,1-125.32,125.32,125.327,125.327,0,0,1,125.32-125.32Zm0,16.531a108.789,108.789,0,1,0,108.79,108.789,108.791,108.791,0,0,0-108.79-108.789Z" transform="translate(-1299.562 -1574.955)" fill="#fff"/>
  <path id="Path_32" data-name="Path 32" d="M1495.715,1714.19l-87.838,54.85a6.563,6.563,0,0,1-10.048-5.577v-109.68a6.562,6.562,0,0,1,10.048-5.577l87.838,54.85a6.567,6.567,0,0,1,0,11.134Z" transform="translate(-1310.918 -1583.303)" fill="#fff" fill-rule="evenodd"/>
</svg>
